{"glyphs":{"0":{"ha":3126,"x_min":0,"x_max":0,"o":"m 1650 949 b 1572 1014 1606 949 1578 971 b 1568 1071 1568 1033 1568 1053 b 1574 1206 1568 1114 1564 1165 b 1646 1258 1582 1243 1611 1257 b 1728 1214 1679 1258 1715 1247 b 1735 1081 1742 1175 1735 1122 b 1731 1010 1735 1056 1735 1031 b 1650 949 1721 967 1693 949 z m 161 -42 l 211 -42 l 214 96 l 242 -42 l 281 -42 l 304 99 l 310 -42 l 357 -42 l 356 294 l 299 294 l 260 85 l 219 294 l 165 294 z m 401 -42 l 454 -42 l 454 124 l 513 -42 l 554 -42 l 554 294 l 501 294 l 501 135 l 444 294 l 401 294 z m 592 -42 l 649 -42 l 649 19 l 592 19 z m 669 76 b 683 -6 669 47 674 19 b 765 -46 697 -36 732 -50 b 824 22 801 -36 822 -7 b 783 135 828 67 815 103 l 757 165 b 725 204 746 176 732 185 b 749 247 721 217 722 249 b 771 182 771 243 767 204 l 822 185 b 778 292 822 225 818 274 b 674 233 731 314 675 282 b 688 156 668 206 674 176 b 718 121 692 143 707 135 b 771 38 738 99 771 72 b 756 8 771 22 767 13 b 735 19 746 4 740 13 b 722 79 722 39 722 61 z m 765 -368 b 814 -321 765 -340 779 -315 b 846 -372 846 -324 846 -350 l 826 -372 b 824 -344 826 -367 828 -354 b 792 -343 819 -331 799 -331 b 786 -397 783 -354 786 -383 b 794 -453 786 -411 783 -439 b 824 -449 799 -464 819 -462 b 826 -419 828 -439 826 -429 l 846 -419 b 808 -478 846 -444 843 -478 b 765 -368 753 -478 765 -407 z m 850 128 b 851 33 850 96 847 67 b 886 -35 854 8 863 -24 b 968 -31 908 -50 947 -50 l 971 -42 l 1014 -42 l 1014 135 l 928 135 l 928 85 l 961 85 b 928 8 961 67 967 -7 b 908 79 901 17 908 63 l 908 201 b 939 247 908 226 914 250 b 957 176 954 240 957 235 l 1011 176 b 975 288 1011 213 1014 264 b 900 294 954 301 925 301 b 851 225 871 282 856 253 b 850 128 847 194 850 161 z m 865 -396 b 910 -321 865 -354 865 -314 b 951 -397 956 -324 951 -367 b 908 -478 951 -431 953 -478 b 865 -396 857 -478 865 -428 z m 869 951 l 869 1257 l 933 1257 b 1006 1222 963 1257 992 1253 b 992 1108 1026 1186 1026 1133 b 908 1093 971 1089 935 1093 l 908 951 z m 871 718 l 871 908 l 910 908 l 910 704 b 935 632 910 679 908 646 b 992 699 981 618 992 664 l 992 797 l 992 908 l 1035 908 l 1035 769 b 982 604 1035 717 1047 625 b 879 644 947 589 894 603 b 871 718 871 665 871 689 z m 886 -383 b 896 -457 886 -400 879 -450 b 928 -406 932 -476 928 -425 b 918 -339 928 -387 933 -344 b 886 -362 896 -328 886 -344 b 886 -383 885 -368 886 -378 z m 908 1124 b 953 1126 924 1124 938 1122 b 979 1169 975 1132 979 1149 b 953 1222 979 1190 979 1215 b 908 1224 938 1228 924 1224 z m 924 -282 l 924 -128 l 982 -128 l 982 -143 l 947 -143 l 947 -196 l 975 -196 l 975 -210 l 947 -210 l 947 -282 z m 971 -476 l 971 -321 l 996 -321 l 1024 -444 l 1049 -321 l 1071 -321 l 1072 -476 l 1057 -476 l 1057 -362 l 1032 -476 l 1015 -476 l 990 -362 l 990 -476 z m 996 -200 b 1043 -124 996 -162 996 -122 b 1082 -206 1086 -129 1082 -175 b 1039 -283 1082 -239 1082 -283 b 996 -200 992 -283 996 -233 z m 1018 -196 b 1032 -268 1018 -210 1008 -258 b 1061 -211 1061 -275 1061 -233 b 1049 -144 1061 -196 1067 -151 b 1018 -171 1032 -133 1018 -151 z m 1025 -83 l 1072 -83 l 1168 338 l 1115 338 z m 1049 951 l 1049 1257 l 1165 1257 l 1165 1224 l 1090 1224 l 1090 1124 l 1151 1124 l 1151 1093 l 1090 1093 l 1090 981 l 1168 981 l 1168 951 z m 1067 688 l 1108 699 b 1124 644 1110 679 1110 657 b 1172 640 1135 631 1158 626 b 1175 701 1190 654 1186 685 b 1140 735 1165 713 1157 726 b 1081 793 1122 751 1094 771 b 1115 908 1057 832 1067 894 b 1190 897 1138 913 1168 910 b 1215 832 1210 883 1215 856 l 1183 818 b 1149 875 1182 842 1175 871 b 1110 851 1129 881 1114 869 b 1158 775 1100 817 1133 797 b 1219 693 1186 751 1214 732 b 1149 601 1229 646 1200 601 b 1067 688 1100 601 1071 639 z m 1100 -476 l 1100 -321 l 1122 -321 l 1149 -444 l 1176 -321 l 1197 -321 l 1200 -476 l 1186 -476 l 1183 -362 l 1157 -476 l 1140 -476 l 1118 -362 l 1115 -476 z m 1104 -282 l 1104 -128 b 1161 -132 1122 -128 1144 -122 b 1161 -206 1186 -144 1192 -196 l 1186 -282 l 1161 -282 l 1140 -210 l 1124 -210 l 1124 -282 z m 1119 369 l 1119 531 b 1192 513 1140 531 1178 535 b 1186 454 1197 496 1197 465 b 1140 444 1171 443 1157 444 l 1140 369 z m 1124 -196 b 1161 -168 1143 -196 1161 -192 b 1124 -143 1161 -144 1144 -143 z m 1140 458 b 1163 461 1147 458 1158 458 b 1175 492 1175 468 1175 479 b 1140 517 1175 517 1161 517 z m 1157 126 b 1160 32 1157 94 1157 65 b 1193 -36 1161 7 1172 -24 b 1274 -31 1217 -50 1256 -51 l 1276 -43 l 1321 -43 l 1321 133 l 1235 133 l 1235 82 l 1268 82 b 1235 7 1268 65 1275 -7 b 1214 78 1211 15 1214 61 l 1214 158 b 1215 228 1214 178 1213 208 b 1244 244 1218 243 1235 247 b 1265 174 1256 242 1265 232 l 1319 174 b 1283 286 1319 211 1321 263 b 1210 293 1263 299 1232 300 b 1160 224 1175 282 1163 251 b 1157 126 1156 192 1157 158 z m 1200 951 l 1200 1257 b 1319 1244 1239 1257 1286 1261 b 1318 1104 1364 1218 1368 1122 l 1357 951 l 1318 951 l 1276 1094 l 1244 1094 l 1244 951 z m 1214 369 l 1214 531 l 1231 531 l 1231 388 l 1272 388 l 1272 369 z m 1225 -476 l 1225 -321 l 1286 -321 l 1286 -336 l 1247 -336 l 1247 -383 l 1279 -383 l 1279 -400 l 1247 -400 l 1247 -462 l 1286 -462 l 1286 -476 z m 1235 -143 l 1235 -128 l 1315 -128 l 1315 -143 l 1286 -143 l 1286 -282 l 1263 -282 l 1263 -143 z m 1244 1124 b 1288 1126 1257 1124 1272 1124 b 1310 1179 1307 1136 1314 1156 b 1288 1219 1310 1196 1307 1214 b 1244 1224 1272 1228 1257 1224 z m 1257 604 l 1257 908 l 1375 908 l 1375 874 l 1297 874 l 1297 775 l 1358 775 l 1358 744 l 1297 744 l 1297 631 l 1375 631 l 1375 604 z m 1288 369 l 1288 531 l 1347 531 l 1347 517 l 1307 517 l 1307 461 l 1340 461 l 1340 444 l 1307 444 l 1307 388 l 1347 388 l 1347 369 z m 1301 -476 l 1301 -321 b 1361 -325 1324 -321 1344 -315 b 1358 -397 1383 -339 1386 -387 l 1382 -476 l 1361 -476 l 1343 -400 l 1325 -400 l 1325 -476 z m 1325 -383 b 1358 -362 1344 -383 1358 -383 b 1325 -336 1358 -339 1344 -336 z m 1325 -282 l 1325 -128 l 1346 -128 l 1346 -196 l 1388 -196 l 1388 -128 l 1410 -128 l 1410 -282 l 1388 -282 l 1388 -210 l 1346 -210 l 1346 -282 z m 1338 78 b 1340 28 1338 63 1338 46 b 1389 -42 1342 -1 1358 -29 b 1463 -33 1411 -47 1442 -47 b 1497 78 1500 -11 1497 40 l 1497 174 b 1463 286 1497 211 1500 263 b 1389 293 1442 299 1411 299 b 1340 221 1358 282 1342 251 b 1338 171 1338 204 1338 188 z m 1357 369 l 1392 531 l 1414 531 l 1444 369 l 1424 369 l 1415 413 l 1382 413 l 1378 369 z m 1383 426 l 1414 426 l 1401 500 z m 1383 1036 l 1425 1047 b 1440 993 1426 1024 1429 1004 b 1492 990 1454 979 1478 976 b 1492 1049 1507 1000 1506 1031 b 1457 1083 1483 1057 1475 1069 b 1400 1138 1440 1099 1414 1118 b 1435 1253 1375 1181 1383 1243 b 1507 1244 1454 1261 1489 1258 b 1535 1181 1526 1232 1532 1204 l 1503 1169 b 1468 1228 1497 1190 1493 1219 b 1426 1201 1449 1228 1429 1218 b 1478 1124 1421 1165 1453 1142 b 1539 1042 1503 1099 1531 1076 b 1468 949 1549 993 1519 949 b 1383 1036 1415 949 1386 988 z m 1393 85 l 1393 165 b 1400 233 1393 183 1392 211 b 1425 244 1401 238 1413 244 b 1442 224 1433 240 1442 236 b 1443 174 1446 208 1443 192 l 1443 78 b 1442 28 1443 61 1446 43 b 1425 7 1442 14 1433 13 b 1400 19 1413 4 1401 13 b 1393 85 1392 40 1393 67 z m 1401 -368 b 1449 -321 1401 -340 1414 -315 b 1482 -372 1479 -324 1482 -350 l 1458 -372 b 1457 -344 1458 -367 1464 -354 b 1426 -343 1454 -331 1435 -331 b 1421 -397 1415 -354 1421 -383 b 1426 -453 1421 -411 1415 -439 b 1457 -449 1435 -464 1454 -462 b 1458 -419 1464 -439 1458 -429 l 1482 -419 b 1440 -478 1482 -444 1478 -478 b 1401 -368 1386 -478 1401 -407 z m 1431 -282 l 1431 -128 l 1492 -128 l 1492 -143 l 1454 -143 l 1454 -196 l 1486 -196 l 1486 -210 l 1454 -210 l 1454 -271 l 1492 -271 l 1492 -282 z m 1454 415 l 1478 422 b 1489 388 1478 411 1478 393 b 1514 407 1506 386 1514 393 b 1478 456 1514 426 1489 443 b 1468 522 1457 472 1444 503 b 1510 526 1479 531 1497 532 b 1532 489 1525 521 1532 503 l 1514 486 b 1503 517 1511 496 1510 507 b 1478 503 1492 518 1479 517 b 1497 461 1472 486 1489 472 b 1532 422 1511 453 1531 440 b 1497 369 1540 396 1525 369 b 1454 415 1472 369 1457 392 z m 1489 728 b 1493 857 1489 769 1483 817 b 1567 908 1506 894 1532 908 b 1646 867 1606 910 1635 899 b 1653 735 1664 826 1653 774 b 1650 661 1653 707 1658 685 b 1574 601 1644 621 1615 601 b 1492 664 1531 601 1497 622 b 1489 728 1489 685 1489 704 z m 1506 -476 l 1506 -321 l 1525 -321 l 1525 -476 z m 1515 -43 l 1629 -43 l 1629 14 l 1574 14 l 1574 293 l 1515 293 z m 1532 699 b 1550 636 1532 675 1531 646 b 1589 636 1564 631 1579 631 b 1611 675 1606 644 1610 661 b 1611 707 1615 685 1611 699 l 1611 817 b 1601 867 1611 835 1615 853 b 1564 875 1589 875 1574 881 b 1532 849 1546 874 1539 867 b 1532 751 1526 818 1532 783 z m 1540 -476 l 1574 -321 l 1596 -321 l 1631 -476 l 1610 -476 l 1606 -435 l 1572 -435 l 1564 -476 z m 1550 369 l 1550 531 l 1611 531 l 1611 517 l 1574 517 l 1574 461 l 1606 461 l 1606 444 l 1574 444 l 1574 388 l 1615 388 l 1615 369 z m 1558 -282 l 1558 -128 l 1617 -128 l 1617 -143 l 1574 -143 l 1574 -196 l 1606 -196 l 1606 -210 l 1574 -210 l 1574 -282 z m 1574 -424 l 1601 -424 l 1588 -350 z m 1611 1044 b 1635 983 1611 1024 1610 994 b 1671 983 1644 979 1663 979 b 1693 1024 1689 993 1692 1008 l 1693 1163 b 1679 1214 1693 1181 1693 1201 b 1644 1224 1669 1228 1658 1228 b 1615 1196 1628 1222 1619 1214 b 1611 1099 1606 1169 1611 1128 z m 1631 -244 b 1631 -210 1628 -233 1631 -219 l 1631 -128 l 1649 -128 l 1649 -196 b 1669 -271 1649 -214 1642 -271 b 1693 -196 1699 -271 1693 -214 l 1693 -128 l 1711 -128 l 1711 -197 b 1683 -282 1711 -224 1714 -271 b 1631 -244 1654 -290 1635 -275 z m 1642 -43 l 1703 -43 b 1790 63 1764 -43 1790 -11 l 1790 188 b 1696 293 1790 258 1764 293 l 1642 293 z m 1646 -476 l 1646 -321 l 1667 -321 l 1667 -462 l 1707 -462 l 1707 -476 z m 1667 531 l 1689 531 l 1711 415 l 1735 531 l 1754 531 l 1721 369 l 1701 369 z m 1696 8 l 1696 236 l 1714 236 b 1731 215 1724 236 1731 224 b 1732 168 1732 201 1732 183 l 1732 78 b 1731 28 1732 61 1732 43 b 1714 8 1731 19 1724 14 z m 1699 604 l 1699 908 l 1726 908 l 1813 704 l 1813 908 l 1851 908 l 1851 604 l 1821 604 l 1731 810 l 1731 604 z m 1735 -282 l 1735 -128 l 1758 -128 l 1758 -271 l 1793 -271 l 1793 -282 z m 1760 -321 l 1778 -321 l 1803 -435 l 1826 -321 l 1846 -321 l 1811 -476 l 1793 -476 z m 1771 369 l 1771 531 l 1793 531 l 1793 369 z m 1778 951 l 1778 1257 l 1806 1257 l 1889 1053 l 1889 1257 l 1926 1257 l 1926 951 l 1899 951 l 1813 1156 l 1813 951 z m 1806 -43 l 1929 -43 l 1929 14 l 1861 14 l 1861 103 l 1915 103 l 1915 163 l 1861 163 l 1861 236 l 1929 236 l 1929 293 l 1806 293 z m 1811 -282 l 1811 -128 l 1832 -128 l 1832 -271 l 1871 -271 l 1871 -282 z m 1815 415 l 1835 422 b 1851 388 1835 411 1840 393 b 1871 407 1863 386 1871 393 b 1835 456 1874 426 1851 443 b 1826 522 1817 472 1803 503 b 1869 526 1840 531 1858 532 b 1889 489 1883 521 1888 503 l 1871 486 b 1858 517 1869 496 1869 507 b 1838 503 1854 518 1840 517 b 1858 461 1826 486 1849 472 b 1889 422 1869 453 1888 440 b 1856 369 1897 396 1883 369 b 1815 415 1826 369 1817 392 z m 1863 -476 l 1863 -321 l 1924 -321 l 1924 -336 l 1885 -336 l 1885 -383 l 1917 -383 l 1917 -400 l 1885 -400 l 1885 -462 l 1924 -462 l 1924 -476 z m 1897 604 l 1897 908 l 1938 908 l 1938 631 l 2014 631 l 2014 604 z m 1911 369 l 1911 531 l 1932 531 l 1932 369 z m 1924 -282 l 1954 -128 l 1979 -128 l 2013 -282 l 1990 -282 l 1983 -243 l 1951 -243 l 1942 -282 z m 1940 -476 l 1940 -321 b 2001 -325 1960 -321 1983 -315 b 1997 -399 2022 -339 2022 -389 l 2019 -476 l 1999 -476 l 1978 -400 l 1964 -400 l 1964 -476 z m 1946 -43 l 1997 -43 l 1997 121 l 2054 -43 l 2097 -43 l 2097 293 l 2044 293 l 2044 132 l 1986 293 l 1946 293 z m 1946 517 l 1946 531 l 2019 531 l 2019 517 l 1994 517 l 1994 369 l 1976 369 l 1976 517 z m 1954 -228 l 1981 -228 l 1967 -157 z m 1958 951 l 2022 1257 l 2065 1257 l 2129 951 l 2089 951 l 2075 1024 l 2013 1024 l 1997 951 z m 1964 -383 b 1997 -362 1983 -383 1997 -383 b 1964 -336 1997 -339 1983 -336 z m 2018 1056 l 2069 1056 l 2046 1196 z m 2026 -282 l 2026 -128 l 2040 -128 l 2085 -229 l 2085 -128 l 2104 -128 l 2104 -282 l 2089 -282 l 2047 -176 l 2047 -282 z m 2026 908 l 2065 908 l 2111 761 l 2157 908 l 2199 908 b 2157 779 2185 867 2171 824 l 2136 718 b 2133 678 2129 704 2133 689 l 2133 604 l 2090 604 l 2090 665 b 2090 713 2090 679 2093 699 b 2069 771 2085 735 2079 751 z m 2036 -431 l 2056 -428 b 2069 -457 2056 -436 2060 -453 b 2094 -440 2085 -464 2094 -454 b 2056 -396 2094 -424 2069 -406 b 2050 -328 2038 -376 2026 -343 b 2093 -324 2064 -318 2081 -315 b 2111 -358 2107 -328 2111 -343 l 2094 -367 b 2083 -336 2093 -354 2093 -340 b 2060 -344 2071 -331 2064 -336 b 2081 -383 2051 -362 2069 -372 b 2111 -429 2093 -397 2111 -407 b 2079 -478 2119 -453 2107 -478 b 2036 -431 2051 -478 2038 -457 z m 2117 94 l 2174 94 l 2174 153 l 2117 153 z m 2129 -282 l 2129 -128 b 2199 -137 2147 -128 2176 -122 b 2207 -206 2214 -151 2207 -183 b 2190 -272 2207 -228 2214 -261 b 2129 -282 2175 -286 2146 -282 z m 2133 -476 l 2133 -321 l 2151 -321 l 2151 -476 z m 2150 -271 b 2186 -244 2167 -271 2181 -271 l 2186 -165 b 2150 -143 2185 -143 2171 -143 z m 2161 951 l 2161 1257 l 2204 1257 l 2204 981 l 2281 981 l 2281 951 z m 2175 -396 b 2224 -321 2175 -354 2175 -314 b 2261 -397 2268 -324 2261 -367 b 2219 -478 2261 -431 2265 -478 b 2175 -396 2172 -478 2175 -428 z m 2192 -43 l 2250 -43 l 2250 99 l 2300 99 l 2300 -43 l 2356 -43 l 2356 293 l 2300 293 l 2300 158 l 2250 158 l 2250 293 l 2192 293 z m 2203 -383 b 2208 -457 2203 -400 2190 -450 b 2242 -406 2243 -476 2242 -425 b 2232 -339 2242 -387 2246 -344 b 2203 -362 2208 -328 2203 -344 z m 2219 604 l 2219 646 l 2261 646 l 2261 604 z m 2219 908 l 2261 908 l 2247 668 l 2233 668 z m 2286 -476 l 2286 -321 l 2300 -321 l 2346 -425 l 2346 -321 l 2363 -321 l 2363 -476 l 2347 -476 l 2300 -368 l 2300 -476 z m 2372 78 b 2374 28 2372 63 2372 46 b 2422 -42 2376 -1 2392 -29 b 2497 -33 2446 -47 2476 -47 b 2532 78 2535 -11 2532 40 l 2532 174 b 2497 286 2532 211 2535 263 b 2422 293 2476 299 2446 299 b 2374 221 2392 282 2376 251 b 2372 171 2372 204 2372 188 z m 2428 85 l 2428 165 b 2433 233 2428 183 2426 211 b 2458 244 2436 238 2447 244 b 2476 224 2468 240 2476 236 b 2478 174 2481 208 2478 192 l 2478 78 b 2476 28 2478 61 2481 43 b 2458 7 2476 14 2468 13 b 2433 19 2447 4 2436 13 b 2428 85 2426 40 2428 67 z m 2549 -43 l 2601 -43 l 2601 63 b 2636 65 2617 63 2628 64 b 2699 181 2699 81 2699 153 b 2624 293 2699 253 2661 293 l 2549 293 z m 2601 113 l 2601 244 l 2617 244 b 2625 113 2650 244 2646 121 z m 2710 -43 l 2833 -43 l 2833 14 l 2764 14 l 2764 103 l 2819 103 l 2819 163 l 2764 163 l 2764 236 l 2833 236 l 2833 293 l 2710 293 z m 2846 75 b 2857 -6 2846 46 2846 19 b 2939 -47 2872 -39 2907 -51 b 2997 21 2974 -39 2996 -8 b 2957 133 3003 65 2986 101 l 2929 163 b 2901 201 2918 174 2907 183 b 2921 244 2896 215 2899 247 b 2942 181 2943 240 2942 201 l 2996 183 b 2950 290 2996 224 2990 272 b 2846 232 2906 311 2849 282 b 2861 153 2843 204 2846 174 b 2889 118 2867 143 2879 133 b 2942 35 2908 97 2942 72 b 2929 7 2942 21 2942 8 b 2908 19 2918 3 2911 8 b 2899 78 2899 38 2899 58 z "}," ":{"ha":417,"x_min":0,"x_max":0,"o":""},"A":{"ha":789,"x_min":0,"x_max":0,"o":"m 285 511 l 535 536 b 544 538 539 538 542 538 b 551 533 549 536 551 535 l 551 532 b 547 518 551 529 550 525 b 428 238 508 425 468 331 b 394 113 424 226 394 157 l 394 106 b 415 72 394 86 399 72 l 421 72 b 442 94 438 72 442 82 l 442 121 b 444 139 442 126 443 132 b 596 526 483 272 538 399 b 622 543 601 538 610 543 b 693 546 643 543 669 546 l 704 546 b 742 535 719 546 733 542 b 750 531 744 532 747 531 b 772 553 761 531 771 542 b 743 576 772 564 765 574 b 706 579 729 578 717 579 b 664 581 689 581 675 581 l 639 581 b 628 588 631 581 628 582 b 646 628 628 593 635 606 b 833 986 707 749 776 864 b 844 1021 840 1000 844 1011 l 844 1024 b 815 1057 844 1044 832 1057 l 811 1057 b 774 1044 800 1057 789 1053 b 267 574 603 936 392 719 b 196 535 249 551 229 540 b -110 467 142 528 -81 485 b -114 457 -112 465 -114 463 b -97 435 -114 449 -110 438 l -94 435 b 68 467 -67 435 68 458 b 174 496 69 482 161 493 b 190 497 181 496 186 497 b 196 493 193 497 196 496 b 189 482 196 490 193 488 b -160 -50 68 318 -75 132 b -172 -87 -164 -58 -172 -74 l -172 -90 b -154 -108 -172 -100 -168 -108 l -144 -108 b -100 -42 -107 -108 -114 -67 b 251 496 0 150 114 325 b 285 511 260 506 271 510 z m 311 560 b 800 1013 314 597 706 976 b 589 604 756 903 647 715 b 558 576 581 589 578 578 l 340 554 b 321 553 336 554 328 553 b 313 558 317 553 313 554 z "},"Á":{"ha":789,"x_min":0,"x_max":0,"o":"m 992 1303 b 872 1176 969 1289 872 1204 b 889 1161 872 1168 878 1161 b 904 1164 893 1161 899 1163 l 988 1253 b 1010 1282 994 1260 1010 1267 b 1008 1292 1010 1285 1010 1289 b 992 1303 1006 1297 999 1299 z m -172 -90 b -154 -108 -172 -100 -168 -108 l -144 -108 b -100 -42 -107 -108 -114 -67 b 251 496 0 150 114 325 b 285 511 260 506 271 510 l 535 536 b 544 538 539 538 542 538 b 551 533 549 536 551 535 l 551 532 b 547 518 551 529 550 525 b 428 238 508 425 468 331 b 394 113 424 226 394 157 l 394 106 b 415 72 394 86 399 72 l 421 72 b 442 94 438 72 442 82 l 442 121 b 444 139 442 126 443 132 b 596 526 483 272 538 399 b 622 543 601 538 610 543 b 693 546 643 543 669 546 l 704 546 b 742 535 719 546 733 542 b 750 531 744 532 747 531 b 772 553 761 531 771 542 b 743 576 772 564 765 574 b 706 579 729 578 717 579 b 664 581 689 581 675 581 l 639 581 b 628 588 631 581 628 582 b 646 628 628 593 635 606 b 833 986 707 749 776 864 b 844 1021 840 1000 844 1011 l 844 1024 b 815 1057 844 1044 832 1057 l 811 1057 b 774 1044 800 1057 789 1053 b 267 574 603 936 392 719 b 196 535 249 551 229 540 b -110 467 142 528 -81 485 b -114 457 -112 465 -114 463 b -97 435 -114 449 -110 438 l -94 435 b 68 467 -67 435 68 458 b 174 496 69 482 161 493 b 190 497 181 496 186 497 b 196 493 193 497 196 496 b 189 482 196 490 193 488 b -160 -50 68 318 -75 132 b -172 -87 -164 -58 -172 -74 z m 311 560 b 800 1013 314 597 706 976 b 589 604 756 903 647 715 b 558 576 581 589 578 578 l 340 554 b 321 553 336 554 328 553 b 313 558 317 553 313 554 z "},"Ă":{"ha":789,"x_min":0,"x_max":0,"o":"m 715 1107 b 750 1097 728 1101 739 1097 l 753 1097 b 826 1128 782 1097 807 1107 b 858 1194 847 1147 858 1169 b 853 1222 858 1203 856 1213 b 846 1232 850 1226 849 1229 b 838 1236 843 1235 840 1236 l 836 1236 b 831 1221 833 1236 831 1231 l 831 1218 b 811 1164 831 1199 824 1181 b 740 1128 796 1140 772 1128 b 699 1172 714 1128 699 1147 b 700 1188 699 1178 699 1182 l 701 1192 b 682 1217 701 1201 693 1217 b 671 1204 678 1217 674 1213 b 668 1185 668 1197 668 1192 b 715 1107 668 1151 688 1124 z m -172 -90 b -154 -108 -172 -100 -168 -107 l -144 -108 b -100 -42 -107 -108 -114 -67 b 251 496 0 150 114 325 b 285 511 260 506 271 510 l 535 536 b 544 538 539 538 542 538 b 551 533 549 536 551 535 l 551 532 b 547 518 551 529 550 525 b 428 238 508 425 468 331 b 394 113 424 226 396 157 l 394 106 b 415 72 394 86 399 74 l 421 72 b 442 94 438 74 440 82 l 442 121 b 444 139 442 126 443 132 b 596 526 483 272 538 399 b 622 543 601 538 610 543 b 693 546 643 543 669 546 l 704 546 b 742 535 719 544 733 542 b 750 531 744 532 747 531 b 772 553 761 531 771 542 b 743 576 772 564 765 574 b 706 579 729 578 717 579 b 664 581 689 581 675 581 l 639 581 b 628 588 631 581 628 582 b 646 628 628 593 635 606 b 833 986 707 749 776 864 b 844 1021 840 1000 843 1011 l 844 1024 b 815 1057 844 1044 832 1057 l 811 1057 b 774 1044 800 1057 789 1053 b 267 574 603 936 392 719 b 196 535 249 551 229 540 b -110 467 142 528 -81 485 b -114 457 -112 465 -114 463 b -97 435 -114 449 -110 438 l -94 435 b 68 467 -67 435 68 458 b 174 496 69 482 161 493 b 190 497 181 496 186 497 b 196 493 193 497 196 496 b 189 482 196 490 193 488 b -160 -50 68 318 -75 132 b -172 -87 -164 -58 -172 -74 z m 311 560 b 800 1013 314 597 706 976 b 589 604 756 903 647 715 b 558 576 581 589 578 578 l 340 554 b 321 553 336 554 328 553 b 313 558 317 553 313 554 z "},"Ắ":{"ha":789,"x_min":0,"x_max":0,"o":"m 285 511 l 535 536 b 544 538 539 538 542 538 b 551 533 549 536 551 535 l 551 532 b 547 518 551 529 550 525 b 428 238 508 425 468 331 b 394 113 424 226 394 157 l 394 106 b 415 72 394 86 399 72 l 421 72 b 442 94 438 72 442 82 l 442 121 b 444 139 442 126 443 132 b 596 526 483 272 538 399 b 622 543 601 538 610 543 b 693 546 643 543 669 546 l 704 546 b 742 535 719 546 733 542 b 750 531 744 532 747 531 b 772 553 761 531 771 542 b 743 576 772 564 765 574 b 706 579 729 578 717 579 b 664 581 689 581 675 581 l 639 581 b 628 588 631 581 628 582 b 646 628 628 593 635 606 b 833 986 707 749 776 864 b 844 1021 840 1000 844 1011 l 844 1024 b 815 1057 844 1044 832 1057 l 811 1057 b 774 1044 800 1057 789 1053 b 267 574 603 936 392 719 b 196 535 249 551 229 540 b -110 467 142 528 -81 485 b -114 457 -112 465 -114 463 b -97 435 -114 449 -110 438 l -94 435 b 68 467 -67 435 68 458 b 174 496 69 482 161 493 b 190 497 181 496 186 497 b 196 493 193 497 196 496 b 189 482 196 490 193 488 b -160 -50 68 318 -75 132 b -172 -87 -164 -58 -172 -74 l -172 -90 b -154 -108 -172 -100 -168 -108 l -144 -108 b -100 -42 -107 -108 -114 -67 b 251 496 0 150 114 325 b 285 511 260 506 271 510 z m 311 560 b 800 1013 314 597 706 976 b 589 604 756 903 647 715 b 558 576 581 589 578 578 l 340 554 b 321 553 336 554 328 553 b 313 558 317 553 313 554 z m 740 1194 b 799 1103 740 1158 763 1119 b 839 1090 810 1096 825 1090 l 843 1090 b 968 1206 911 1090 968 1149 b 961 1239 968 1217 967 1228 b 944 1257 958 1249 950 1257 b 935 1238 939 1257 935 1251 l 935 1235 b 826 1126 935 1176 885 1126 b 778 1181 794 1126 778 1151 b 779 1197 778 1186 778 1192 b 781 1204 781 1200 781 1203 b 758 1233 781 1219 769 1233 b 744 1218 753 1233 747 1229 b 740 1194 742 1211 740 1203 z m 839 1369 b 856 1354 839 1361 844 1354 b 871 1357 860 1354 865 1356 l 954 1446 b 976 1475 960 1453 976 1460 b 975 1485 976 1478 976 1482 b 958 1496 972 1490 965 1492 b 839 1369 936 1482 839 1397 z "},"Ặ":{"ha":789,"x_min":0,"x_max":0,"o":"m 285 511 l 535 536 b 544 538 539 538 542 538 b 551 533 549 536 551 535 l 551 532 b 547 518 551 529 550 525 b 428 238 508 425 468 331 b 394 113 424 226 394 157 l 394 106 b 415 72 394 86 399 72 l 421 72 b 442 94 438 72 442 82 l 442 121 b 444 139 442 126 443 132 b 596 526 483 272 538 399 b 622 543 601 538 610 543 b 693 546 643 543 669 546 l 704 546 b 742 535 719 546 733 542 b 750 531 744 532 747 531 b 772 553 761 531 771 542 b 743 576 772 564 765 574 b 706 579 729 578 717 579 b 664 581 689 581 675 581 l 639 581 b 628 588 631 581 628 582 b 646 628 628 593 635 606 b 833 986 707 749 776 864 b 844 1021 840 1000 844 1011 l 844 1024 b 815 1057 844 1044 832 1057 l 811 1057 b 774 1044 800 1057 789 1053 b 267 574 603 936 392 719 b 196 535 249 551 229 540 b -110 467 142 528 -81 485 b -114 457 -112 465 -114 463 b -97 435 -114 449 -110 438 l -94 435 b 68 467 -67 435 68 458 b 174 496 69 482 161 493 b 190 497 181 496 186 497 b 196 493 193 497 196 496 b 189 482 196 490 193 488 b -160 -50 68 318 -75 132 b -172 -87 -164 -58 -172 -74 l -172 -90 b -154 -108 -172 -100 -168 -108 l -144 -108 b -100 -42 -107 -108 -114 -67 b 251 496 0 150 114 325 b 285 511 260 506 271 510 z m 158 -107 b 189 -144 158 -124 171 -144 b 232 -83 214 -144 232 -104 b 190 -51 232 -50 214 -46 b 158 -107 174 -60 158 -96 z m 311 560 b 800 1013 314 597 706 976 b 589 604 756 903 647 715 b 558 576 581 589 578 578 l 340 554 b 321 553 336 554 328 553 b 313 558 317 553 313 554 z m 719 1201 b 778 1110 719 1165 742 1126 b 818 1097 789 1103 804 1097 l 822 1097 b 947 1213 890 1097 947 1156 b 940 1246 947 1224 946 1235 b 924 1264 938 1256 929 1264 b 914 1244 918 1264 914 1258 l 914 1242 b 806 1133 914 1183 864 1133 b 757 1188 774 1133 757 1158 b 758 1204 757 1193 757 1199 b 760 1211 760 1207 760 1210 b 738 1240 760 1226 749 1240 b 724 1225 732 1240 726 1236 b 719 1201 721 1218 719 1210 z "},"Ằ":{"ha":789,"x_min":0,"x_max":0,"o":"m 285 511 l 535 536 b 544 538 539 538 542 538 b 551 533 549 536 551 535 l 551 532 b 547 518 551 529 550 525 b 428 238 508 425 468 331 b 394 113 424 226 394 157 l 394 106 b 415 72 394 86 399 72 l 421 72 b 442 94 438 72 442 82 l 442 121 b 444 139 442 126 443 132 b 596 526 483 272 538 399 b 622 543 601 538 610 543 b 693 546 643 543 669 546 l 704 546 b 742 535 719 546 733 542 b 750 531 744 532 747 531 b 772 553 761 531 771 542 b 743 576 772 564 765 574 b 706 579 729 578 717 579 b 664 581 689 581 675 581 l 639 581 b 628 588 631 581 628 582 b 646 628 628 593 635 606 b 833 986 707 749 776 864 b 844 1021 840 1000 844 1011 l 844 1024 b 815 1057 844 1044 832 1057 l 811 1057 b 774 1044 800 1057 789 1053 b 267 574 603 936 392 719 b 196 535 249 551 229 540 b -110 467 142 528 -81 485 b -114 457 -112 465 -114 463 b -97 435 -114 449 -110 438 l -94 435 b 68 467 -67 435 68 458 b 174 496 69 482 161 493 b 190 497 181 496 186 497 b 196 493 193 497 196 496 b 189 482 196 490 193 488 b -160 -50 68 318 -75 132 b -172 -87 -164 -58 -172 -74 l -172 -90 b -154 -108 -172 -100 -168 -108 l -144 -108 b -100 -42 -107 -108 -114 -67 b 251 496 0 150 114 325 b 285 511 260 506 271 510 z m 311 560 b 800 1013 314 597 706 976 b 589 604 756 903 647 715 b 558 576 581 589 578 578 l 340 554 b 321 553 336 554 328 553 b 313 558 317 553 313 554 z m 760 1201 b 818 1110 760 1165 782 1126 b 858 1097 829 1103 844 1097 l 863 1097 b 988 1213 931 1097 988 1156 b 981 1246 988 1224 986 1235 b 964 1264 978 1256 969 1264 b 954 1244 958 1264 954 1258 l 954 1242 b 846 1133 954 1183 904 1133 b 797 1188 814 1133 797 1158 b 799 1204 797 1193 797 1199 b 800 1211 800 1207 800 1210 b 778 1240 800 1226 789 1240 b 764 1225 772 1240 767 1236 b 760 1201 761 1218 760 1210 z m 882 1486 b 936 1390 882 1460 922 1411 b 956 1378 942 1381 949 1378 b 974 1396 965 1378 974 1385 b 969 1410 974 1400 972 1404 l 919 1492 b 904 1503 915 1497 907 1500 b 882 1486 889 1503 882 1496 z "},"Ẳ":{"ha":789,"x_min":0,"x_max":0,"o":"m 285 511 l 535 536 b 544 538 539 538 542 538 b 551 533 549 536 551 535 l 551 532 b 547 518 551 529 550 525 b 428 238 508 425 468 331 b 394 113 424 226 394 157 l 394 106 b 415 72 394 86 399 72 l 421 72 b 442 94 438 72 442 82 l 442 121 b 444 139 442 126 443 132 b 596 526 483 272 538 399 b 622 543 601 538 610 543 b 693 546 643 543 669 546 l 704 546 b 742 535 719 546 733 542 b 750 531 744 532 747 531 b 772 553 761 531 771 542 b 743 576 772 564 765 574 b 706 579 729 578 717 579 b 664 581 689 581 675 581 l 639 581 b 628 588 631 581 628 582 b 646 628 628 593 635 606 b 833 986 707 749 776 864 b 844 1021 840 1000 844 1011 l 844 1024 b 815 1057 844 1044 832 1057 l 811 1057 b 774 1044 800 1057 789 1053 b 267 574 603 936 392 719 b 196 535 249 551 229 540 b -110 467 142 528 -81 485 b -114 457 -112 465 -114 463 b -97 435 -114 449 -110 438 l -94 435 b 68 467 -67 435 68 458 b 174 496 69 482 161 493 b 190 497 181 496 186 497 b 196 493 193 497 196 496 b 189 482 196 490 193 488 b -160 -50 68 318 -75 132 b -172 -87 -164 -58 -172 -74 l -172 -90 b -154 -108 -172 -100 -168 -108 l -144 -108 b -100 -42 -107 -108 -114 -67 b 251 496 0 150 114 325 b 285 511 260 506 271 510 z m 311 560 b 800 1013 314 597 706 976 b 589 604 756 903 647 715 b 558 576 581 589 578 578 l 340 554 b 321 553 336 554 328 553 b 313 558 317 553 313 554 z m 758 1158 b 817 1067 758 1122 781 1083 b 857 1054 828 1060 843 1054 l 861 1054 b 986 1169 929 1054 986 1113 b 979 1203 986 1181 985 1192 b 963 1221 976 1213 968 1221 b 953 1201 957 1221 953 1215 l 953 1199 b 844 1090 953 1140 903 1090 b 796 1144 813 1090 796 1115 b 797 1161 796 1150 796 1156 b 799 1168 799 1164 799 1167 b 776 1197 799 1183 788 1197 b 763 1182 771 1197 765 1193 b 758 1158 760 1175 758 1167 z m 890 1307 b 908 1293 890 1301 899 1294 b 936 1290 917 1292 926 1290 b 1097 1389 999 1290 1075 1329 l 1097 1392 b 969 1478 1097 1404 1072 1465 b 942 1475 960 1478 950 1476 b 924 1464 929 1474 924 1468 b 956 1436 924 1454 938 1436 b 965 1438 958 1436 963 1436 b 985 1439 972 1438 979 1439 b 1051 1394 1018 1435 1051 1410 b 918 1322 1050 1372 994 1322 l 908 1322 b 890 1308 893 1322 890 1313 z "},"Ȃ":{"ha":789,"x_min":0,"x_max":0,"o":"m 735 1236 b 676 1143 699 1218 676 1181 b 694 1106 676 1132 681 1106 b 717 1133 704 1106 717 1118 b 715 1142 717 1136 717 1139 b 713 1158 714 1147 713 1153 b 763 1211 713 1188 733 1211 b 871 1103 824 1211 871 1163 l 871 1100 b 879 1082 871 1088 875 1082 b 897 1099 886 1082 893 1090 b 904 1132 901 1110 904 1121 b 778 1249 904 1192 847 1249 l 775 1249 b 735 1236 761 1247 746 1243 z m -172 -90 b -154 -108 -172 -100 -168 -107 l -144 -108 b -100 -42 -107 -108 -114 -67 b 251 496 0 150 114 325 b 285 511 260 506 271 510 l 535 536 b 544 538 539 538 542 538 b 551 533 549 536 551 535 l 551 532 b 547 518 551 529 550 525 b 428 238 508 425 468 331 b 394 113 424 226 396 157 l 394 106 b 415 72 394 86 399 74 l 421 72 b 442 94 438 74 440 82 l 442 121 b 444 139 442 126 443 132 b 596 526 483 272 538 399 b 622 543 601 538 610 543 b 693 546 643 543 669 546 l 704 546 b 742 535 719 544 733 542 b 750 531 744 532 747 531 b 772 553 761 531 771 542 b 743 576 772 564 765 574 b 706 579 729 578 717 579 b 664 581 689 581 675 581 l 639 581 b 628 588 631 581 628 582 b 646 628 628 593 635 606 b 833 986 707 749 776 864 b 844 1021 840 1000 843 1011 l 844 1024 b 815 1057 844 1044 832 1057 l 811 1057 b 774 1044 800 1057 789 1053 b 267 574 603 936 392 719 b 196 535 249 551 229 540 b -110 467 142 528 -81 485 b -114 457 -112 465 -114 463 b -97 435 -114 449 -110 438 l -94 435 b 68 467 -67 435 68 458 b 174 496 69 482 161 493 b 190 497 181 496 186 497 b 196 493 193 497 196 496 b 189 482 196 490 193 488 b -160 -50 68 318 -75 132 b -172 -87 -164 -58 -172 -74 z m 311 560 b 800 1013 314 597 706 976 b 589 604 756 903 647 715 b 558 576 581 589 578 578 l 340 554 b 321 553 336 554 328 553 b 313 558 317 553 313 554 z "},"Ẵ":{"ha":789,"x_min":0,"x_max":0,"o":"m 285 511 l 535 536 b 544 538 539 538 542 538 b 551 533 549 536 551 535 l 551 532 b 547 518 551 529 550 525 b 428 238 508 425 468 331 b 394 113 424 226 394 157 l 394 106 b 415 72 394 86 399 72 l 421 72 b 442 94 438 72 442 82 l 442 121 b 444 139 442 126 443 132 b 596 526 483 272 538 399 b 622 543 601 538 610 543 b 693 546 643 543 669 546 l 704 546 b 742 535 719 546 733 542 b 750 531 744 532 747 531 b 772 553 761 531 771 542 b 743 576 772 564 765 574 b 706 579 729 578 717 579 b 664 581 689 581 675 581 l 639 581 b 628 588 631 581 628 582 b 646 628 628 593 635 606 b 833 986 707 749 776 864 b 844 1021 840 1000 844 1011 l 844 1024 b 815 1057 844 1044 832 1057 l 811 1057 b 774 1044 800 1057 789 1053 b 267 574 603 936 392 719 b 196 535 249 551 229 540 b -110 467 142 528 -81 485 b -114 457 -112 465 -114 463 b -97 435 -114 449 -110 438 l -94 435 b 68 467 -67 435 68 458 b 174 496 69 482 161 493 b 190 497 181 496 186 497 b 196 493 193 497 196 496 b 189 482 196 490 193 488 b -160 -50 68 318 -75 132 b -172 -87 -164 -58 -172 -74 l -172 -90 b -154 -108 -172 -100 -168 -108 l -144 -108 b -100 -42 -107 -108 -114 -67 b 251 496 0 150 114 325 b 285 511 260 506 271 510 z m 311 560 b 800 1013 314 597 706 976 b 589 604 756 903 647 715 b 558 576 581 589 578 578 l 340 554 b 321 553 336 554 328 553 b 313 558 317 553 313 554 z m 719 1201 b 778 1110 719 1165 742 1126 b 818 1097 789 1103 804 1097 l 822 1097 b 947 1213 890 1097 947 1156 b 940 1246 947 1224 946 1235 b 924 1264 938 1256 929 1264 b 914 1244 918 1264 914 1258 l 914 1242 b 806 1133 914 1183 864 1133 b 757 1188 774 1133 757 1158 b 758 1204 757 1193 757 1199 b 760 1211 760 1207 760 1210 b 738 1240 760 1226 749 1240 b 724 1225 732 1240 726 1236 b 719 1201 721 1218 719 1210 z m 747 1431 b 753 1419 747 1426 749 1422 b 769 1413 758 1415 764 1413 b 811 1447 790 1413 804 1442 b 847 1461 825 1457 838 1461 b 931 1417 879 1461 892 1417 b 944 1419 935 1417 940 1418 b 1026 1489 997 1432 1026 1469 b 1015 1500 1026 1496 1022 1500 b 975 1481 1007 1500 993 1494 b 931 1460 954 1465 940 1460 b 863 1503 901 1460 900 1503 l 857 1503 b 747 1431 810 1503 747 1457 z "},"Ǎ":{"ha":789,"x_min":0,"x_max":0,"o":"m 790 1107 b 831 1132 804 1107 815 1115 b 931 1260 908 1221 931 1243 b 924 1269 931 1265 928 1269 b 904 1258 919 1269 913 1267 b 818 1163 893 1249 864 1214 b 797 1151 813 1157 806 1151 b 676 1246 769 1154 699 1224 b 657 1254 671 1250 665 1254 b 640 1242 649 1254 643 1250 b 642 1235 640 1239 640 1236 b 760 1121 663 1197 726 1147 b 790 1107 771 1111 781 1107 z m -172 -90 b -154 -108 -172 -100 -168 -107 l -144 -108 b -100 -42 -107 -108 -114 -67 b 251 496 0 150 114 325 b 285 511 260 506 271 510 l 535 536 b 544 538 539 538 542 538 b 551 533 549 536 551 535 l 551 532 b 547 518 551 529 550 525 b 428 238 508 425 468 331 b 394 113 424 226 396 157 l 394 106 b 415 72 394 86 399 74 l 421 72 b 442 94 438 74 440 82 l 442 121 b 444 139 442 126 443 132 b 596 526 483 272 538 399 b 622 543 601 538 610 543 b 693 546 643 543 669 546 l 704 546 b 742 535 719 544 733 542 b 750 531 744 532 747 531 b 772 553 761 531 771 542 b 743 576 772 564 765 574 b 706 579 729 578 717 579 b 664 581 689 581 675 581 l 639 581 b 628 588 631 581 628 582 b 646 628 628 593 635 606 b 833 986 707 749 776 864 b 844 1021 840 1000 843 1011 l 844 1024 b 815 1057 844 1044 832 1057 l 811 1057 b 774 1044 800 1057 789 1053 b 267 574 603 936 392 719 b 196 535 249 551 229 540 b -110 467 142 528 -81 485 b -114 457 -112 465 -114 463 b -97 435 -114 449 -110 438 l -94 435 b 68 467 -67 435 68 458 b 174 496 69 482 161 493 b 190 497 181 496 186 497 b 196 493 193 497 196 496 b 189 482 196 490 193 488 b -160 -50 68 318 -75 132 b -172 -87 -164 -58 -172 -74 z m 311 560 b 800 1013 314 597 706 976 b 589 604 756 903 647 715 b 558 576 581 589 578 578 l 340 554 b 321 553 336 554 328 553 b 313 558 317 553 313 554 z "},"Â":{"ha":789,"x_min":0,"x_max":0,"o":"m 918 1260 l 956 1143 b 974 1129 960 1133 967 1129 b 993 1149 983 1129 993 1136 b 990 1160 993 1151 992 1156 b 925 1303 957 1253 953 1303 b 781 1199 903 1303 864 1269 b 769 1179 772 1193 769 1185 b 788 1160 769 1168 778 1160 b 793 1161 789 1160 792 1160 b 918 1260 810 1167 856 1221 z m -172 -90 b -154 -108 -172 -100 -168 -108 l -144 -108 b -100 -42 -107 -108 -114 -67 b 251 496 0 150 114 325 b 285 511 260 506 271 510 l 535 536 b 544 538 539 538 542 538 b 551 533 549 536 551 535 l 551 532 b 547 518 551 529 550 525 b 428 238 508 425 468 331 b 394 113 424 226 394 157 l 394 106 b 415 72 394 86 399 72 l 421 72 b 442 94 438 72 442 82 l 442 121 b 444 139 442 126 443 132 b 596 526 483 272 538 399 b 622 543 601 538 610 543 b 693 546 643 543 669 546 l 704 546 b 742 535 719 546 733 542 b 750 531 744 532 747 531 b 772 553 761 531 771 542 b 743 576 772 564 765 574 b 706 579 729 578 717 579 b 664 581 689 581 675 581 l 639 581 b 628 588 631 581 628 582 b 646 628 628 593 635 606 b 833 986 707 749 776 864 b 844 1021 840 1000 844 1011 l 844 1024 b 815 1057 844 1044 832 1057 l 811 1057 b 774 1044 800 1057 789 1053 b 267 574 603 936 392 719 b 196 535 249 551 229 540 b -110 467 142 528 -81 485 b -114 457 -112 465 -114 463 b -97 435 -114 449 -110 438 l -94 435 b 68 467 -67 435 68 458 b 174 496 69 482 161 493 b 190 497 181 496 186 497 b 196 493 193 497 196 496 b 189 482 196 490 193 488 b -160 -50 68 318 -75 132 b -172 -87 -164 -58 -172 -74 z m 311 560 b 800 1013 314 597 706 976 b 589 604 756 903 647 715 b 558 576 581 589 578 578 l 340 554 b 321 553 336 554 328 553 b 313 558 317 553 313 554 z "},"Ấ":{"ha":789,"x_min":0,"x_max":0,"o":"m 285 511 l 535 536 b 544 538 539 538 542 538 b 551 533 549 536 551 535 l 551 532 b 547 518 551 529 550 525 b 428 238 508 425 468 331 b 394 113 424 226 394 157 l 394 106 b 415 72 394 86 399 72 l 421 72 b 442 94 438 72 442 82 l 442 121 b 444 139 442 126 443 132 b 596 526 483 272 538 399 b 622 543 601 538 610 543 b 693 546 643 543 669 546 l 704 546 b 742 535 719 546 733 542 b 750 531 744 532 747 531 b 772 553 761 531 771 542 b 743 576 772 564 765 574 b 706 579 729 578 717 579 b 664 581 689 581 675 581 l 639 581 b 628 588 631 581 628 582 b 646 628 628 593 635 606 b 833 986 707 749 776 864 b 844 1021 840 1000 844 1011 l 844 1024 b 815 1057 844 1044 832 1057 l 811 1057 b 774 1044 800 1057 789 1053 b 267 574 603 936 392 719 b 196 535 249 551 229 540 b -110 467 142 528 -81 485 b -114 457 -112 465 -114 463 b -97 435 -114 449 -110 438 l -94 435 b 68 467 -67 435 68 458 b 174 496 69 482 161 493 b 190 497 181 496 186 497 b 196 493 193 497 196 496 b 189 482 196 490 193 488 b -160 -50 68 318 -75 132 b -172 -87 -164 -58 -172 -74 l -172 -90 b -154 -108 -172 -100 -168 -108 l -144 -108 b -100 -42 -107 -108 -114 -67 b 251 496 0 150 114 325 b 285 511 260 506 271 510 z m 311 560 b 800 1013 314 597 706 976 b 589 604 756 903 647 715 b 558 576 581 589 578 578 l 340 554 b 321 553 336 554 328 553 b 313 558 317 553 313 554 z m 758 1158 b 776 1139 758 1147 767 1139 b 782 1140 778 1139 781 1139 b 907 1239 799 1146 844 1200 l 944 1122 b 964 1108 947 1113 956 1108 b 982 1128 972 1108 982 1115 b 979 1139 982 1131 981 1135 b 914 1282 947 1232 943 1282 b 769 1178 892 1282 853 1249 b 758 1158 761 1172 758 1164 z m 899 1342 b 915 1326 899 1333 904 1326 b 931 1329 919 1326 925 1328 l 1014 1418 b 1036 1447 1019 1425 1036 1432 b 1035 1457 1036 1450 1036 1454 b 1018 1468 1032 1463 1025 1464 b 899 1342 996 1454 899 1369 z "},"Ậ":{"ha":789,"x_min":0,"x_max":0,"o":"m 285 511 l 535 536 b 544 538 539 538 542 538 b 551 533 549 536 551 535 l 551 532 b 547 518 551 529 550 525 b 428 238 508 425 468 331 b 394 113 424 226 394 157 l 394 106 b 415 72 394 86 399 72 l 421 72 b 442 94 438 72 442 82 l 442 121 b 444 139 442 126 443 132 b 596 526 483 272 538 399 b 622 543 601 538 610 543 b 693 546 643 543 669 546 l 704 546 b 742 535 719 546 733 542 b 750 531 744 532 747 531 b 772 553 761 531 771 542 b 743 576 772 564 765 574 b 706 579 729 578 717 579 b 664 581 689 581 675 581 l 639 581 b 628 588 631 581 628 582 b 646 628 628 593 635 606 b 833 986 707 749 776 864 b 844 1021 840 1000 844 1011 l 844 1024 b 815 1057 844 1044 832 1057 l 811 1057 b 774 1044 800 1057 789 1053 b 267 574 603 936 392 719 b 196 535 249 551 229 540 b -110 467 142 528 -81 485 b -114 457 -112 465 -114 463 b -97 435 -114 449 -110 438 l -94 435 b 68 467 -67 435 68 458 b 174 496 69 482 161 493 b 190 497 181 496 186 497 b 196 493 193 497 196 496 b 189 482 196 490 193 488 b -160 -50 68 318 -75 132 b -172 -87 -164 -58 -172 -74 l -172 -90 b -154 -108 -172 -100 -168 -108 l -144 -108 b -100 -42 -107 -108 -114 -67 b 251 496 0 150 114 325 b 285 511 260 506 271 510 z m 158 -107 b 189 -144 158 -124 171 -144 b 232 -83 214 -144 232 -104 b 190 -51 232 -50 214 -46 b 158 -107 174 -60 158 -96 z m 311 560 b 800 1013 314 597 706 976 b 589 604 756 903 647 715 b 558 576 581 589 578 578 l 340 554 b 321 553 336 554 328 553 b 313 558 317 553 313 554 z m 721 1156 b 739 1136 721 1144 729 1136 b 744 1138 740 1136 743 1136 b 869 1236 761 1143 807 1197 l 907 1119 b 926 1106 910 1110 918 1106 b 944 1125 935 1106 944 1113 b 942 1136 944 1128 943 1132 b 876 1279 910 1229 906 1279 b 732 1175 854 1279 815 1246 b 721 1156 724 1169 721 1161 z "},"Ầ":{"ha":789,"x_min":0,"x_max":0,"o":"m 285 511 l 535 536 b 544 538 539 538 542 538 b 551 533 549 536 551 535 l 551 532 b 547 518 551 529 550 525 b 428 238 508 425 468 331 b 394 113 424 226 394 157 l 394 106 b 415 72 394 86 399 72 l 421 72 b 442 94 438 72 442 82 l 442 121 b 444 139 442 126 443 132 b 596 526 483 272 538 399 b 622 543 601 538 610 543 b 693 546 643 543 669 546 l 704 546 b 742 535 719 546 733 542 b 750 531 744 532 747 531 b 772 553 761 531 771 542 b 743 576 772 564 765 574 b 706 579 729 578 717 579 b 664 581 689 581 675 581 l 639 581 b 628 588 631 581 628 582 b 646 628 628 593 635 606 b 833 986 707 749 776 864 b 844 1021 840 1000 844 1011 l 844 1024 b 815 1057 844 1044 832 1057 l 811 1057 b 774 1044 800 1057 789 1053 b 267 574 603 936 392 719 b 196 535 249 551 229 540 b -110 467 142 528 -81 485 b -114 457 -112 465 -114 463 b -97 435 -114 449 -110 438 l -94 435 b 68 467 -67 435 68 458 b 174 496 69 482 161 493 b 190 497 181 496 186 497 b 196 493 193 497 196 496 b 189 482 196 490 193 488 b -160 -50 68 318 -75 132 b -172 -87 -164 -58 -172 -74 l -172 -90 b -154 -108 -172 -100 -168 -108 l -144 -108 b -100 -42 -107 -108 -114 -67 b 251 496 0 150 114 325 b 285 511 260 506 271 510 z m 311 560 b 800 1013 314 597 706 976 b 589 604 756 903 647 715 b 558 576 581 589 578 578 l 340 554 b 321 553 336 554 328 553 b 313 558 317 553 313 554 z m 721 1156 b 739 1136 721 1144 729 1136 b 744 1138 740 1136 743 1136 b 869 1236 761 1143 807 1197 l 907 1119 b 926 1106 910 1110 918 1106 b 944 1125 935 1106 944 1113 b 942 1136 944 1128 943 1132 b 876 1279 910 1229 906 1279 b 732 1175 854 1279 815 1246 b 721 1156 724 1169 721 1161 z m 885 1449 b 939 1353 885 1422 925 1374 b 958 1340 944 1343 951 1340 b 976 1358 968 1340 976 1347 b 972 1372 976 1363 975 1367 l 922 1454 b 907 1465 918 1460 910 1463 b 885 1449 892 1465 885 1458 z "},"Ẩ":{"ha":789,"x_min":0,"x_max":0,"o":"m 285 511 l 535 536 b 544 538 539 538 542 538 b 551 533 549 536 551 535 l 551 532 b 547 518 551 529 550 525 b 428 238 508 425 468 331 b 394 113 424 226 394 157 l 394 106 b 415 72 394 86 399 72 l 421 72 b 442 94 438 72 442 82 l 442 121 b 444 139 442 126 443 132 b 596 526 483 272 538 399 b 622 543 601 538 610 543 b 693 546 643 543 669 546 l 704 546 b 742 535 719 546 733 542 b 750 531 744 532 747 531 b 772 553 761 531 771 542 b 743 576 772 564 765 574 b 706 579 729 578 717 579 b 664 581 689 581 675 581 l 639 581 b 628 588 631 581 628 582 b 646 628 628 593 635 606 b 833 986 707 749 776 864 b 844 1021 840 1000 844 1011 l 844 1024 b 815 1057 844 1044 832 1057 l 811 1057 b 774 1044 800 1057 789 1053 b 267 574 603 936 392 719 b 196 535 249 551 229 540 b -110 467 142 528 -81 485 b -114 457 -112 465 -114 463 b -97 435 -114 449 -110 438 l -94 435 b 68 467 -67 435 68 458 b 174 496 69 482 161 493 b 190 497 181 496 186 497 b 196 493 193 497 196 496 b 189 482 196 490 193 488 b -160 -50 68 318 -75 132 b -172 -87 -164 -58 -172 -74 l -172 -90 b -154 -108 -172 -100 -168 -108 l -144 -108 b -100 -42 -107 -108 -114 -67 b 251 496 0 150 114 325 b 285 511 260 506 271 510 z m 311 560 b 800 1013 314 597 706 976 b 589 604 756 903 647 715 b 558 576 581 589 578 578 l 340 554 b 321 553 336 554 328 553 b 313 558 317 553 313 554 z m 721 1156 b 739 1136 721 1144 729 1136 b 744 1138 740 1136 743 1136 b 869 1236 761 1143 807 1197 l 907 1119 b 926 1106 910 1110 918 1106 b 944 1125 935 1106 944 1113 b 942 1136 944 1128 943 1132 b 876 1279 910 1229 906 1279 b 732 1175 854 1279 815 1246 b 721 1156 724 1169 721 1161 z m 894 1313 b 913 1299 894 1307 903 1300 b 940 1296 921 1297 931 1296 b 1101 1394 1003 1296 1079 1335 l 1101 1397 b 974 1483 1101 1410 1076 1471 b 946 1481 964 1483 954 1482 b 928 1469 933 1479 928 1474 b 960 1442 928 1460 942 1442 b 969 1443 963 1442 967 1442 b 989 1444 976 1443 983 1444 b 1056 1400 1022 1440 1056 1415 b 922 1328 1054 1378 999 1328 l 913 1328 b 894 1314 897 1328 894 1318 z "},"Ẫ":{"ha":789,"x_min":0,"x_max":0,"o":"m 285 511 l 535 536 b 544 538 539 538 542 538 b 551 533 549 536 551 535 l 551 532 b 547 518 551 529 550 525 b 428 238 508 425 468 331 b 394 113 424 226 394 157 l 394 106 b 415 72 394 86 399 72 l 421 72 b 442 94 438 72 442 82 l 442 121 b 444 139 442 126 443 132 b 596 526 483 272 538 399 b 622 543 601 538 610 543 b 693 546 643 543 669 546 l 704 546 b 742 535 719 546 733 542 b 750 531 744 532 747 531 b 772 553 761 531 771 542 b 743 576 772 564 765 574 b 706 579 729 578 717 579 b 664 581 689 581 675 581 l 639 581 b 628 588 631 581 628 582 b 646 628 628 593 635 606 b 833 986 707 749 776 864 b 844 1021 840 1000 844 1011 l 844 1024 b 815 1057 844 1044 832 1057 l 811 1057 b 774 1044 800 1057 789 1053 b 267 574 603 936 392 719 b 196 535 249 551 229 540 b -110 467 142 528 -81 485 b -114 457 -112 465 -114 463 b -97 435 -114 449 -110 438 l -94 435 b 68 467 -67 435 68 458 b 174 496 69 482 161 493 b 190 497 181 496 186 497 b 196 493 193 497 196 496 b 189 482 196 490 193 488 b -160 -50 68 318 -75 132 b -172 -87 -164 -58 -172 -74 l -172 -90 b -154 -108 -172 -100 -168 -108 l -144 -108 b -100 -42 -107 -108 -114 -67 b 251 496 0 150 114 325 b 285 511 260 506 271 510 z m 311 560 b 800 1013 314 597 706 976 b 589 604 756 903 647 715 b 558 576 581 589 578 578 l 340 554 b 321 553 336 554 328 553 b 313 558 317 553 313 554 z m 746 1136 b 764 1117 746 1125 754 1117 b 769 1118 765 1117 768 1117 b 894 1217 786 1124 832 1178 l 932 1100 b 951 1086 935 1090 943 1086 b 969 1106 960 1086 969 1093 b 967 1117 969 1108 968 1113 b 901 1260 935 1210 931 1260 b 757 1156 879 1260 840 1226 b 746 1136 749 1150 746 1142 z m 815 1374 b 821 1363 815 1369 817 1365 b 838 1356 826 1358 832 1356 b 879 1390 858 1356 872 1385 b 915 1404 893 1400 906 1404 b 999 1360 947 1404 960 1360 b 1013 1363 1003 1360 1008 1361 b 1094 1432 1065 1375 1094 1413 b 1083 1443 1094 1439 1090 1443 b 1043 1424 1075 1443 1061 1438 b 999 1403 1022 1408 1008 1403 b 931 1446 969 1403 968 1446 l 925 1446 b 815 1374 878 1446 815 1400 z "},"Ä":{"ha":789,"x_min":0,"x_max":0,"o":"m 810 1214 l 806 1214 b 771 1169 781 1196 771 1181 b 800 1149 771 1156 786 1149 b 839 1193 822 1149 839 1172 b 810 1214 839 1204 831 1214 z m -172 -90 b -154 -108 -172 -100 -168 -108 l -144 -108 b -100 -42 -107 -108 -114 -67 b 251 496 0 150 114 325 b 285 511 260 506 271 510 l 535 536 b 544 538 539 538 542 538 b 551 533 549 536 551 535 l 551 532 b 547 518 551 529 550 525 b 428 238 508 425 468 331 b 394 113 424 226 394 157 l 394 106 b 415 72 394 86 399 72 l 421 72 b 442 94 438 72 442 82 l 442 121 b 444 139 442 126 443 132 b 596 526 483 272 538 399 b 622 543 601 538 610 543 b 693 546 643 543 669 546 l 704 546 b 742 535 719 546 733 542 b 750 531 744 532 747 531 b 772 553 761 531 771 542 b 743 576 772 564 765 574 b 706 579 729 578 717 579 b 664 581 689 581 675 581 l 639 581 b 628 588 631 581 628 582 b 646 628 628 593 635 606 b 833 986 707 749 776 864 b 844 1021 840 1000 844 1011 l 844 1024 b 815 1057 844 1044 832 1057 l 811 1057 b 774 1044 800 1057 789 1053 b 267 574 603 936 392 719 b 196 535 249 551 229 540 b -110 467 142 528 -81 485 b -114 457 -112 465 -114 463 b -97 435 -114 449 -110 438 l -94 435 b 68 467 -67 435 68 458 b 174 496 69 482 161 493 b 190 497 181 496 186 497 b 196 493 193 497 196 496 b 189 482 196 490 193 488 b -160 -50 68 318 -75 132 b -172 -87 -164 -58 -172 -74 z m 311 560 b 800 1013 314 597 706 976 b 589 604 756 903 647 715 b 558 576 581 589 578 578 l 340 554 b 321 553 336 554 328 553 b 313 558 317 553 313 554 z m 901 1161 b 928 1132 901 1142 914 1132 b 963 1176 944 1132 963 1146 l 963 1179 b 940 1203 961 1196 953 1203 b 901 1161 924 1203 901 1186 z "},"Ǟ":{"ha":789,"x_min":0,"x_max":0,"o":"m 285 511 l 535 536 b 544 538 539 538 542 538 b 551 533 549 536 551 535 l 551 532 b 547 518 551 529 550 525 b 428 238 508 425 468 331 b 394 113 424 226 394 157 l 394 106 b 415 72 394 86 399 72 l 421 72 b 442 94 438 72 442 82 l 442 121 b 444 139 442 126 443 132 b 596 526 483 272 538 399 b 622 543 601 538 610 543 b 693 546 643 543 669 546 l 704 546 b 742 535 719 546 733 542 b 750 531 744 532 747 531 b 772 553 761 531 771 542 b 743 576 772 564 765 574 b 706 579 729 578 717 579 b 664 581 689 581 675 581 l 639 581 b 628 588 631 581 628 582 b 646 628 628 593 635 606 b 833 986 707 749 776 864 b 844 1021 840 1000 844 1011 l 844 1024 b 815 1057 844 1044 832 1057 l 811 1057 b 774 1044 800 1057 789 1053 b 267 574 603 936 392 719 b 196 535 249 551 229 540 b -110 467 142 528 -81 485 b -114 457 -112 465 -114 463 b -97 435 -114 449 -110 438 l -94 435 b 68 467 -67 435 68 458 b 174 496 69 482 161 493 b 190 497 181 496 186 497 b 196 493 193 497 196 496 b 189 482 196 490 193 488 b -160 -50 68 318 -75 132 b -172 -87 -164 -58 -172 -74 l -172 -90 b -154 -108 -172 -100 -168 -108 l -144 -108 b -100 -42 -107 -108 -114 -67 b 251 496 0 150 114 325 b 285 511 260 506 271 510 z m 311 560 b 800 1013 314 597 706 976 b 589 604 756 903 647 715 b 558 576 581 589 578 578 l 340 554 b 321 553 336 554 328 553 b 313 558 317 553 313 554 z m 717 1328 b 758 1326 733 1326 746 1326 l 772 1326 b 890 1328 813 1326 851 1328 l 921 1328 b 1061 1319 964 1328 1015 1319 l 1063 1319 b 1104 1339 1088 1319 1104 1328 b 1075 1353 1104 1344 1094 1351 b 947 1358 1032 1357 990 1358 b 772 1351 890 1358 832 1356 b 717 1328 753 1350 726 1350 z m 738 1133 b 768 1111 738 1119 753 1111 b 807 1156 789 1111 807 1138 b 776 1176 807 1168 799 1176 l 774 1176 b 738 1133 747 1158 738 1143 z m 869 1125 b 896 1094 869 1104 882 1094 b 929 1140 911 1094 929 1110 l 929 1142 b 908 1165 929 1158 919 1165 b 869 1125 890 1165 869 1150 z "},"Ạ":{"ha":789,"x_min":0,"x_max":0,"o":"m 285 511 l 535 536 b 544 538 539 538 542 538 b 551 533 549 536 551 535 l 551 532 b 547 518 551 529 550 525 b 428 238 508 425 468 331 b 394 113 424 226 394 157 l 394 106 b 415 72 394 86 399 72 l 421 72 b 442 94 438 72 442 82 l 442 121 b 444 139 442 126 443 132 b 596 526 483 272 538 399 b 622 543 601 538 610 543 b 693 546 643 543 669 546 l 704 546 b 742 535 719 546 733 542 b 750 531 744 532 747 531 b 772 553 761 531 771 542 b 743 576 772 564 765 574 b 706 579 729 578 717 579 b 664 581 689 581 675 581 l 639 581 b 628 588 631 581 628 582 b 646 628 628 593 635 606 b 833 986 707 749 776 864 b 844 1021 840 1000 844 1011 l 844 1024 b 815 1057 844 1044 832 1057 l 811 1057 b 774 1044 800 1057 789 1053 b 267 574 603 936 392 719 b 196 535 249 551 229 540 b -110 467 142 528 -81 485 b -114 457 -112 465 -114 463 b -97 435 -114 449 -110 438 l -94 435 b 68 467 -67 435 68 458 b 174 496 69 482 161 493 b 190 497 181 496 186 497 b 196 493 193 497 196 496 b 189 482 196 490 193 488 b -160 -50 68 318 -75 132 b -172 -87 -164 -58 -172 -74 l -172 -90 b -154 -108 -172 -100 -168 -108 l -144 -108 b -100 -42 -107 -108 -114 -67 b 251 496 0 150 114 325 b 285 511 260 506 271 510 z m 158 -107 b 189 -144 158 -124 171 -144 b 232 -83 214 -144 232 -104 b 190 -51 232 -50 214 -46 b 158 -107 174 -60 158 -96 z m 311 560 b 800 1013 314 597 706 976 b 589 604 756 903 647 715 b 558 576 581 589 578 578 l 340 554 b 321 553 336 554 328 553 b 313 558 317 553 313 554 z "},"Ȁ":{"ha":789,"x_min":0,"x_max":0,"o":"m 838 1092 b 843 1103 842 1094 843 1099 l 843 1113 b 764 1269 828 1172 800 1221 b 751 1278 760 1274 757 1278 l 749 1278 b 740 1275 746 1278 744 1276 b 731 1257 735 1271 731 1264 l 731 1254 b 742 1238 731 1250 739 1240 l 754 1219 l 760 1211 b 819 1097 788 1171 806 1143 b 825 1089 821 1093 821 1090 l 831 1089 b 838 1092 833 1090 836 1090 z m -172 -90 b -154 -108 -172 -100 -168 -107 l -144 -108 b -100 -42 -107 -108 -114 -67 b 251 496 0 150 114 325 b 285 511 260 506 271 510 l 535 536 b 544 538 539 538 542 538 b 551 533 549 536 551 535 l 551 532 b 547 518 551 529 550 525 b 428 238 508 425 468 331 b 394 113 424 226 396 157 l 394 106 b 415 72 394 86 399 74 l 421 72 b 442 94 438 74 440 82 l 442 121 b 444 139 442 126 443 132 b 596 526 483 272 538 399 b 622 543 601 538 610 543 b 693 546 643 543 669 546 l 704 546 b 742 535 719 544 733 542 b 750 531 744 532 747 531 b 772 553 761 531 771 542 b 743 576 772 564 765 574 b 706 579 729 578 717 579 b 664 581 689 581 675 581 l 639 581 b 628 588 631 581 628 582 b 646 628 628 593 635 606 b 833 986 707 749 776 864 b 844 1021 840 1000 843 1011 l 844 1024 b 815 1057 844 1044 832 1057 l 811 1057 b 774 1044 800 1057 789 1053 b 267 574 603 936 392 719 b 196 535 249 551 229 540 b -110 467 142 528 -81 485 b -114 457 -112 465 -114 463 b -97 435 -114 449 -110 438 l -94 435 b 68 467 -67 435 68 458 b 174 496 69 482 161 493 b 190 497 181 496 186 497 b 196 493 193 497 196 496 b 189 482 196 490 193 488 b -160 -50 68 318 -75 132 b -172 -87 -164 -58 -172 -74 z m 311 560 b 800 1013 314 597 706 976 b 589 604 756 903 647 715 b 558 576 581 589 578 578 l 340 554 b 321 553 336 554 328 553 b 313 558 317 553 313 554 z m 631 1247 l 635 1238 b 731 1097 674 1199 711 1149 b 739 1089 733 1093 733 1090 l 743 1089 b 750 1093 746 1090 749 1092 b 754 1097 753 1094 753 1096 l 756 1104 b 753 1114 756 1107 754 1110 b 736 1161 749 1129 744 1146 b 690 1233 722 1186 706 1210 l 663 1264 b 650 1272 658 1268 656 1272 l 647 1272 l 639 1268 b 631 1251 633 1264 631 1257 z "},"À":{"ha":789,"x_min":0,"x_max":0,"o":"m 893 1276 b 871 1260 878 1276 871 1269 b 925 1164 871 1233 911 1185 b 944 1151 931 1154 938 1151 b 963 1169 954 1151 963 1158 b 958 1183 963 1174 961 1178 l 908 1265 b 893 1276 904 1271 896 1274 z m -172 -90 b -154 -108 -172 -100 -168 -108 l -144 -108 b -100 -42 -107 -108 -114 -67 b 251 496 0 150 114 325 b 285 511 260 506 271 510 l 535 536 b 544 538 539 538 542 538 b 551 533 549 536 551 535 l 551 532 b 547 518 551 529 550 525 b 428 238 508 425 468 331 b 394 113 424 226 394 157 l 394 106 b 415 72 394 86 399 72 l 421 72 b 442 94 438 72 442 82 l 442 121 b 444 139 442 126 443 132 b 596 526 483 272 538 399 b 622 543 601 538 610 543 b 693 546 643 543 669 546 l 704 546 b 742 535 719 546 733 542 b 750 531 744 532 747 531 b 772 553 761 531 771 542 b 743 576 772 564 765 574 b 706 579 729 578 717 579 b 664 581 689 581 675 581 l 639 581 b 628 588 631 581 628 582 b 646 628 628 593 635 606 b 833 986 707 749 776 864 b 844 1021 840 1000 844 1011 l 844 1024 b 815 1057 844 1044 832 1057 l 811 1057 b 774 1044 800 1057 789 1053 b 267 574 603 936 392 719 b 196 535 249 551 229 540 b -110 467 142 528 -81 485 b -114 457 -112 465 -114 463 b -97 435 -114 449 -110 438 l -94 435 b 68 467 -67 435 68 458 b 174 496 69 482 161 493 b 190 497 181 496 186 497 b 196 493 193 497 196 496 b 189 482 196 490 193 488 b -160 -50 68 318 -75 132 b -172 -87 -164 -58 -172 -74 z m 311 560 b 800 1013 314 597 706 976 b 589 604 756 903 647 715 b 558 576 581 589 578 578 l 340 554 b 321 553 336 554 328 553 b 313 558 317 553 313 554 z "},"Ả":{"ha":789,"x_min":0,"x_max":0,"o":"m 285 511 l 535 536 b 544 538 539 538 542 538 b 551 533 549 536 551 535 l 551 532 b 547 518 551 529 550 525 b 428 238 508 425 468 331 b 394 113 424 226 394 157 l 394 106 b 415 72 394 86 399 72 l 421 72 b 442 94 438 72 442 82 l 442 121 b 444 139 442 126 443 132 b 596 526 483 272 538 399 b 622 543 601 538 610 543 b 693 546 643 543 669 546 l 704 546 b 742 535 719 546 733 542 b 750 531 744 532 747 531 b 772 553 761 531 771 542 b 743 576 772 564 765 574 b 706 579 729 578 717 579 b 664 581 689 581 675 581 l 639 581 b 628 588 631 581 628 582 b 646 628 628 593 635 606 b 833 986 707 749 776 864 b 844 1021 840 1000 844 1011 l 844 1024 b 815 1057 844 1044 832 1057 l 811 1057 b 774 1044 800 1057 789 1053 b 267 574 603 936 392 719 b 196 535 249 551 229 540 b -110 467 142 528 -81 485 b -114 457 -112 465 -114 463 b -97 435 -114 449 -110 438 l -94 435 b 68 467 -67 435 68 458 b 174 496 69 482 161 493 b 190 497 181 496 186 497 b 196 493 193 497 196 496 b 189 482 196 490 193 488 b -160 -50 68 318 -75 132 b -172 -87 -164 -58 -172 -74 l -172 -90 b -154 -108 -172 -100 -168 -108 l -144 -108 b -100 -42 -107 -108 -114 -67 b 251 496 0 150 114 325 b 285 511 260 506 271 510 z m 311 560 b 800 1013 314 597 706 976 b 589 604 756 903 647 715 b 558 576 581 589 578 578 l 340 554 b 321 553 336 554 328 553 b 313 558 317 553 313 554 z m 797 1124 b 815 1110 797 1118 806 1111 b 843 1107 824 1108 833 1107 b 1004 1206 906 1107 982 1146 l 1004 1208 b 876 1294 1004 1221 979 1282 b 849 1292 867 1294 857 1293 b 831 1281 836 1290 831 1285 b 863 1253 831 1271 844 1253 b 872 1254 865 1253 869 1253 b 892 1256 879 1254 886 1256 b 958 1211 925 1251 958 1226 b 825 1139 957 1189 901 1139 l 815 1139 b 797 1125 800 1139 797 1129 z "},"Ɑ":{"ha":943,"x_min":0,"x_max":0,"o":"m 219 429 l 240 422 b 243 413 242 421 243 417 l 243 407 b 221 285 243 383 225 339 b 219 258 219 276 219 268 b 229 190 219 238 222 214 b 299 135 242 153 268 135 l 308 135 b 389 160 336 135 365 144 b 618 365 508 231 575 310 b 554 161 594 296 574 228 b 575 113 551 144 554 113 b 607 147 596 113 607 126 b 603 189 607 179 596 158 b 685 436 624 263 651 347 b 910 514 731 457 835 476 b 918 525 915 517 917 521 b 903 544 918 533 911 543 b 893 542 900 544 896 543 b 718 489 864 528 750 489 l 713 489 b 706 493 708 489 707 490 b 721 532 711 506 715 518 l 735 560 b 776 669 753 597 767 635 b 926 1010 826 790 879 908 b 943 1022 931 1017 940 1015 b 993 1147 967 1072 979 1113 b 954 1167 994 1169 960 1182 b 801 833 900 1056 849 944 l 801 840 b 568 1143 801 1011 711 1132 b 546 1144 561 1143 553 1144 b 383 1106 497 1144 442 1132 b 28 656 193 1019 42 818 b 26 635 28 649 26 642 b 219 429 26 536 83 456 z m 67 636 l 67 644 l 68 651 b 547 1108 85 861 347 1108 b 567 1107 554 1108 560 1107 b 721 1006 628 1101 683 1071 b 765 839 753 951 765 896 b 764 807 765 829 765 818 b 733 672 760 763 749 717 b 697 581 721 642 708 611 l 682 547 b 643 481 674 531 657 492 b 408 456 611 456 451 456 l 329 456 b 308 467 314 457 308 460 l 308 469 b 317 497 308 475 313 485 b 417 683 346 574 375 613 l 417 688 b 418 689 418 688 418 689 b 390 714 418 701 403 713 b 376 708 385 714 379 713 b 275 500 342 664 292 543 b 240 464 264 474 261 464 l 236 464 l 228 465 b 67 636 138 481 67 543 z m 258 251 b 260 275 258 258 260 267 b 275 364 261 299 267 329 b 313 417 285 403 283 415 b 571 426 399 421 485 426 l 594 426 b 604 421 600 425 604 424 l 604 419 b 588 390 604 415 599 406 b 308 174 526 306 385 174 l 304 174 b 258 251 276 174 258 197 z "},"Ā":{"ha":789,"x_min":0,"x_max":0,"o":"m 688 1122 b 656 1101 676 1121 661 1121 b 679 1100 665 1100 672 1100 l 706 1100 l 739 1101 l 774 1101 b 854 1093 799 1101 828 1094 l 856 1093 b 879 1111 869 1093 879 1101 b 863 1124 879 1117 874 1122 b 789 1129 839 1128 814 1129 b 688 1122 756 1129 722 1126 z m -172 -90 b -154 -108 -172 -100 -168 -107 l -144 -108 b -100 -42 -107 -108 -114 -67 b 251 496 0 150 114 325 b 285 511 260 506 271 510 l 535 536 b 544 538 539 538 542 538 b 551 533 549 536 551 535 l 551 532 b 547 518 551 529 550 525 b 428 238 508 425 468 331 b 394 113 424 226 396 157 l 394 106 b 415 72 394 86 399 74 l 421 72 b 442 94 438 74 440 82 l 442 121 b 444 139 442 126 443 132 b 596 526 483 272 538 399 b 622 543 601 538 610 543 b 693 546 643 543 669 546 l 704 546 b 742 535 719 544 733 542 b 750 531 744 532 747 531 b 772 553 761 531 771 542 b 743 576 772 564 765 574 b 706 579 729 578 717 579 b 664 581 689 581 675 581 l 639 581 b 628 588 631 581 628 582 b 646 628 628 593 635 606 b 833 986 707 749 776 864 b 844 1021 840 1000 843 1011 l 844 1024 b 815 1057 844 1044 832 1057 l 811 1057 b 774 1044 800 1057 789 1053 b 267 574 603 936 392 719 b 196 535 249 551 229 540 b -110 467 142 528 -81 485 b -114 457 -112 465 -114 463 b -97 435 -114 449 -110 438 l -94 435 b 68 467 -67 435 68 458 b 174 496 69 482 161 493 b 190 497 181 496 186 497 b 196 493 193 497 196 496 b 189 482 196 490 193 488 b -160 -50 68 318 -75 132 b -172 -87 -164 -58 -172 -74 z m 311 560 b 800 1013 314 597 706 976 b 589 604 756 903 647 715 b 558 576 581 589 578 578 l 340 554 b 321 553 336 554 328 553 b 313 558 317 553 313 554 z "},"Ą":{"ha":789,"x_min":0,"x_max":0,"o":"m 285 511 l 535 536 b 544 538 539 538 542 538 b 551 533 549 536 551 535 l 551 532 b 547 518 551 529 550 525 b 428 238 508 425 468 331 b 394 107 413 199 394 149 b 314 36 360 100 326 72 b 308 0 311 26 308 13 l 308 -10 b 426 -118 318 -72 374 -118 b 442 -117 432 -118 436 -118 b 475 -106 453 -115 464 -111 b 489 -86 483 -100 489 -92 b 475 -79 488 -82 483 -79 l 469 -79 l 467 -81 l 453 -82 b 399 -67 435 -82 417 -76 b 343 11 368 -51 349 -26 b 342 21 343 15 342 18 b 357 53 342 35 347 44 b 388 68 367 61 376 67 b 396 69 390 69 393 69 b 406 68 399 69 403 69 b 413 69 408 68 411 68 b 422 72 417 69 419 71 b 442 94 438 74 440 82 l 442 121 b 444 139 442 126 443 132 b 596 526 483 272 538 399 b 622 543 601 538 610 543 b 693 546 643 543 669 546 l 704 546 b 742 535 719 544 733 542 b 750 531 744 532 747 531 b 772 553 761 531 771 542 b 743 576 772 564 765 574 b 706 579 729 578 717 579 b 664 581 689 581 675 581 l 639 581 b 628 588 631 581 628 582 b 646 628 628 593 635 606 b 833 986 707 749 776 864 b 844 1021 840 1000 843 1011 l 844 1024 b 815 1057 844 1044 832 1057 l 811 1057 b 774 1044 800 1057 789 1053 b 267 574 603 936 392 719 b 196 535 249 551 229 540 b -110 467 142 528 -81 485 b -114 457 -112 465 -114 463 b -97 435 -114 449 -110 438 l -94 435 b 68 467 -67 435 68 458 b 174 496 69 482 161 493 b 190 497 181 496 186 497 b 196 493 193 497 196 496 b 189 482 196 490 193 488 b -160 -50 68 318 -75 132 b -172 -87 -164 -58 -172 -74 l -172 -90 b -154 -108 -172 -100 -168 -107 l -144 -108 b -100 -42 -107 -108 -114 -67 b 251 496 0 150 114 325 b 285 511 260 506 271 510 z m 311 560 b 800 1013 314 597 706 976 b 589 604 756 903 647 715 b 558 576 581 589 578 578 l 340 554 b 321 553 336 554 328 553 b 313 558 317 553 313 554 z "},"Å":{"ha":789,"x_min":0,"x_max":0,"o":"m 285 511 l 535 536 b 544 538 539 538 542 538 b 551 533 549 536 551 535 l 551 532 b 547 518 551 529 550 525 b 428 238 508 425 468 331 b 394 113 424 226 394 157 l 394 106 b 415 72 394 86 399 72 l 421 72 b 442 94 438 72 442 82 l 442 121 b 444 139 442 126 443 132 b 596 526 483 272 538 399 b 622 543 601 538 610 543 b 693 546 643 543 669 546 l 704 546 b 742 535 719 546 733 542 b 750 531 744 532 747 531 b 772 553 761 531 771 542 b 743 576 772 564 765 574 b 706 579 729 578 717 579 b 664 581 689 581 675 581 l 639 581 b 628 588 631 581 628 582 b 646 628 628 593 635 606 b 833 986 707 749 776 864 b 844 1021 840 1000 844 1011 l 844 1024 b 815 1057 844 1044 832 1057 l 811 1057 b 774 1044 800 1057 789 1053 b 267 574 603 936 392 719 b 196 535 249 551 229 540 b -110 467 142 528 -81 485 b -114 457 -112 465 -114 463 b -97 435 -114 449 -110 438 l -94 435 b 68 467 -67 435 68 458 b 174 496 69 482 161 493 b 190 497 181 496 186 497 b 196 493 193 497 196 496 b 189 482 196 490 193 488 b -160 -50 68 318 -75 132 b -172 -87 -164 -58 -172 -74 l -172 -90 b -154 -108 -172 -100 -168 -108 l -144 -108 b -100 -42 -107 -108 -114 -67 b 251 496 0 150 114 325 b 285 511 260 506 271 510 z m 311 560 b 800 1013 314 597 706 976 b 589 604 756 903 647 715 b 558 576 581 589 578 578 l 340 554 b 321 553 336 554 328 553 b 313 558 317 553 313 554 z m 781 1140 b 833 1086 781 1107 800 1086 b 853 1089 840 1086 846 1088 b 986 1264 929 1106 985 1181 l 986 1276 b 939 1350 986 1299 965 1350 b 914 1340 932 1350 924 1346 b 782 1151 842 1297 796 1235 l 782 1149 z m 821 1149 b 822 1158 821 1153 822 1156 b 924 1301 839 1218 874 1267 b 949 1274 940 1297 947 1289 l 949 1265 b 854 1129 949 1208 907 1147 b 836 1126 849 1128 842 1126 b 821 1149 825 1126 821 1139 z "},"Ã":{"ha":789,"x_min":0,"x_max":0,"o":"m 831 1218 l 826 1218 b 717 1146 778 1218 717 1172 b 722 1133 717 1140 718 1136 b 739 1128 728 1129 733 1128 b 781 1161 760 1128 774 1157 b 817 1176 794 1172 807 1176 b 900 1132 849 1176 861 1132 b 996 1204 933 1132 996 1169 b 985 1215 996 1211 992 1215 b 944 1196 976 1215 963 1210 b 900 1174 924 1179 910 1174 b 831 1218 871 1174 869 1218 z m -172 -90 b -154 -108 -172 -100 -168 -108 l -144 -108 b -100 -42 -107 -108 -114 -67 b 251 496 0 150 114 325 b 285 511 260 506 271 510 l 535 536 b 544 538 539 538 542 538 b 551 533 549 536 551 535 l 551 532 b 547 518 551 529 550 525 b 428 238 508 425 468 331 b 394 113 424 226 394 157 l 394 106 b 415 72 394 86 399 72 l 421 72 b 442 94 438 72 442 82 l 442 121 b 444 139 442 126 443 132 b 596 526 483 272 538 399 b 622 543 601 538 610 543 b 693 546 643 543 669 546 l 704 546 b 742 535 719 546 733 542 b 750 531 744 532 747 531 b 772 553 761 531 771 542 b 743 576 772 564 765 574 b 706 579 729 578 717 579 b 664 581 689 581 675 581 l 639 581 b 628 588 631 581 628 582 b 646 628 628 593 635 606 b 833 986 707 749 776 864 b 844 1021 840 1000 844 1011 l 844 1024 b 815 1057 844 1044 832 1057 l 811 1057 b 774 1044 800 1057 789 1053 b 267 574 603 936 392 719 b 196 535 249 551 229 540 b -110 467 142 528 -81 485 b -114 457 -112 465 -114 463 b -97 435 -114 449 -110 438 l -94 435 b 68 467 -67 435 68 458 b 174 496 69 482 161 493 b 190 497 181 496 186 497 b 196 493 193 497 196 496 b 189 482 196 490 193 488 b -160 -50 68 318 -75 132 b -172 -87 -164 -58 -172 -74 z m 311 560 b 800 1013 314 597 706 976 b 589 604 756 903 647 715 b 558 576 581 589 578 578 l 340 554 b 321 553 336 554 328 553 b 313 558 317 553 313 554 z "},"Æ":{"ha":1160,"x_min":0,"x_max":0,"o":"m 961 1054 b 435 574 808 978 551 710 b 364 535 418 551 394 539 b 268 519 344 533 311 528 b 139 492 224 510 181 501 b 58 467 97 482 71 474 b 56 457 57 465 56 463 l 56 454 b 58 444 56 450 57 447 b 71 435 60 440 65 438 l 74 435 b 108 439 79 435 90 436 b 163 447 125 440 143 444 b 214 458 182 451 199 456 b 236 467 228 463 236 464 b 257 479 238 472 244 476 b 300 489 269 483 283 486 b 336 494 315 492 326 493 b 342 496 339 494 340 494 l 346 496 b 358 497 350 497 354 497 b 364 493 361 497 364 496 b 357 482 364 492 361 488 l 321 432 b 8 -51 210 278 92 122 l 1 -68 b -4 -87 -3 -74 -4 -81 l -4 -92 b -1 -101 -4 -96 -3 -99 b 15 -108 3 -104 7 -108 l 25 -108 b 49 -97 38 -108 44 -104 b 60 -68 54 -89 58 -79 l 68 -42 b 419 496 167 149 283 328 b 453 511 428 506 439 511 l 703 536 b 713 538 707 538 710 538 b 719 533 717 536 719 535 l 719 532 b 715 518 719 529 718 525 b 596 238 676 425 636 331 l 596 235 b 578 182 592 224 585 207 b 563 113 569 158 563 135 l 563 103 b 565 85 563 96 564 90 b 583 72 569 76 575 72 l 585 72 b 601 71 589 72 594 71 b 646 74 614 71 629 71 b 719 78 669 76 693 78 b 740 76 726 78 733 78 l 760 76 b 799 75 771 76 785 76 b 860 74 819 75 840 74 b 896 72 879 72 892 72 b 918 79 906 72 913 75 b 925 92 922 82 925 88 b 918 106 925 97 924 101 b 896 113 914 108 907 111 l 610 113 l 610 121 b 613 139 610 126 611 132 b 764 526 653 271 704 400 b 790 543 769 538 778 543 b 818 544 799 543 808 543 b 872 546 836 546 854 546 b 910 535 889 544 901 542 b 918 531 913 532 915 531 b 940 553 932 531 938 542 b 935 568 940 558 939 564 b 874 579 921 578 890 579 b 825 581 853 581 836 581 l 807 581 b 796 586 800 581 796 582 l 796 588 b 807 614 796 592 800 600 b 814 628 808 618 811 622 b 896 781 840 679 868 731 b 1001 986 933 849 968 917 b 1013 1019 1008 999 1011 1010 b 1031 1021 1018 1019 1024 1019 b 1104 1025 1053 1024 1078 1025 b 1125 1024 1111 1025 1118 1025 l 1144 1024 b 1183 1022 1156 1024 1168 1024 b 1243 1021 1204 1022 1224 1021 b 1281 1019 1263 1019 1275 1019 b 1301 1026 1289 1019 1297 1022 b 1310 1039 1307 1029 1310 1035 b 1303 1053 1310 1044 1307 1049 b 1281 1060 1297 1056 1290 1058 l 1001 1060 b 981 1058 994 1060 988 1060 b 961 1054 972 1058 967 1056 z m 479 560 b 968 1013 492 608 869 968 b 807 699 929 913 861 792 b 756 603 789 664 771 632 l 754 600 b 744 583 750 592 747 588 b 726 576 740 579 735 578 l 508 554 l 504 554 b 489 553 500 553 494 553 b 481 558 485 553 481 554 z "},"Ǣ":{"ha":1160,"x_min":0,"x_max":0,"o":"m 961 1054 b 435 574 808 978 551 710 b 364 535 418 551 394 539 b 268 519 344 533 311 528 b 139 492 224 510 181 501 b 58 467 97 482 71 474 b 56 457 57 465 56 463 l 56 454 b 58 444 56 450 57 447 b 71 435 60 440 65 438 l 74 435 b 108 439 79 435 90 436 b 163 447 125 440 143 444 b 214 458 182 451 199 456 b 236 467 228 463 236 464 b 257 479 238 472 244 476 b 300 489 269 483 283 486 b 336 494 315 492 326 493 b 342 496 339 494 340 494 l 346 496 b 358 497 350 497 354 497 b 364 493 361 497 364 496 b 357 482 364 492 361 488 l 321 432 b 8 -51 210 278 92 122 l 1 -68 b -4 -87 -3 -74 -4 -81 l -4 -92 b -1 -101 -4 -96 -3 -99 b 15 -108 3 -104 7 -108 l 25 -108 b 49 -97 38 -108 44 -104 b 60 -68 54 -89 58 -79 l 68 -42 b 419 496 167 149 283 328 b 453 511 428 506 439 511 l 703 536 b 713 538 707 538 710 538 b 719 533 717 536 719 535 l 719 532 b 715 518 719 529 718 525 b 596 238 676 425 636 331 l 596 235 b 578 182 592 224 585 207 b 563 113 569 158 563 135 l 563 103 b 565 85 563 96 564 90 b 583 72 569 76 575 72 l 585 72 b 601 71 589 72 594 71 b 646 74 614 71 629 71 b 719 78 669 76 693 78 b 740 76 726 78 733 78 l 760 76 b 799 75 771 76 785 76 b 860 74 819 75 840 74 b 896 72 879 72 892 72 b 918 79 906 72 913 75 b 925 92 922 82 925 88 b 918 106 925 97 924 101 b 896 113 914 108 907 111 l 610 113 l 610 121 b 613 139 610 126 611 132 b 764 526 653 271 704 400 b 790 543 769 538 778 543 b 818 544 799 543 808 543 b 872 546 836 546 854 546 b 910 535 889 544 901 542 b 918 531 913 532 915 531 b 940 553 932 531 938 542 b 935 568 940 558 939 564 b 874 579 921 578 890 579 b 825 581 853 581 836 581 l 807 581 b 796 586 800 581 796 582 l 796 588 b 807 614 796 592 800 600 b 814 628 808 618 811 622 b 896 781 840 679 868 731 b 1001 986 933 849 968 917 b 1013 1019 1008 999 1011 1010 b 1031 1021 1018 1019 1024 1019 b 1104 1025 1053 1024 1078 1025 b 1125 1024 1111 1025 1118 1025 l 1144 1024 b 1183 1022 1156 1024 1168 1024 b 1243 1021 1204 1022 1224 1021 b 1281 1019 1263 1019 1275 1019 b 1301 1026 1289 1019 1297 1022 b 1310 1039 1307 1029 1310 1035 b 1303 1053 1310 1044 1307 1049 b 1281 1060 1297 1056 1290 1058 l 1001 1060 b 981 1058 994 1060 988 1060 b 961 1054 972 1058 967 1056 z m 479 560 b 968 1013 492 608 869 968 b 807 699 929 913 861 792 b 756 603 789 664 771 632 l 754 600 b 744 583 750 592 747 588 b 726 576 740 579 735 578 l 508 554 l 504 554 b 489 553 500 553 494 553 b 481 558 485 553 481 554 z m 888 1199 b 929 1197 904 1197 917 1197 l 943 1197 b 1061 1199 983 1197 1022 1199 l 1092 1199 b 1232 1190 1135 1199 1186 1190 l 1233 1190 b 1275 1210 1258 1190 1275 1199 b 1246 1224 1275 1215 1265 1222 b 1118 1229 1203 1228 1161 1229 b 943 1222 1061 1229 1003 1226 b 888 1199 924 1221 897 1221 z "},"B":{"ha":1108,"x_min":0,"x_max":0,"o":"m 843 357 b 571 374 756 369 663 374 b 371 367 503 374 435 367 l 364 367 l 347 365 l 340 365 b 326 372 331 365 326 367 b 369 435 326 399 347 424 b 1204 850 576 518 1063 696 b 1244 935 1232 881 1244 908 b 711 1111 1244 1047 996 1111 b -57 882 410 1111 69 1040 b -94 785 -85 846 -94 814 b -35 678 -94 728 -54 688 b -24 675 -31 675 -28 675 b 1 700 -10 675 1 688 b -11 718 1 707 -3 714 b -61 783 -49 736 -61 760 b -39 844 -61 804 -51 826 b 731 1068 86 1022 510 1068 b 1201 932 826 1068 1201 1053 b 1185 886 1201 918 1197 903 b 406 493 1093 761 578 550 b 383 488 400 492 390 488 b 376 493 379 488 376 489 b 379 504 376 496 376 500 b 581 871 436 631 501 756 b 596 868 585 869 592 868 b 607 872 600 868 604 869 b 651 961 614 881 644 946 b 668 1000 657 971 668 986 b 665 1010 668 1003 668 1007 b 651 1018 663 1015 657 1018 b 628 1007 643 1018 635 1013 b 417 664 546 906 476 779 b 331 499 388 610 361 551 b 268 442 311 467 300 458 b 121 367 240 429 140 386 b 115 349 117 361 115 356 b 124 326 115 340 118 332 b 203 315 132 318 175 315 l 225 315 l 229 317 b 250 301 243 317 250 314 b 249 289 250 299 250 294 l 211 165 b 189 146 207 153 207 146 l 188 146 b 106 176 161 146 115 149 b 89 188 103 185 96 188 b 63 163 76 188 63 176 b 211 110 63 113 181 110 b 286 113 235 110 260 110 b 860 246 499 126 783 208 b 908 303 893 263 908 283 b 843 357 908 328 885 350 z m 185 354 b 239 381 185 358 211 368 l 253 385 b 274 392 263 389 269 392 b 279 386 276 392 279 390 b 278 381 279 385 278 383 b 246 356 274 360 265 358 b 196 353 226 354 207 353 b 185 354 189 353 185 353 z m 254 157 l 254 165 b 292 289 264 207 279 249 b 332 322 300 315 303 315 b 528 336 379 332 453 336 b 772 325 618 336 714 331 b 867 300 839 318 867 310 b 774 251 867 289 831 274 b 296 150 653 206 436 161 b 265 147 282 149 272 147 b 254 157 257 147 254 149 z "},"Ḅ":{"ha":1108,"x_min":0,"x_max":0,"o":"m 843 357 b 571 374 756 369 663 374 b 371 367 503 374 435 367 l 364 367 l 347 365 l 340 365 b 326 372 331 365 326 367 b 369 435 326 399 347 424 b 1204 850 576 518 1063 696 b 1244 935 1232 881 1244 908 b 711 1111 1244 1047 996 1111 b -57 882 410 1111 69 1040 b -94 785 -85 846 -94 814 b -35 678 -94 728 -54 688 b -24 675 -31 675 -28 675 b 1 700 -10 675 1 688 b -11 718 1 707 -3 714 b -61 783 -49 736 -61 760 b -39 844 -61 804 -51 826 b 731 1068 86 1022 510 1068 b 1201 932 826 1068 1201 1053 b 1185 886 1201 918 1197 903 b 406 493 1093 761 578 550 b 383 488 400 492 390 488 b 376 493 379 488 376 489 b 379 504 376 496 376 500 b 581 871 436 631 501 756 b 596 868 585 869 592 868 b 607 872 600 868 604 869 b 651 961 614 881 644 946 b 668 1000 657 971 668 986 b 665 1010 668 1003 668 1007 b 651 1018 663 1015 657 1018 b 628 1007 643 1018 635 1013 b 417 664 546 906 476 779 b 331 499 388 610 361 551 b 268 442 311 467 300 458 b 121 367 240 429 140 386 b 115 349 117 361 115 356 b 124 326 115 340 118 332 b 203 315 132 318 175 315 l 225 315 l 229 317 b 250 301 243 317 250 314 b 249 289 250 299 250 294 l 211 165 b 189 146 207 153 207 146 l 188 146 b 106 176 161 146 115 149 b 89 188 103 185 96 188 b 63 163 76 188 63 176 b 211 110 63 113 181 110 b 286 113 235 110 260 110 b 860 246 499 126 783 208 b 908 303 893 263 908 283 b 843 357 908 328 885 350 z m 185 354 b 239 381 185 358 211 368 l 253 385 b 274 392 263 389 269 392 b 279 386 276 392 279 390 b 278 381 279 385 278 383 b 246 356 274 360 265 358 b 196 353 226 354 207 353 b 185 354 189 353 185 353 z m 254 157 l 254 165 b 292 289 264 207 279 249 b 332 322 300 315 303 315 b 528 336 379 332 453 336 b 772 325 618 336 714 331 b 867 300 839 318 867 310 b 774 251 867 289 831 274 b 296 150 653 206 436 161 b 265 147 282 149 272 147 b 254 157 257 147 254 149 z m 353 -101 b 383 -139 353 -118 365 -139 b 426 -78 408 -139 426 -99 b 385 -46 426 -44 408 -40 b 353 -101 368 -54 353 -90 z "},"C":{"ha":694,"x_min":0,"x_max":0,"o":"m 92 81 b 151 85 119 81 135 82 b 769 543 344 124 694 447 b 742 569 792 574 753 586 b 146 133 664 478 335 172 b 96 129 132 131 119 129 b 14 339 -7 139 -3 249 b 531 1011 57 553 258 872 b 592 1029 556 1024 576 1029 b 638 975 625 1026 638 1006 b 572 831 638 946 617 874 b 451 674 488 744 456 697 b 508 672 451 633 489 656 b 635 829 585 744 622 814 b 789 931 669 874 746 931 b 814 922 801 928 808 922 b 839 947 829 922 838 935 b 811 976 839 974 822 976 b 696 932 775 976 719 947 b 674 940 685 925 674 921 b 678 985 676 954 678 969 b 601 1075 678 1046 649 1075 b 406 988 538 1075 450 1024 b -28 357 154 789 11 542 b 92 81 -53 233 -40 92 z "},"Ć":{"ha":694,"x_min":0,"x_max":0,"o":"m 92 81 b 151 85 119 81 135 82 b 769 543 344 124 694 447 b 742 569 792 574 753 586 b 146 133 664 478 335 172 b 96 129 132 131 119 129 b 14 339 -7 139 -3 249 b 531 1011 57 553 258 872 b 592 1029 556 1024 576 1029 b 638 975 625 1026 638 1006 b 572 831 638 946 617 874 b 451 674 488 744 456 697 b 508 672 451 633 489 656 b 635 829 585 744 622 814 b 789 931 669 874 746 931 b 814 922 801 928 808 922 b 839 947 829 922 838 935 b 811 976 839 974 822 976 b 696 932 775 976 719 947 b 674 940 685 925 674 921 b 678 985 676 954 678 969 b 601 1075 678 1046 649 1075 b 406 988 538 1075 450 1024 b -28 357 154 789 11 542 b 92 81 -53 233 -40 92 z m 608 1149 b 625 1133 608 1140 614 1133 b 640 1136 629 1133 635 1135 l 724 1225 b 746 1254 729 1232 746 1239 b 744 1264 746 1257 746 1261 b 728 1275 742 1269 735 1271 b 608 1149 706 1261 608 1176 z "},"Č":{"ha":694,"x_min":0,"x_max":0,"o":"m 92 81 b 151 85 119 81 135 82 b 769 543 344 124 694 447 b 742 569 792 574 753 586 b 146 133 664 478 335 172 b 96 129 132 131 119 129 b 14 339 -7 139 -3 249 b 531 1011 57 553 258 872 b 592 1029 556 1024 576 1029 b 638 975 625 1026 638 1006 b 572 831 638 946 617 874 b 451 674 488 744 456 697 b 508 672 451 633 489 656 b 635 829 585 744 622 814 b 789 931 669 874 746 931 b 814 922 801 928 808 922 b 839 947 829 922 838 935 b 811 976 839 974 822 976 b 696 932 775 976 719 947 b 674 940 685 925 674 921 b 678 985 676 954 678 969 b 601 1075 678 1046 649 1075 b 406 988 538 1075 450 1024 b -28 357 154 789 11 542 b 92 81 -53 233 -40 92 z m 532 1285 b 560 1253 540 1274 549 1263 b 651 1171 589 1225 619 1197 b 683 1157 663 1163 674 1157 b 722 1183 696 1157 708 1167 b 822 1310 800 1272 822 1294 b 815 1319 822 1315 819 1319 b 796 1310 811 1319 804 1317 b 710 1213 785 1299 756 1264 b 692 1203 704 1207 699 1203 l 689 1203 b 629 1240 672 1203 650 1224 b 567 1296 607 1258 588 1278 b 549 1304 563 1300 557 1304 b 532 1292 539 1304 532 1301 z "},"Ç":{"ha":694,"x_min":0,"x_max":0,"o":"m 92 81 b 151 85 119 81 135 82 b 769 543 344 124 694 447 b 742 569 792 574 753 586 b 146 133 664 478 335 172 b 96 129 132 131 119 129 b 14 339 -7 139 -3 249 b 531 1011 57 553 258 872 b 592 1029 556 1024 576 1029 b 638 975 625 1026 638 1006 b 572 831 638 946 617 874 b 451 674 488 744 456 697 b 508 672 451 633 489 656 b 635 829 585 744 622 814 b 789 931 669 874 746 931 b 814 922 801 928 808 922 b 839 947 829 922 838 935 b 811 976 839 974 822 976 b 696 932 775 976 719 947 b 674 940 685 925 674 921 b 678 985 676 954 678 969 b 601 1075 678 1046 649 1075 b 406 988 538 1075 450 1024 b -28 357 154 789 11 542 b 24 104 -47 260 -44 150 b -49 47 -31 79 -49 61 b 6 14 -49 32 -22 22 b 51 1 35 8 51 7 b 8 -26 51 -3 39 -12 b -69 -67 -18 -40 -49 -53 b -76 -79 -74 -71 -76 -75 b -53 -96 -76 -87 -67 -96 b 106 4 -22 -96 106 -22 b 63 35 106 17 92 25 b 11 54 25 47 11 50 b 58 88 11 57 35 61 b 92 81 68 83 79 82 z "},"Ĉ":{"ha":694,"x_min":0,"x_max":0,"o":"m 92 81 b 151 85 119 81 135 82 b 769 543 344 124 694 447 b 742 569 792 574 753 586 b 146 133 664 478 335 172 b 96 129 132 131 119 129 b 14 339 -7 139 -3 249 b 531 1011 57 553 258 872 b 592 1029 556 1024 576 1029 b 638 975 625 1026 638 1006 b 572 831 638 946 617 874 b 451 674 488 744 456 697 b 508 672 451 633 489 656 b 635 829 585 744 622 814 b 789 931 669 874 746 931 b 814 922 801 928 808 922 b 839 947 829 922 838 935 b 811 976 839 974 822 976 b 696 932 775 976 719 947 b 674 940 685 925 674 921 b 678 985 676 954 678 969 b 601 1075 678 1046 649 1075 b 406 988 538 1075 450 1024 b -28 357 154 789 11 542 b 92 81 -53 233 -40 92 z m 565 1154 b 583 1135 565 1143 574 1135 b 589 1136 585 1135 588 1135 b 714 1235 606 1142 651 1196 l 751 1118 b 771 1104 754 1108 763 1104 b 789 1124 779 1104 789 1111 b 786 1135 789 1126 788 1131 b 721 1278 754 1228 750 1278 b 576 1174 699 1278 660 1244 b 565 1154 568 1168 565 1160 z "},"Ċ":{"ha":694,"x_min":0,"x_max":0,"o":"m 92 81 b 151 85 119 81 135 82 b 769 543 344 124 694 447 b 742 569 792 574 753 586 b 146 133 664 478 335 172 b 96 129 132 131 119 129 b 14 339 -7 139 -3 249 b 531 1011 57 553 258 872 b 592 1029 556 1024 576 1029 b 638 975 625 1026 638 1006 b 572 831 638 946 617 874 b 451 674 488 744 456 697 b 508 672 451 633 489 656 b 635 829 585 744 622 814 b 789 931 669 874 746 931 b 814 922 801 928 808 922 b 839 947 829 922 838 935 b 811 976 839 974 822 976 b 696 932 775 976 719 947 b 674 940 685 925 674 921 b 678 985 676 954 678 969 b 601 1075 678 1046 649 1075 b 406 988 538 1075 450 1024 b -28 357 154 789 11 542 b 92 81 -53 233 -40 92 z m 640 1219 b 671 1182 640 1203 653 1182 b 714 1243 696 1182 714 1222 b 672 1275 714 1276 696 1281 b 640 1219 656 1267 640 1231 z "},"D":{"ha":1511,"x_min":0,"x_max":0,"o":"m -151 593 b 603 882 -22 771 397 861 b 624 883 608 882 617 883 b 638 875 631 883 638 882 l 638 872 b 632 857 638 869 636 864 b 401 442 546 722 471 582 b 115 190 376 393 213 333 b 69 85 88 149 74 113 l 69 75 b 238 -26 69 6 138 -26 l 244 -26 b 1451 660 556 -26 1418 358 l 1451 675 b 1399 794 1451 718 1436 757 b 792 936 1268 926 978 936 l 757 936 b 739 946 747 936 739 936 b 746 961 740 950 742 954 b 801 1040 789 1039 782 989 b 804 1056 803 1046 804 1051 l 804 1061 b 786 1083 804 1076 796 1083 b 772 1081 779 1083 778 1089 b 704 975 760 1065 729 1013 b 654 928 686 947 674 929 b 228 847 511 915 368 889 b -203 553 -106 746 -203 621 l -203 544 b -176 501 -203 518 -190 501 b -158 511 -169 501 -164 504 b -150 525 -153 515 -150 521 l -150 526 b -161 565 -150 539 -161 549 l -161 569 b -151 593 -161 575 -158 583 z m 110 78 l 110 85 b 336 339 128 178 260 289 b 350 344 342 342 347 344 b 354 340 353 344 354 343 b 351 333 354 339 353 336 b 257 99 332 286 272 146 l 257 93 b 276 78 257 83 267 78 b 300 93 286 78 297 83 b 414 379 328 188 379 297 b 924 615 438 436 826 576 b 936 632 932 618 936 625 l 936 635 b 921 654 936 646 931 654 b 915 653 919 654 917 654 b 479 472 768 600 621 546 b 468 468 475 469 471 468 b 463 474 464 468 463 471 b 464 476 463 475 463 475 l 464 481 b 683 867 504 569 628 782 b 725 893 694 883 706 893 l 843 893 b 1386 747 1028 893 1271 881 b 1413 675 1404 725 1413 700 l 1413 664 b 242 17 1385 414 593 17 b 149 29 206 17 174 21 b 110 78 124 38 110 56 z "},"Ɖ":{"ha":1511,"x_min":0,"x_max":0,"o":"m -151 593 b 603 882 -22 771 397 861 b 624 883 608 882 617 883 b 638 875 631 883 638 882 l 638 872 b 632 857 638 869 636 864 b 515 660 590 792 551 726 l 371 657 b 351 640 358 657 351 649 b 375 619 351 631 360 621 b 481 618 407 618 443 618 l 492 618 b 401 442 461 560 431 500 b 115 190 376 393 213 333 b 69 85 88 149 74 113 l 69 75 b 238 -26 69 6 138 -26 l 244 -26 b 1451 660 556 -26 1418 358 l 1451 675 b 1399 794 1451 718 1436 757 b 792 936 1268 926 978 936 l 757 936 b 739 946 747 936 739 936 b 746 961 740 950 742 954 b 801 1040 789 1039 782 989 b 804 1056 803 1046 804 1051 l 804 1061 b 786 1083 804 1076 796 1083 b 767 1072 779 1083 772 1081 b 704 975 754 1057 729 1013 b 654 928 686 947 674 929 b 228 847 511 915 368 889 b -203 553 -106 746 -203 621 l -203 544 b -176 501 -203 518 -190 501 b -158 511 -169 501 -164 504 b -150 525 -153 515 -150 521 l -150 526 b -161 565 -150 539 -161 549 l -161 569 b -151 593 -161 575 -158 583 z m 110 78 l 110 85 b 336 339 128 178 260 289 b 350 344 342 342 347 344 b 354 340 353 344 354 343 b 351 333 354 339 353 336 b 257 99 332 286 272 146 l 257 93 b 276 78 257 83 267 78 b 300 93 286 78 297 83 b 414 379 328 188 379 297 b 924 615 438 436 826 576 b 936 632 932 618 936 625 l 936 635 b 921 654 936 646 931 654 b 915 653 919 654 917 654 b 479 472 768 600 621 546 b 468 468 475 469 471 468 b 463 474 464 468 463 471 b 464 476 463 475 463 475 l 464 481 b 536 618 479 514 506 564 l 671 618 b 711 636 690 618 711 621 l 710 639 b 638 661 707 663 674 658 l 560 660 b 683 867 604 740 654 821 b 725 893 694 883 706 893 l 843 893 b 1386 747 1028 893 1271 881 b 1413 675 1404 725 1413 700 l 1413 664 b 242 17 1385 414 593 17 b 149 29 206 17 174 21 b 110 78 124 38 110 56 z "},"Ð":{"ha":1511,"x_min":0,"x_max":0,"o":"m -151 593 b 603 882 -22 771 397 861 b 624 883 608 882 617 883 b 638 875 631 883 638 882 l 638 872 b 632 857 638 869 636 864 b 515 660 590 792 551 726 l 371 657 b 351 640 358 657 351 649 b 375 619 351 631 360 621 b 481 618 407 618 443 618 l 492 618 b 401 442 461 560 431 500 b 115 190 376 393 213 333 b 69 85 88 149 74 113 l 69 75 b 238 -26 69 6 138 -26 l 244 -26 b 1451 660 556 -26 1418 358 l 1451 675 b 1399 794 1451 718 1436 757 b 792 936 1268 926 978 936 l 757 936 b 739 946 747 936 739 936 b 746 961 740 950 742 954 b 801 1040 789 1039 782 989 b 804 1056 803 1046 804 1051 l 804 1061 b 786 1083 804 1076 796 1083 b 767 1072 779 1083 772 1081 b 704 975 754 1057 729 1013 b 654 928 686 947 674 929 b 228 847 511 915 368 889 b -203 553 -106 746 -203 621 l -203 544 b -176 501 -203 518 -190 501 b -158 511 -169 501 -164 504 b -150 525 -153 515 -150 521 l -150 526 b -161 565 -150 539 -161 549 l -161 569 b -151 593 -161 575 -158 583 z m 110 78 l 110 85 b 336 339 128 178 260 289 b 350 344 342 342 347 344 b 354 340 353 344 354 343 b 351 333 354 339 353 336 b 257 99 332 286 272 146 l 257 93 b 276 78 257 83 267 78 b 300 93 286 78 297 83 b 414 379 328 188 379 297 b 924 615 438 436 826 576 b 936 632 932 618 936 625 l 936 635 b 921 654 936 646 931 654 b 915 653 919 654 917 654 b 479 472 768 600 621 546 b 468 468 475 469 471 468 b 463 474 464 468 463 471 b 464 476 463 475 463 475 l 464 481 b 536 618 479 514 506 564 l 671 618 b 711 636 690 618 711 621 l 710 639 b 638 661 707 663 674 658 l 560 660 b 683 867 604 740 654 821 b 725 893 694 883 706 893 l 843 893 b 1386 747 1028 893 1271 881 b 1413 675 1404 725 1413 700 l 1413 664 b 242 17 1385 414 593 17 b 149 29 206 17 174 21 b 110 78 124 38 110 56 z "},"Ď":{"ha":1511,"x_min":0,"x_max":0,"o":"m 1029 1013 b 1068 1039 1042 1013 1054 1022 b 1168 1165 1146 1128 1168 1150 b 1161 1175 1168 1171 1165 1175 b 1142 1165 1157 1175 1150 1172 b 1056 1068 1131 1154 1101 1119 b 1038 1058 1051 1063 1044 1058 l 1035 1058 b 975 1096 1018 1060 996 1079 b 914 1151 953 1114 933 1133 b 894 1160 908 1156 903 1160 b 879 1147 886 1160 881 1157 b 878 1143 879 1146 878 1144 b 879 1140 878 1142 879 1142 b 906 1108 886 1129 894 1118 b 997 1026 936 1081 965 1053 b 1029 1013 1008 1018 1019 1013 z m -203 544 b -176 501 -203 518 -190 501 b -158 511 -169 501 -164 504 b -150 525 -153 515 -150 521 l -150 526 b -161 565 -150 539 -161 549 l -161 569 b -151 593 -161 575 -158 583 b 603 882 -22 771 397 861 b 624 883 608 882 617 883 b 638 875 631 883 638 882 l 638 872 b 632 857 638 869 636 864 b 401 442 546 722 471 582 b 115 190 376 393 213 333 b 69 85 88 149 74 113 l 69 75 b 238 -26 69 6 138 -26 l 244 -26 b 1451 660 556 -26 1418 358 l 1451 675 b 1399 794 1451 718 1436 757 b 792 936 1268 926 978 936 l 757 936 b 739 946 747 936 739 936 b 746 961 740 950 742 954 b 801 1040 789 1039 782 989 b 804 1056 803 1046 804 1051 l 804 1061 b 786 1083 804 1076 796 1083 b 767 1072 779 1083 772 1081 b 704 975 754 1057 729 1013 b 654 928 686 947 674 929 b 228 847 511 915 368 889 b -203 553 -106 746 -203 621 z m 110 78 l 110 85 b 336 339 128 178 260 289 b 350 344 342 342 347 344 b 354 340 353 344 354 343 b 351 333 354 339 353 336 b 257 99 332 286 272 146 l 257 93 b 276 78 257 83 267 78 b 300 93 286 78 297 83 b 414 379 328 188 379 297 b 924 615 438 436 826 576 b 936 632 932 618 936 625 l 936 635 b 921 654 936 646 931 654 b 915 653 919 654 917 654 b 479 472 768 600 621 546 b 468 468 475 469 471 468 b 463 474 464 468 463 471 b 464 476 463 475 463 475 l 464 481 b 683 867 504 569 628 782 b 725 893 694 883 706 893 l 843 893 b 1386 747 1028 893 1271 881 b 1413 675 1404 725 1413 700 l 1413 664 b 242 17 1385 414 593 17 b 149 29 206 17 174 21 b 110 78 124 38 110 56 z "},"Ḓ":{"ha":1511,"x_min":0,"x_max":0,"o":"m -151 593 b 603 882 -22 771 397 861 b 624 883 608 882 617 883 b 638 875 631 883 638 882 l 638 872 b 632 857 638 869 636 864 b 401 442 546 722 471 582 b 115 190 376 393 213 333 b 69 85 88 149 74 113 l 69 75 b 238 -26 69 6 138 -26 l 244 -26 b 1451 660 556 -26 1418 358 l 1451 675 b 1399 794 1451 718 1436 757 b 792 936 1268 926 978 936 l 757 936 b 739 946 747 936 739 936 b 746 961 740 950 742 954 b 801 1040 789 1039 782 989 b 804 1056 803 1046 804 1051 l 804 1061 b 786 1083 804 1076 796 1083 b 772 1081 779 1083 778 1089 b 704 975 760 1065 729 1013 b 654 928 686 947 674 929 b 228 847 511 915 368 889 b -203 553 -106 746 -203 621 l -203 544 b -176 501 -203 518 -190 501 b -158 511 -169 501 -164 504 b -150 525 -153 515 -150 521 l -150 526 b -161 565 -150 539 -161 549 l -161 569 b -151 593 -161 575 -158 583 z m 110 78 l 110 85 b 336 339 128 178 260 289 b 350 344 342 342 347 344 b 354 340 353 344 354 343 b 351 333 354 339 353 336 b 257 99 332 286 272 146 l 257 93 b 276 78 257 83 267 78 b 300 93 286 78 297 83 b 414 379 328 188 379 297 b 924 615 438 436 826 576 b 936 632 932 618 936 625 l 936 635 b 921 654 936 646 931 654 b 915 653 919 654 917 654 b 479 472 768 600 621 546 b 468 468 475 469 471 468 b 463 474 464 468 463 471 b 464 476 463 475 463 475 l 464 481 b 683 867 504 569 628 782 b 725 893 694 883 706 893 l 843 893 b 1386 747 1028 893 1271 881 b 1413 675 1404 725 1413 700 l 1413 664 b 242 17 1385 414 593 17 b 149 29 206 17 174 21 b 110 78 124 38 110 56 z m 492 -221 b 499 -231 492 -226 494 -231 b 518 -221 503 -231 510 -228 b 604 -124 529 -210 558 -175 b 622 -114 610 -118 615 -114 l 625 -114 b 685 -151 642 -114 664 -135 b 747 -207 707 -169 726 -189 b 765 -215 751 -211 757 -215 b 782 -203 775 -215 782 -212 l 782 -196 b 754 -164 774 -185 765 -174 b 663 -82 725 -136 694 -108 b 631 -68 651 -74 640 -68 b 592 -94 618 -68 606 -78 b 492 -221 514 -183 492 -206 z "},"Đ":{"ha":1511,"x_min":0,"x_max":0,"o":"m -151 593 b 603 882 -22 771 397 861 b 624 883 608 882 617 883 b 638 875 631 883 638 882 l 638 872 b 632 857 638 869 636 864 b 515 660 590 792 551 726 l 371 657 b 351 640 358 657 351 649 b 375 619 351 631 360 621 b 481 618 407 618 443 618 l 492 618 b 401 442 461 560 431 500 b 115 190 376 393 213 333 b 69 85 88 149 74 113 l 69 75 b 238 -26 69 6 138 -26 l 244 -26 b 1451 660 556 -26 1418 358 l 1451 675 b 1399 794 1451 718 1436 757 b 792 936 1268 926 978 936 l 757 936 b 739 946 747 936 739 936 b 746 961 740 950 742 954 b 801 1040 789 1039 782 989 b 804 1056 803 1046 804 1051 l 804 1061 b 786 1083 804 1076 796 1083 b 767 1072 779 1083 772 1081 b 704 975 754 1057 729 1013 b 654 928 686 947 674 929 b 228 847 511 915 368 889 b -203 553 -106 746 -203 621 l -203 544 b -176 501 -203 518 -190 501 b -158 511 -169 501 -164 504 b -150 525 -153 515 -150 521 l -150 526 b -161 565 -150 539 -161 549 l -161 569 b -151 593 -161 575 -158 583 z m 110 78 l 110 85 b 336 339 128 178 260 289 b 350 344 342 342 347 344 b 354 340 353 344 354 343 b 351 333 354 339 353 336 b 257 99 332 286 272 146 l 257 93 b 276 78 257 83 267 78 b 300 93 286 78 297 83 b 414 379 328 188 379 297 b 924 615 438 436 826 576 b 936 632 932 618 936 625 l 936 635 b 921 654 936 646 931 654 b 915 653 919 654 917 654 b 479 472 768 600 621 546 b 468 468 475 469 471 468 b 463 474 464 468 463 471 b 464 476 463 475 463 475 l 464 481 b 536 618 479 514 506 564 l 671 618 b 711 636 690 618 711 621 l 710 639 b 638 661 707 663 674 658 l 560 660 b 683 867 604 740 654 821 b 725 893 694 883 706 893 l 843 893 b 1386 747 1028 893 1271 881 b 1413 675 1404 725 1413 700 l 1413 664 b 242 17 1385 414 593 17 b 149 29 206 17 174 21 b 110 78 124 38 110 56 z "},"Ḍ":{"ha":1511,"x_min":0,"x_max":0,"o":"m -151 593 b 603 882 -22 771 397 861 b 624 883 608 882 617 883 b 638 875 631 883 638 882 l 638 872 b 632 857 638 869 636 864 b 401 442 546 722 471 582 b 115 190 376 393 213 333 b 69 85 88 149 74 113 l 69 75 b 238 -26 69 6 138 -26 l 244 -26 b 1451 660 556 -26 1418 358 l 1451 675 b 1399 794 1451 718 1436 757 b 792 936 1268 926 978 936 l 757 936 b 739 946 747 936 739 936 b 746 961 740 950 742 954 b 801 1040 789 1039 782 989 b 804 1056 803 1046 804 1051 l 804 1061 b 786 1083 804 1076 796 1083 b 772 1081 779 1083 778 1089 b 704 975 760 1065 729 1013 b 654 928 686 947 674 929 b 228 847 511 915 368 889 b -203 553 -106 746 -203 621 l -203 544 b -176 501 -203 518 -190 501 b -158 511 -169 501 -164 504 b -150 525 -153 515 -150 521 l -150 526 b -161 565 -150 539 -161 549 l -161 569 b -151 593 -161 575 -158 583 z m 110 78 l 110 85 b 336 339 128 178 260 289 b 350 344 342 342 347 344 b 354 340 353 344 354 343 b 351 333 354 339 353 336 b 257 99 332 286 272 146 l 257 93 b 276 78 257 83 267 78 b 300 93 286 78 297 83 b 414 379 328 188 379 297 b 924 615 438 436 826 576 b 936 632 932 618 936 625 l 936 635 b 921 654 936 646 931 654 b 915 653 919 654 917 654 b 479 472 768 600 621 546 b 468 468 475 469 471 468 b 463 474 464 468 463 471 b 464 476 463 475 463 475 l 464 481 b 683 867 504 569 628 782 b 725 893 694 883 706 893 l 843 893 b 1386 747 1028 893 1271 881 b 1413 675 1404 725 1413 700 l 1413 664 b 242 17 1385 414 593 17 b 149 29 206 17 174 21 b 110 78 124 38 110 56 z m 599 -168 b 629 -206 599 -185 611 -206 b 672 -144 654 -206 672 -165 b 631 -112 672 -111 654 -107 b 599 -168 614 -121 599 -157 z "},"Ḏ":{"ha":1511,"x_min":0,"x_max":0,"o":"m -151 593 b 603 882 -22 771 397 861 b 624 883 608 882 617 883 b 638 875 631 883 638 882 l 638 872 b 632 857 638 869 636 864 b 401 442 546 722 471 582 b 115 190 376 393 213 333 b 69 85 88 149 74 113 l 69 75 b 238 -26 69 6 138 -26 l 244 -26 b 1451 660 556 -26 1418 358 l 1451 675 b 1399 794 1451 718 1436 757 b 792 936 1268 926 978 936 l 757 936 b 739 946 747 936 739 936 b 746 961 740 950 742 954 b 801 1040 789 1039 782 989 b 804 1056 803 1046 804 1051 l 804 1061 b 786 1083 804 1076 796 1083 b 772 1081 779 1083 778 1089 b 704 975 760 1065 729 1013 b 654 928 686 947 674 929 b 228 847 511 915 368 889 b -203 553 -106 746 -203 621 l -203 544 b -176 501 -203 518 -190 501 b -158 511 -169 501 -164 504 b -150 525 -153 515 -150 521 l -150 526 b -161 565 -150 539 -161 549 l -161 569 b -151 593 -161 575 -158 583 z m 110 78 l 110 85 b 336 339 128 178 260 289 b 350 344 342 342 347 344 b 354 340 353 344 354 343 b 351 333 354 339 353 336 b 257 99 332 286 272 146 l 257 93 b 276 78 257 83 267 78 b 300 93 286 78 297 83 b 414 379 328 188 379 297 b 924 615 438 436 826 576 b 936 632 932 618 936 625 l 936 635 b 921 654 936 646 931 654 b 915 653 919 654 917 654 b 479 472 768 600 621 546 b 468 468 475 469 471 468 b 463 474 464 468 463 471 b 464 476 463 475 463 475 l 464 481 b 683 867 504 569 628 782 b 725 893 694 883 706 893 l 843 893 b 1386 747 1028 893 1271 881 b 1413 675 1404 725 1413 700 l 1413 664 b 242 17 1385 414 593 17 b 149 29 206 17 174 21 b 110 78 124 38 110 56 z m 310 -128 b 369 -129 333 -129 351 -129 l 389 -129 b 558 -128 447 -129 503 -128 l 603 -128 b 803 -136 664 -128 738 -136 l 806 -136 b 865 -117 840 -136 865 -128 b 822 -103 865 -111 851 -104 b 640 -97 761 -99 701 -97 b 389 -104 558 -97 475 -100 b 310 -128 361 -106 324 -106 z "},"E":{"ha":715,"x_min":0,"x_max":0,"o":"m 411 807 b 381 792 399 800 389 796 b -156 251 196 701 -111 485 l -160 229 b -161 206 -161 221 -161 214 b -56 43 -161 138 -132 74 b 7 28 -36 35 -15 31 b 38 26 17 26 26 26 b 572 358 249 26 481 240 b 583 379 579 367 583 372 l 583 382 b 567 399 583 390 575 399 l 563 399 b 550 394 558 399 553 397 b 44 71 443 271 242 71 b 14 72 35 71 24 71 b -43 85 -7 74 -25 78 b -119 197 -90 104 -119 146 b -118 215 -119 203 -118 210 l -118 222 b 596 819 -78 500 399 800 b 625 842 608 821 624 826 b 626 846 626 843 626 844 l 625 849 b 607 867 624 861 617 867 l 603 867 b 571 863 593 867 579 863 b 456 857 535 861 489 857 b 426 858 444 857 435 857 b 410 864 417 858 410 861 l 410 865 b 515 910 410 872 439 886 b 671 939 569 925 628 939 b 688 938 676 939 682 938 b 726 914 710 935 724 928 b 742 903 726 910 733 903 l 744 903 b 761 917 750 903 756 907 b 765 932 764 922 765 926 l 765 936 b 699 979 765 964 726 976 b 689 981 696 981 693 981 l 682 981 b 389 904 581 981 482 953 b 349 856 367 893 349 874 l 349 851 b 369 822 349 839 354 829 b 411 807 381 815 393 813 z "},"É":{"ha":715,"x_min":0,"x_max":0,"o":"m 779 1224 b 660 1097 757 1210 660 1125 b 676 1082 660 1089 665 1082 b 692 1085 681 1082 686 1083 l 775 1174 b 797 1203 781 1181 797 1188 b 796 1213 797 1206 797 1210 b 779 1224 793 1218 786 1219 z m -161 206 b -56 43 -161 138 -132 74 b 7 28 -36 35 -15 31 b 38 26 17 26 26 26 b 572 358 249 26 481 240 b 583 379 579 367 582 372 l 583 382 b 567 399 583 390 575 397 l 563 399 b 550 394 558 399 553 397 b 44 71 443 271 242 71 b 14 72 35 71 24 71 b -43 85 -7 74 -25 78 b -119 197 -90 104 -119 146 b -118 215 -119 203 -118 210 l -118 222 b 596 819 -78 500 399 800 b 625 842 608 821 624 826 b 626 846 626 843 626 844 l 625 849 b 607 867 624 861 617 865 l 603 867 b 571 863 593 867 579 863 b 456 857 535 861 489 857 b 426 858 444 857 435 857 b 410 864 417 858 410 861 l 410 865 b 515 910 410 872 439 886 b 671 939 569 925 628 939 b 688 938 676 939 682 938 b 726 914 710 935 724 928 b 742 903 726 910 733 903 l 744 903 b 761 917 750 903 756 907 b 765 932 764 922 765 926 l 765 936 b 699 979 765 964 726 976 b 689 981 696 981 693 981 l 682 981 b 389 904 581 981 482 953 b 349 856 367 893 350 874 l 349 851 b 369 822 349 839 354 829 b 411 807 381 815 393 813 b 381 792 399 800 389 796 b -156 251 196 701 -108 485 l -160 229 b -161 206 -161 221 -161 214 z "},"Ĕ":{"ha":715,"x_min":0,"x_max":0,"o":"m 504 1046 b 544 1033 515 1039 531 1033 l 549 1033 b 674 1149 617 1033 674 1092 b 667 1182 674 1160 672 1171 b 650 1200 663 1192 656 1200 b 640 1181 644 1200 640 1194 l 640 1178 b 532 1069 640 1119 590 1069 b 483 1124 500 1069 483 1094 b 485 1140 483 1129 483 1135 b 486 1147 486 1143 486 1146 b 464 1176 486 1163 475 1176 b 450 1161 458 1176 453 1172 b 446 1138 447 1154 446 1146 b 504 1046 446 1101 468 1063 z m -161 206 b -56 43 -161 138 -132 74 b 7 28 -36 35 -15 31 b 38 26 17 26 26 26 b 572 358 249 26 481 240 b 583 379 579 367 582 372 l 583 382 b 567 399 583 390 575 397 l 563 399 b 550 394 558 399 553 397 b 44 71 443 271 242 71 b 14 72 35 71 24 71 b -43 85 -7 74 -25 78 b -119 197 -90 104 -119 146 b -118 215 -119 203 -118 210 l -118 222 b 596 819 -78 500 399 800 b 625 842 608 821 624 826 b 626 846 626 843 626 844 l 625 849 b 607 867 624 861 617 865 l 603 867 b 571 863 593 867 579 863 b 456 857 535 861 489 857 b 426 858 444 857 435 857 b 410 864 417 858 410 861 l 410 865 b 515 910 410 872 439 886 b 671 939 569 925 628 939 b 688 938 676 939 682 938 b 726 914 710 935 724 928 b 742 903 726 910 733 903 l 744 903 b 761 917 750 903 756 907 b 765 932 764 922 765 926 l 765 936 b 699 979 765 964 726 976 b 689 981 696 981 693 981 l 682 981 b 389 904 581 981 482 953 b 349 856 367 893 350 874 l 349 851 b 369 822 349 839 354 829 b 411 807 381 815 393 813 b 381 792 399 800 389 796 b -156 251 196 701 -108 485 l -160 229 b -161 206 -161 221 -161 214 z "},"Ȇ":{"ha":715,"x_min":0,"x_max":0,"o":"m 567 1090 b 569 1067 567 1082 568 1075 b 583 1053 572 1057 578 1053 b 607 1083 594 1053 607 1065 l 606 1088 b 603 1106 604 1094 603 1100 b 653 1158 603 1135 624 1158 b 738 1115 690 1158 718 1143 b 761 1050 753 1096 761 1074 l 761 1047 b 769 1029 761 1035 765 1029 b 788 1046 775 1029 783 1038 b 794 1079 792 1057 794 1068 b 668 1196 794 1139 736 1196 l 665 1196 b 567 1090 611 1190 567 1147 z m -161 206 b -56 43 -161 138 -132 74 b 7 28 -36 35 -15 31 b 38 26 17 26 26 26 b 572 358 249 26 481 240 b 583 379 579 367 582 372 l 583 382 b 567 399 583 390 575 397 l 563 399 b 550 394 558 399 553 397 b 44 71 443 271 242 71 b 14 72 35 71 24 71 b -43 85 -7 74 -25 78 b -119 197 -90 104 -119 146 b -118 215 -119 203 -118 210 l -118 222 b 596 819 -78 500 399 800 b 625 842 608 821 624 826 b 626 846 626 843 626 844 l 625 849 b 607 867 624 861 617 865 l 603 867 b 571 863 593 867 579 863 b 456 857 535 861 489 857 b 426 858 444 857 435 857 b 410 864 417 858 410 861 l 410 865 b 515 910 410 872 439 886 b 671 939 569 925 628 939 b 688 938 676 939 682 938 b 726 914 710 935 724 928 b 742 903 726 910 733 903 l 744 903 b 761 917 750 903 756 907 b 765 932 764 922 765 926 l 765 936 b 699 979 765 964 726 976 b 689 981 696 981 693 981 l 682 981 b 389 904 581 981 482 953 b 349 856 367 893 350 874 l 349 851 b 369 822 349 839 354 829 b 411 807 381 815 393 813 b 381 792 399 800 389 796 b -156 251 196 701 -108 485 l -160 229 b -161 206 -161 221 -161 214 z "},"Ě":{"ha":715,"x_min":0,"x_max":0,"o":"m 568 1018 b 607 1043 581 1018 593 1026 b 707 1171 685 1132 707 1154 b 700 1181 707 1176 704 1181 b 681 1169 696 1181 689 1178 b 594 1074 669 1160 640 1125 b 574 1063 590 1068 582 1063 b 453 1157 547 1065 474 1136 b 433 1165 447 1161 442 1165 b 418 1153 425 1165 419 1161 b 417 1149 418 1151 417 1150 b 418 1146 417 1147 418 1147 b 536 1032 438 1110 504 1057 b 568 1018 547 1022 558 1018 z m -161 206 b -56 43 -161 138 -132 74 b 7 28 -36 35 -15 31 b 38 26 17 26 26 26 b 572 358 249 26 481 240 b 583 379 579 367 582 372 l 583 382 b 567 399 583 390 575 397 l 563 399 b 550 394 558 399 553 397 b 44 71 443 271 242 71 b 14 72 35 71 24 71 b -43 85 -7 74 -25 78 b -119 197 -90 104 -119 146 b -118 215 -119 203 -118 210 l -118 222 b 596 819 -78 500 399 800 b 625 842 608 821 624 826 b 626 846 626 843 626 844 l 625 849 b 607 867 624 861 617 865 l 603 867 b 571 863 593 867 579 863 b 456 857 535 861 489 857 b 426 858 444 857 435 857 b 410 864 417 858 410 861 l 410 865 b 515 910 410 872 439 886 b 671 939 569 925 628 939 b 688 938 676 939 682 938 b 726 914 710 935 724 928 b 742 903 726 910 733 903 l 744 903 b 761 917 750 903 756 907 b 765 932 764 922 765 926 l 765 936 b 699 979 765 964 726 976 b 689 981 696 981 693 981 l 682 981 b 389 904 581 981 482 953 b 349 856 367 893 350 874 l 349 851 b 369 822 349 839 354 829 b 411 807 381 815 393 813 b 381 792 399 800 389 796 b -156 251 196 701 -108 485 l -160 229 b -161 206 -161 221 -161 214 z "},"Ȩ":{"ha":715,"x_min":0,"x_max":0,"o":"m 411 807 b 381 792 399 800 389 796 b -156 251 196 701 -111 485 l -160 229 b -161 206 -161 221 -161 214 b -56 43 -161 138 -132 74 b -43 39 -51 42 -47 40 b -94 -8 -81 19 -94 3 b -40 -42 -94 -24 -68 -33 b 6 -54 -11 -47 6 -49 b -37 -82 6 -58 -7 -68 b -115 -122 -64 -96 -94 -108 b -122 -135 -119 -126 -122 -131 b -99 -151 -122 -143 -112 -151 b 60 -51 -68 -151 60 -78 b 17 -21 60 -39 46 -31 b -35 -1 -21 -8 -35 -6 b 8 28 -35 1 -12 4 b 38 26 18 26 28 26 b 572 358 249 26 481 240 b 583 379 579 367 583 372 l 583 382 b 567 399 583 390 575 399 l 563 399 b 550 394 558 399 553 397 b 44 71 443 271 242 71 b 14 72 35 71 24 71 b -43 85 -7 74 -25 78 b -119 197 -90 104 -119 146 b -118 215 -119 203 -118 210 l -118 222 b 596 819 -78 500 399 800 b 625 842 608 821 624 826 b 626 846 626 843 626 844 l 625 849 b 607 867 624 861 617 867 l 603 867 b 571 863 593 867 579 863 b 456 857 535 861 489 857 b 426 858 444 857 435 857 b 410 864 417 858 410 861 l 410 865 b 515 910 410 872 439 886 b 671 939 569 925 628 939 b 688 938 676 939 682 938 b 726 914 710 935 724 928 b 742 903 726 910 733 903 l 744 903 b 761 917 750 903 756 907 b 765 932 764 922 765 926 l 765 936 b 699 979 765 964 726 976 b 689 981 696 981 693 981 l 682 981 b 389 904 581 981 482 953 b 349 856 367 893 349 874 l 349 851 b 369 822 349 839 354 829 b 411 807 381 815 393 813 z "},"Ê":{"ha":715,"x_min":0,"x_max":0,"o":"m 731 1199 l 768 1082 b 786 1068 771 1072 779 1068 b 804 1088 796 1068 804 1075 b 803 1099 804 1090 804 1094 b 738 1242 769 1192 765 1242 b 592 1138 715 1242 676 1208 b 582 1118 585 1132 582 1124 b 599 1099 582 1107 590 1099 b 606 1100 601 1099 603 1099 b 731 1199 621 1106 668 1160 z m -161 206 b -56 43 -161 138 -132 74 b 7 28 -36 35 -15 31 b 38 26 17 26 26 26 b 572 358 249 26 481 240 b 583 379 579 367 582 372 l 583 382 b 567 399 583 390 575 397 l 563 399 b 550 394 558 399 553 397 b 44 71 443 271 242 71 b 14 72 35 71 24 71 b -43 85 -7 74 -25 78 b -119 197 -90 104 -119 146 b -118 215 -119 203 -118 210 l -118 222 b 596 819 -78 500 399 800 b 625 842 608 821 624 826 b 626 846 626 843 626 844 l 625 849 b 607 867 624 861 617 865 l 603 867 b 571 863 593 867 579 863 b 456 857 535 861 489 857 b 426 858 444 857 435 857 b 410 864 417 858 410 861 l 410 865 b 515 910 410 872 439 886 b 671 939 569 925 628 939 b 688 938 676 939 682 938 b 726 914 710 935 724 928 b 742 903 726 910 733 903 l 744 903 b 761 917 750 903 756 907 b 765 932 764 922 765 926 l 765 936 b 699 979 765 964 726 976 b 689 981 696 981 693 981 l 682 981 b 389 904 581 981 482 953 b 349 856 367 893 350 874 l 349 851 b 369 822 349 839 354 829 b 411 807 381 815 393 813 b 381 792 399 800 389 796 b -156 251 196 701 -108 485 l -160 229 b -161 206 -161 221 -161 214 z "},"Ế":{"ha":715,"x_min":0,"x_max":0,"o":"m 411 807 b 381 792 399 800 389 796 b -156 251 196 701 -111 485 l -160 229 b -161 206 -161 221 -161 214 b -56 43 -161 138 -132 74 b 7 28 -36 35 -15 31 b 38 26 17 26 26 26 b 572 358 249 26 481 240 b 583 379 579 367 583 372 l 583 382 b 567 399 583 390 575 399 l 563 399 b 550 394 558 399 553 397 b 44 71 443 271 242 71 b 14 72 35 71 24 71 b -43 85 -7 74 -25 78 b -119 197 -90 104 -119 146 b -118 215 -119 203 -118 210 l -118 222 b 596 819 -78 500 399 800 b 625 842 608 821 624 826 b 626 846 626 843 626 844 l 625 849 b 607 867 624 861 617 867 l 603 867 b 571 863 593 867 579 863 b 456 857 535 861 489 857 b 426 858 444 857 435 857 b 410 864 417 858 410 861 l 410 865 b 515 910 410 872 439 886 b 671 939 569 925 628 939 b 688 938 676 939 682 938 b 726 914 710 935 724 928 b 742 903 726 910 733 903 l 744 903 b 761 917 750 903 756 907 b 765 932 764 922 765 926 l 765 936 b 699 979 765 964 726 976 b 689 981 696 981 693 981 l 682 981 b 389 904 581 981 482 953 b 349 856 367 893 349 874 l 349 851 b 369 822 349 839 354 829 b 411 807 381 815 393 813 z m 592 1072 b 610 1053 592 1061 600 1053 b 615 1054 611 1053 614 1053 b 740 1153 632 1060 678 1114 l 778 1036 b 797 1022 781 1026 789 1022 b 815 1042 806 1022 815 1029 b 813 1053 815 1044 814 1049 b 747 1196 781 1146 776 1196 b 603 1092 725 1196 686 1163 b 592 1072 594 1086 592 1078 z m 732 1256 b 749 1240 732 1247 738 1240 b 764 1243 753 1240 758 1242 l 847 1332 b 869 1361 853 1339 869 1346 b 868 1371 869 1364 869 1368 b 851 1382 865 1376 858 1378 b 732 1256 829 1368 732 1283 z "},"Ệ":{"ha":715,"x_min":0,"x_max":0,"o":"m 411 807 b 381 792 399 800 389 796 b -156 251 196 701 -111 485 l -160 229 b -161 206 -161 221 -161 214 b -56 43 -161 138 -132 74 b 7 28 -36 35 -15 31 b 38 26 17 26 26 26 b 572 358 249 26 481 240 b 583 379 579 367 583 372 l 583 382 b 567 399 583 390 575 399 l 563 399 b 550 394 558 399 553 397 b 44 71 443 271 242 71 b 14 72 35 71 24 71 b -43 85 -7 74 -25 78 b -119 197 -90 104 -119 146 b -118 215 -119 203 -118 210 l -118 222 b 596 819 -78 500 399 800 b 625 842 608 821 624 826 b 626 846 626 843 626 844 l 625 849 b 607 867 624 861 617 867 l 603 867 b 571 863 593 867 579 863 b 456 857 535 861 489 857 b 426 858 444 857 435 857 b 410 864 417 858 410 861 l 410 865 b 515 910 410 872 439 886 b 671 939 569 925 628 939 b 688 938 676 939 682 938 b 726 914 710 935 724 928 b 742 903 726 910 733 903 l 744 903 b 761 917 750 903 756 907 b 765 932 764 922 765 926 l 765 936 b 699 979 765 964 726 976 b 689 981 696 981 693 981 l 682 981 b 389 904 581 981 482 953 b 349 856 367 893 349 874 l 349 851 b 369 822 349 839 354 829 b 411 807 381 815 393 813 z m -44 -221 b -14 -258 -44 -237 -32 -258 b 29 -197 11 -258 29 -218 b -12 -165 29 -164 11 -160 b -44 -221 -29 -174 -44 -210 z m 554 1069 b 572 1050 554 1058 563 1050 b 578 1051 574 1050 576 1050 b 703 1150 594 1057 640 1111 l 740 1033 b 760 1019 743 1024 751 1019 b 778 1039 768 1019 778 1026 b 775 1050 778 1042 776 1046 b 710 1193 743 1143 739 1193 b 565 1089 688 1193 649 1160 b 554 1069 557 1083 554 1075 z "},"Ề":{"ha":715,"x_min":0,"x_max":0,"o":"m 411 807 b 381 792 399 800 389 796 b -156 251 196 701 -111 485 l -160 229 b -161 206 -161 221 -161 214 b -56 43 -161 138 -132 74 b 7 28 -36 35 -15 31 b 38 26 17 26 26 26 b 572 358 249 26 481 240 b 583 379 579 367 583 372 l 583 382 b 567 399 583 390 575 399 l 563 399 b 550 394 558 399 553 397 b 44 71 443 271 242 71 b 14 72 35 71 24 71 b -43 85 -7 74 -25 78 b -119 197 -90 104 -119 146 b -118 215 -119 203 -118 210 l -118 222 b 596 819 -78 500 399 800 b 625 842 608 821 624 826 b 626 846 626 843 626 844 l 625 849 b 607 867 624 861 617 867 l 603 867 b 571 863 593 867 579 863 b 456 857 535 861 489 857 b 426 858 444 857 435 857 b 410 864 417 858 410 861 l 410 865 b 515 910 410 872 439 886 b 671 939 569 925 628 939 b 688 938 676 939 682 938 b 726 914 710 935 724 928 b 742 903 726 910 733 903 l 744 903 b 761 917 750 903 756 907 b 765 932 764 922 765 926 l 765 936 b 699 979 765 964 726 976 b 689 981 696 981 693 981 l 682 981 b 389 904 581 981 482 953 b 349 856 367 893 349 874 l 349 851 b 369 822 349 839 354 829 b 411 807 381 815 393 813 z m 554 1069 b 572 1050 554 1058 563 1050 b 578 1051 574 1050 576 1050 b 703 1150 594 1057 640 1111 l 740 1033 b 760 1019 743 1024 751 1019 b 778 1039 768 1019 778 1026 b 775 1050 778 1042 776 1046 b 710 1193 743 1143 739 1193 b 565 1089 688 1193 649 1160 b 554 1069 557 1083 554 1075 z m 718 1363 b 772 1267 718 1336 758 1288 b 792 1254 778 1257 785 1254 b 810 1272 801 1254 810 1261 b 806 1286 810 1276 808 1281 l 756 1368 b 740 1379 751 1374 743 1376 b 718 1363 725 1379 718 1372 z "},"Ể":{"ha":715,"x_min":0,"x_max":0,"o":"m 411 807 b 381 792 399 800 389 796 b -156 251 196 701 -111 485 l -160 229 b -161 206 -161 221 -161 214 b -56 43 -161 138 -132 74 b 7 28 -36 35 -15 31 b 38 26 17 26 26 26 b 572 358 249 26 481 240 b 583 379 579 367 583 372 l 583 382 b 567 399 583 390 575 399 l 563 399 b 550 394 558 399 553 397 b 44 71 443 271 242 71 b 14 72 35 71 24 71 b -43 85 -7 74 -25 78 b -119 197 -90 104 -119 146 b -118 215 -119 203 -118 210 l -118 222 b 596 819 -78 500 399 800 b 625 842 608 821 624 826 b 626 846 626 843 626 844 l 625 849 b 607 867 624 861 617 867 l 603 867 b 571 863 593 867 579 863 b 456 857 535 861 489 857 b 426 858 444 857 435 857 b 410 864 417 858 410 861 l 410 865 b 515 910 410 872 439 886 b 671 939 569 925 628 939 b 688 938 676 939 682 938 b 726 914 710 935 724 928 b 742 903 726 910 733 903 l 744 903 b 761 917 750 903 756 907 b 765 932 764 922 765 926 l 765 936 b 699 979 765 964 726 976 b 689 981 696 981 693 981 l 682 981 b 389 904 581 981 482 953 b 349 856 367 893 349 874 l 349 851 b 369 822 349 839 354 829 b 411 807 381 815 393 813 z m 554 1069 b 572 1050 554 1058 563 1050 b 578 1051 574 1050 576 1050 b 703 1150 594 1057 640 1111 l 740 1033 b 760 1019 743 1024 751 1019 b 778 1039 768 1019 778 1026 b 775 1050 778 1042 776 1046 b 710 1193 743 1143 739 1193 b 565 1089 688 1193 649 1160 b 554 1069 557 1083 554 1075 z m 728 1226 b 746 1213 728 1221 736 1214 b 774 1210 754 1211 764 1210 b 935 1308 836 1210 913 1249 l 935 1311 b 807 1397 935 1324 910 1385 b 779 1394 797 1397 788 1396 b 761 1383 767 1393 761 1388 b 793 1356 761 1374 775 1356 b 803 1357 796 1356 800 1356 b 822 1358 810 1357 817 1358 b 889 1314 856 1354 889 1329 b 756 1242 888 1292 832 1242 l 746 1242 b 728 1228 731 1242 728 1232 z "},"Ễ":{"ha":715,"x_min":0,"x_max":0,"o":"m 411 807 b 381 792 399 800 389 796 b -156 251 196 701 -111 485 l -160 229 b -161 206 -161 221 -161 214 b -56 43 -161 138 -132 74 b 7 28 -36 35 -15 31 b 38 26 17 26 26 26 b 572 358 249 26 481 240 b 583 379 579 367 583 372 l 583 382 b 567 399 583 390 575 399 l 563 399 b 550 394 558 399 553 397 b 44 71 443 271 242 71 b 14 72 35 71 24 71 b -43 85 -7 74 -25 78 b -119 197 -90 104 -119 146 b -118 215 -119 203 -118 210 l -118 222 b 596 819 -78 500 399 800 b 625 842 608 821 624 826 b 626 846 626 843 626 844 l 625 849 b 607 867 624 861 617 867 l 603 867 b 571 863 593 867 579 863 b 456 857 535 861 489 857 b 426 858 444 857 435 857 b 410 864 417 858 410 861 l 410 865 b 515 910 410 872 439 886 b 671 939 569 925 628 939 b 688 938 676 939 682 938 b 726 914 710 935 724 928 b 742 903 726 910 733 903 l 744 903 b 761 917 750 903 756 907 b 765 932 764 922 765 926 l 765 936 b 699 979 765 964 726 976 b 689 981 696 981 693 981 l 682 981 b 389 904 581 981 482 953 b 349 856 367 893 349 874 l 349 851 b 369 822 349 839 354 829 b 411 807 381 815 393 813 z m 579 1050 b 597 1031 579 1039 588 1031 b 603 1032 599 1031 601 1031 b 728 1131 619 1038 665 1092 l 765 1014 b 785 1000 768 1004 776 1000 b 803 1019 793 1000 803 1007 b 800 1031 803 1022 801 1026 b 735 1174 768 1124 764 1174 b 590 1069 713 1174 674 1140 b 579 1050 582 1064 579 1056 z m 649 1288 b 654 1276 649 1283 650 1279 b 671 1269 660 1272 665 1269 b 713 1304 692 1269 706 1299 b 749 1318 726 1314 739 1318 b 832 1274 781 1318 793 1274 b 846 1276 836 1274 842 1275 b 928 1346 899 1289 928 1326 b 917 1357 928 1353 924 1357 b 876 1338 908 1357 894 1351 b 832 1317 856 1322 842 1317 b 764 1360 803 1317 801 1360 l 758 1360 b 649 1288 711 1360 649 1314 z "},"Ë":{"ha":715,"x_min":0,"x_max":0,"o":"m 622 1157 l 619 1157 b 583 1114 593 1139 583 1124 b 613 1092 583 1100 599 1092 b 651 1136 635 1092 651 1115 b 622 1157 651 1149 644 1157 z m -161 206 b -56 43 -161 138 -132 74 b 7 28 -36 35 -15 31 b 38 26 17 26 26 26 b 572 358 249 26 481 240 b 583 379 579 367 582 372 l 583 382 b 567 399 583 390 575 397 l 563 399 b 550 394 558 399 553 397 b 44 71 443 271 242 71 b 14 72 35 71 24 71 b -43 85 -7 74 -25 78 b -119 197 -90 104 -119 146 b -118 215 -119 203 -118 210 l -118 222 b 596 819 -78 500 399 800 b 625 842 608 821 624 826 b 626 846 626 843 626 844 l 625 849 b 607 867 624 861 617 865 l 603 867 b 571 863 593 867 579 863 b 456 857 535 861 489 857 b 426 858 444 857 435 857 b 410 864 417 858 410 861 l 410 865 b 515 910 410 872 439 886 b 671 939 569 925 628 939 b 688 938 676 939 682 938 b 726 914 710 935 724 928 b 742 903 726 910 733 903 l 744 903 b 761 917 750 903 756 907 b 765 932 764 922 765 926 l 765 936 b 699 979 765 964 726 976 b 689 981 696 981 693 981 l 682 981 b 389 904 581 981 482 953 b 349 856 367 893 350 874 l 349 851 b 369 822 349 839 354 829 b 411 807 381 815 393 813 b 381 792 399 800 389 796 b -156 251 196 701 -108 485 l -160 229 b -161 206 -161 221 -161 214 z m 715 1106 b 742 1075 715 1085 728 1075 b 775 1121 757 1075 775 1090 l 775 1122 b 754 1146 775 1139 765 1146 b 715 1106 736 1146 715 1131 z "},"Ė":{"ha":715,"x_min":0,"x_max":0,"o":"m 608 1124 b 578 1075 592 1117 582 1097 b 576 1068 576 1072 576 1071 b 585 1043 576 1060 579 1050 b 607 1031 590 1035 599 1031 b 631 1044 615 1031 625 1036 b 650 1092 642 1064 649 1071 l 650 1097 b 624 1128 650 1119 638 1128 b 608 1124 618 1128 614 1126 z m -161 206 b -56 43 -161 138 -132 74 b 7 28 -36 35 -15 31 b 38 26 17 26 26 26 b 572 358 249 26 481 240 b 583 379 579 367 582 372 l 583 382 b 567 399 583 390 575 397 l 563 399 b 550 394 558 399 553 397 b 44 71 443 271 242 71 b 14 72 35 71 24 71 b -43 85 -7 74 -25 78 b -119 197 -90 104 -119 146 b -118 215 -119 203 -118 210 l -118 222 b 596 819 -78 500 399 800 b 625 842 608 821 624 826 b 626 846 626 843 626 844 l 625 849 b 607 867 624 861 617 865 l 603 867 b 571 863 593 867 579 863 b 456 857 535 861 489 857 b 426 858 444 857 435 857 b 410 864 417 858 410 861 l 410 865 b 515 910 410 872 439 886 b 671 939 569 925 628 939 b 688 938 676 939 682 938 b 726 914 710 935 724 928 b 742 903 726 910 733 903 l 744 903 b 761 917 750 903 756 907 b 765 932 764 922 765 926 l 765 936 b 699 979 765 964 726 976 b 689 981 696 981 693 981 l 682 981 b 389 904 581 981 482 953 b 349 856 367 893 350 874 l 349 851 b 369 822 349 839 354 829 b 411 807 381 815 393 813 b 381 792 399 800 389 796 b -156 251 196 701 -108 485 l -160 229 b -161 206 -161 221 -161 214 z "},"Ẹ":{"ha":715,"x_min":0,"x_max":0,"o":"m 411 807 b 381 792 399 800 389 796 b -156 251 196 701 -111 485 l -160 229 b -161 206 -161 221 -161 214 b -56 43 -161 138 -132 74 b 7 28 -36 35 -15 31 b 38 26 17 26 26 26 b 572 358 249 26 481 240 b 583 379 579 367 583 372 l 583 382 b 567 399 583 390 575 399 l 563 399 b 550 394 558 399 553 397 b 44 71 443 271 242 71 b 14 72 35 71 24 71 b -43 85 -7 74 -25 78 b -119 197 -90 104 -119 146 b -118 215 -119 203 -118 210 l -118 222 b 596 819 -78 500 399 800 b 625 842 608 821 624 826 b 626 846 626 843 626 844 l 625 849 b 607 867 624 861 617 867 l 603 867 b 571 863 593 867 579 863 b 456 857 535 861 489 857 b 426 858 444 857 435 857 b 410 864 417 858 410 861 l 410 865 b 515 910 410 872 439 886 b 671 939 569 925 628 939 b 688 938 676 939 682 938 b 726 914 710 935 724 928 b 742 903 726 910 733 903 l 744 903 b 761 917 750 903 756 907 b 765 932 764 922 765 926 l 765 936 b 699 979 765 964 726 976 b 689 981 696 981 693 981 l 682 981 b 389 904 581 981 482 953 b 349 856 367 893 349 874 l 349 851 b 369 822 349 839 354 829 b 411 807 381 815 393 813 z m -44 -221 b -14 -258 -44 -237 -32 -258 b 29 -197 11 -258 29 -218 b -12 -165 29 -164 11 -160 b -44 -221 -29 -174 -44 -210 z "},"Ȅ":{"ha":715,"x_min":0,"x_max":0,"o":"m 665 1031 b 672 1042 671 1033 671 1038 b 671 1051 672 1046 672 1049 b 658 1100 668 1068 664 1085 b 593 1208 640 1139 619 1174 b 581 1217 589 1213 586 1217 l 578 1217 b 569 1214 575 1217 572 1215 b 558 1196 563 1210 558 1203 l 558 1193 l 563 1185 b 647 1036 597 1139 632 1092 b 654 1028 649 1032 649 1029 l 658 1028 b 665 1031 661 1029 665 1029 z m -161 206 b -56 43 -161 138 -132 74 b 7 28 -36 35 -15 31 b 38 26 17 26 26 26 b 572 358 249 26 481 240 b 583 379 579 367 582 372 l 583 382 b 567 399 583 390 575 397 l 563 399 b 550 394 558 399 553 397 b 44 71 443 271 242 71 b 14 72 35 71 24 71 b -43 85 -7 74 -25 78 b -119 197 -90 104 -119 146 b -118 215 -119 203 -118 210 l -118 222 b 596 819 -78 500 399 800 b 625 842 608 821 624 826 b 626 846 626 843 626 844 l 625 849 b 607 867 624 861 617 865 l 603 867 b 571 863 593 867 579 863 b 456 857 535 861 489 857 b 426 858 444 857 435 857 b 410 864 417 858 410 861 l 410 865 b 515 910 410 872 439 886 b 671 939 569 925 628 939 b 688 938 676 939 682 938 b 726 914 710 935 724 928 b 742 903 726 910 733 903 l 744 903 b 761 917 750 903 756 907 b 765 932 764 922 765 926 l 765 936 b 699 979 765 964 726 976 b 689 981 696 981 693 981 l 682 981 b 389 904 581 981 482 953 b 349 856 367 893 350 874 l 349 851 b 369 822 349 839 354 829 b 411 807 381 815 393 813 b 381 792 399 800 389 796 b -156 251 196 701 -108 485 l -160 229 b -161 206 -161 221 -161 214 z m 458 1190 b 460 1186 458 1189 460 1188 b 464 1176 460 1182 461 1179 b 560 1036 503 1138 540 1088 b 567 1028 561 1032 561 1029 l 572 1028 b 578 1032 574 1029 578 1031 b 583 1043 582 1033 583 1039 b 582 1053 583 1046 583 1049 b 565 1100 578 1068 572 1085 b 519 1172 551 1125 535 1149 l 492 1203 b 479 1211 488 1207 485 1211 l 476 1211 l 468 1207 b 458 1190 463 1203 458 1196 z "},"È":{"ha":715,"x_min":0,"x_max":0,"o":"m 617 1199 b 593 1182 600 1199 593 1192 b 667 1072 593 1164 644 1072 b 685 1090 676 1072 685 1081 b 681 1104 685 1094 683 1100 b 631 1186 665 1132 649 1160 b 617 1199 626 1193 619 1196 z m -161 206 b -56 43 -161 138 -132 74 b 7 28 -36 35 -15 31 b 38 26 17 26 26 26 b 572 358 249 26 481 240 b 583 379 579 367 582 372 l 583 382 b 567 399 583 390 575 397 l 563 399 b 550 394 558 399 553 397 b 44 71 443 271 242 71 b 14 72 35 71 24 71 b -43 85 -7 74 -25 78 b -119 197 -90 104 -119 146 b -118 215 -119 203 -118 210 l -118 222 b 596 819 -78 500 399 800 b 625 842 608 821 624 826 b 626 846 626 843 626 844 l 625 849 b 607 867 624 861 617 865 l 603 867 b 571 863 593 867 579 863 b 456 857 535 861 489 857 b 426 858 444 857 435 857 b 410 864 417 858 410 861 l 410 865 b 515 910 410 872 439 886 b 671 939 569 925 628 939 b 688 938 676 939 682 938 b 726 914 710 935 724 928 b 742 903 726 910 733 903 l 744 903 b 761 917 750 903 756 907 b 765 932 764 922 765 926 l 765 936 b 699 979 765 964 726 976 b 689 981 696 981 693 981 l 682 981 b 389 904 581 981 482 953 b 349 856 367 893 350 874 l 349 851 b 369 822 349 839 354 829 b 411 807 381 815 393 813 b 381 792 399 800 389 796 b -156 251 196 701 -108 485 l -160 229 b -161 206 -161 221 -161 214 z "},"Ẻ":{"ha":715,"x_min":0,"x_max":0,"o":"m 411 807 b 381 792 399 800 389 796 b -156 251 196 701 -111 485 l -160 229 b -161 206 -161 221 -161 214 b -56 43 -161 138 -132 74 b 7 28 -36 35 -15 31 b 38 26 17 26 26 26 b 572 358 249 26 481 240 b 583 379 579 367 583 372 l 583 382 b 567 399 583 390 575 399 l 563 399 b 550 394 558 399 553 397 b 44 71 443 271 242 71 b 14 72 35 71 24 71 b -43 85 -7 74 -25 78 b -119 197 -90 104 -119 146 b -118 215 -119 203 -118 210 l -118 222 b 596 819 -78 500 399 800 b 625 842 608 821 624 826 b 626 846 626 843 626 844 l 625 849 b 607 867 624 861 617 867 l 603 867 b 571 863 593 867 579 863 b 456 857 535 861 489 857 b 426 858 444 857 435 857 b 410 864 417 858 410 861 l 410 865 b 515 910 410 872 439 886 b 671 939 569 925 628 939 b 688 938 676 939 682 938 b 726 914 710 935 724 928 b 742 903 726 910 733 903 l 744 903 b 761 917 750 903 756 907 b 765 932 764 922 765 926 l 765 936 b 699 979 765 964 726 976 b 689 981 696 981 693 981 l 682 981 b 389 904 581 981 482 953 b 349 856 367 893 349 874 l 349 851 b 369 822 349 839 354 829 b 411 807 381 815 393 813 z m 631 1038 b 649 1024 631 1032 639 1025 b 676 1021 657 1022 667 1021 b 838 1119 739 1021 815 1060 l 838 1122 b 710 1208 838 1135 813 1196 b 682 1206 700 1208 690 1207 b 664 1194 669 1204 664 1199 b 696 1167 664 1185 678 1167 b 706 1168 699 1167 703 1167 b 725 1169 713 1168 719 1169 b 792 1125 758 1165 792 1140 b 658 1053 790 1103 735 1053 l 649 1053 b 631 1039 633 1053 631 1043 z "},"Ē":{"ha":715,"x_min":0,"x_max":0,"o":"m 556 1063 b 524 1042 543 1061 529 1061 b 546 1040 532 1040 539 1040 l 556 1040 b 624 1042 578 1040 600 1042 l 640 1042 b 721 1033 667 1042 696 1035 l 722 1033 b 746 1051 736 1033 746 1042 b 731 1064 746 1057 742 1063 b 657 1069 706 1068 681 1069 b 556 1063 622 1069 589 1067 z m -161 206 b -56 43 -161 138 -132 74 b 7 28 -36 35 -15 31 b 38 26 17 26 26 26 b 572 358 249 26 481 240 b 583 379 579 367 582 372 l 583 382 b 567 399 583 390 575 397 l 563 399 b 550 394 558 399 553 397 b 44 71 443 271 242 71 b 14 72 35 71 24 71 b -43 85 -7 74 -25 78 b -119 197 -90 104 -119 146 b -118 215 -119 203 -118 210 l -118 222 b 596 819 -78 500 399 800 b 625 842 608 821 624 826 b 626 846 626 843 626 844 l 625 849 b 607 867 624 861 617 865 l 603 867 b 571 863 593 867 579 863 b 456 857 535 861 489 857 b 426 858 444 857 435 857 b 410 864 417 858 410 861 l 410 865 b 515 910 410 872 439 886 b 671 939 569 925 628 939 b 688 938 676 939 682 938 b 726 914 710 935 724 928 b 742 903 726 910 733 903 l 744 903 b 761 917 750 903 756 907 b 765 932 764 922 765 926 l 765 936 b 699 979 765 964 726 976 b 689 981 696 981 693 981 l 682 981 b 389 904 581 981 482 953 b 349 856 367 893 350 874 l 349 851 b 369 822 349 839 354 829 b 411 807 381 815 393 813 b 381 792 399 800 389 796 b -156 251 196 701 -108 485 l -160 229 b -161 206 -161 221 -161 214 z "},"Ę":{"ha":715,"x_min":0,"x_max":0,"o":"m 411 807 b 381 792 399 800 389 796 b -156 251 196 701 -108 485 l -160 229 b -161 206 -161 221 -161 214 b -56 43 -161 138 -132 74 b -7 29 -40 36 -24 32 b -32 -11 -18 18 -26 4 b -37 -47 -35 -21 -37 -35 l -37 -57 b 83 -165 -28 -119 29 -165 b 97 -164 89 -165 93 -164 b 129 -151 108 -162 119 -158 b 143 -133 136 -147 143 -139 l 143 -132 b 131 -125 142 -129 139 -125 b 124 -126 129 -125 126 -126 l 121 -126 b 106 -128 115 -128 110 -128 b 53 -114 88 -128 69 -122 b -3 -36 24 -99 3 -74 b -4 -26 -3 -32 -4 -29 b 11 7 -4 -12 1 -1 b 43 22 21 15 31 21 l 68 22 b 83 29 74 24 79 26 b 572 358 281 57 488 249 b 583 379 579 367 582 372 l 583 382 b 567 399 583 390 575 397 l 563 399 b 550 394 558 399 553 397 b 44 71 443 271 242 71 b 14 72 35 71 24 71 b -43 85 -7 74 -25 78 b -119 197 -90 104 -119 146 b -118 215 -119 203 -118 210 l -118 222 b 596 819 -78 500 399 800 b 625 842 608 821 624 826 b 626 846 626 843 626 844 l 625 849 b 607 867 624 861 617 865 l 603 867 b 571 863 593 867 579 863 b 456 857 535 861 489 857 b 426 858 444 857 435 857 b 410 864 417 858 410 861 l 410 865 b 515 910 410 872 439 886 b 671 939 569 925 628 939 b 688 938 676 939 682 938 b 726 914 710 935 724 928 b 742 903 726 910 733 903 l 744 903 b 761 917 750 903 756 907 b 765 932 764 922 765 926 l 765 936 b 699 979 765 964 726 976 b 689 981 696 981 693 981 l 682 981 b 389 904 581 981 482 953 b 349 856 367 893 350 874 l 349 851 b 369 822 349 839 354 829 b 411 807 381 815 393 813 z "},"Ɛ":{"ha":715,"x_min":0,"x_max":0,"o":"m 411 807 b 381 792 399 800 389 796 b -156 251 196 701 -111 485 l -160 229 b -161 206 -161 221 -161 214 b -56 43 -161 138 -132 74 b 7 28 -36 35 -15 31 b 38 26 17 26 26 26 b 572 358 249 26 481 240 b 583 379 579 367 583 372 l 583 382 b 567 399 583 390 575 399 l 563 399 b 550 394 558 399 553 397 b 44 71 443 271 242 71 b 14 72 35 71 24 71 b -43 85 -7 74 -25 78 b -119 197 -90 104 -119 146 b -118 215 -119 203 -118 210 l -118 222 b 596 819 -78 500 399 800 b 625 842 608 821 624 826 b 626 846 626 843 626 844 l 625 849 b 607 867 624 861 617 867 l 603 867 b 571 863 593 867 579 863 b 456 857 535 861 489 857 b 426 858 444 857 435 857 b 410 864 417 858 410 861 l 410 865 b 515 910 410 872 439 886 b 671 939 569 925 628 939 b 688 938 676 939 682 938 b 726 914 710 935 724 928 b 742 903 726 910 733 903 l 744 903 b 761 917 750 903 756 907 b 765 932 764 922 765 926 l 765 936 b 699 979 765 964 726 976 b 689 981 696 981 693 981 l 682 981 b 389 904 581 981 482 953 b 349 856 367 893 349 874 l 349 851 b 369 822 349 839 354 829 b 411 807 381 815 393 813 z "},"Ǝ":{"ha":715,"x_min":0,"x_max":0,"o":"m 226 217 b 257 232 239 224 249 228 b 793 772 442 322 749 539 l 797 794 b 799 818 799 803 799 810 b 693 981 799 886 769 950 b 631 996 674 989 653 993 b 600 997 621 997 611 997 b 65 665 389 997 157 783 b 54 644 58 657 54 651 l 54 642 b 71 625 54 633 63 625 l 75 625 b 88 629 79 625 85 626 b 593 953 194 753 396 953 b 624 951 603 953 614 953 b 681 939 644 950 663 946 b 757 826 728 919 757 878 b 756 808 757 821 756 814 l 756 801 b 42 204 715 524 239 224 b 13 182 29 203 14 197 b 11 178 11 181 11 179 l 13 175 b 31 157 14 163 21 157 l 35 157 b 67 161 44 157 58 161 b 182 167 103 163 149 167 b 211 165 193 167 203 167 b 228 160 221 165 228 163 l 228 158 b 122 114 228 151 199 138 b -33 85 68 99 10 85 b -50 86 -39 85 -44 86 b -89 110 -72 89 -86 96 b -104 121 -89 114 -96 121 l -107 121 b -124 107 -112 121 -118 117 b -128 92 -126 101 -128 97 l -128 88 b -61 44 -128 60 -89 47 b -51 43 -58 43 -56 43 l -44 43 b 249 119 57 43 156 71 b 289 168 271 131 289 150 l 289 172 b 268 201 289 185 283 194 b 226 217 257 208 244 211 z "},"Ʃ":{"ha":1364,"x_min":0,"x_max":0,"o":"m 1182 928 b 1238 943 1156 886 1193 863 b 1326 986 1250 965 1301 978 b 1363 1026 1351 993 1363 1011 b 1331 1058 1363 1044 1350 1058 b 1283 1043 1318 1058 1303 1054 b 1213 999 1256 1026 1235 1007 b 875 971 1164 978 1043 971 b 714 983 813 971 754 983 b 694 961 701 983 694 972 b 936 550 706 938 896 621 b 760 321 897 483 794 364 b 710 288 738 294 731 288 b 554 299 701 288 610 299 b 15 -7 208 299 15 115 b 128 -108 15 -62 53 -108 b 722 224 346 -108 606 106 b 775 239 740 244 763 242 b 1275 99 871 210 1201 110 b 1326 93 1294 94 1311 93 b 1422 133 1399 93 1422 115 b 1403 153 1422 146 1414 153 b 1318 138 1399 153 1351 138 b 799 271 1175 138 904 244 b 789 293 783 274 778 282 b 875 396 817 328 846 361 b 985 549 910 438 953 503 l 749 940 b 892 936 786 938 854 936 b 1179 951 985 936 1076 938 b 1182 928 1193 954 1190 942 z m 57 1 b 574 258 57 99 232 258 b 683 246 625 258 679 254 b 217 -61 682 214 396 -18 b 144 -71 189 -68 165 -71 b 57 1 86 -69 57 -42 z "},"Ẽ":{"ha":715,"x_min":0,"x_max":0,"o":"m 411 807 b 381 792 399 800 389 796 b -156 251 196 701 -111 485 l -160 229 b -161 206 -161 221 -161 214 b -56 43 -161 138 -132 74 b 7 28 -36 35 -15 31 b 38 26 17 26 26 26 b 572 358 249 26 481 240 b 583 379 579 367 583 372 l 583 382 b 567 399 583 390 575 399 l 563 399 b 550 394 558 399 553 397 b 44 71 443 271 242 71 b 14 72 35 71 24 71 b -43 85 -7 74 -25 78 b -119 197 -90 104 -119 146 b -118 215 -119 203 -118 210 l -118 222 b 596 819 -78 500 399 800 b 625 842 608 821 624 826 b 626 846 626 843 626 844 l 625 849 b 607 867 624 861 617 867 l 603 867 b 571 863 593 867 579 863 b 456 857 535 861 489 857 b 426 858 444 857 435 857 b 410 864 417 858 410 861 l 410 865 b 515 910 410 872 439 886 b 671 939 569 925 628 939 b 688 938 676 939 682 938 b 726 914 710 935 724 928 b 742 903 726 910 733 903 l 744 903 b 761 917 750 903 756 907 b 765 932 764 922 765 926 l 765 936 b 699 979 765 964 726 976 b 689 981 696 981 693 981 l 682 981 b 389 904 581 981 482 953 b 349 856 367 893 349 874 l 349 851 b 369 822 349 839 354 829 b 411 807 381 815 393 813 z m 526 1118 b 532 1107 526 1114 528 1110 b 549 1100 538 1103 543 1100 b 590 1135 569 1100 583 1129 b 626 1149 604 1144 617 1149 b 710 1104 658 1149 671 1104 b 724 1107 714 1104 719 1106 b 806 1176 776 1119 806 1157 b 794 1188 806 1183 801 1188 b 754 1168 786 1188 772 1182 b 710 1147 733 1153 719 1147 b 642 1190 681 1147 679 1190 l 636 1190 b 526 1118 589 1190 526 1144 z "},"Ʒ":{"ha":833,"x_min":0,"x_max":0,"o":"m 411 529 b 297 525 376 528 335 525 l 268 525 b 258 531 261 526 258 528 b 279 553 258 539 276 550 b 910 979 471 688 750 844 b 957 1056 940 1007 957 1033 b 865 1104 957 1085 928 1104 l 861 1104 b 410 1003 743 1103 515 1065 b 365 947 386 989 365 965 b 375 928 365 940 368 933 b 383 926 376 926 381 926 b 415 940 393 926 406 931 b 464 986 429 956 444 978 b 853 1067 560 1024 736 1067 b 890 1065 867 1067 879 1067 b 913 1050 906 1064 913 1058 b 757 913 913 1014 772 922 b 251 581 589 799 419 696 b 208 524 221 560 208 539 b 268 488 208 501 231 488 l 274 488 b 507 497 283 488 397 497 b 711 456 611 497 711 489 b 685 421 711 446 703 435 l 633 383 b 65 131 529 311 156 131 b 54 132 61 131 57 131 b 28 108 40 132 28 124 b 64 86 28 97 38 86 b 144 104 82 86 108 92 b 751 464 254 144 751 340 b 539 533 751 522 638 533 b 411 529 483 533 432 531 z "},"Ǯ":{"ha":833,"x_min":0,"x_max":0,"o":"m 411 529 b 297 525 376 528 335 525 l 268 525 b 258 531 261 526 258 528 b 279 553 258 539 276 550 b 910 979 471 688 750 844 b 957 1056 940 1007 957 1033 b 865 1104 957 1085 928 1104 l 861 1104 b 410 1003 743 1103 515 1065 b 365 947 386 989 365 965 b 375 928 365 940 368 933 b 383 926 376 926 381 926 b 415 940 393 926 406 931 b 464 986 429 956 444 978 b 853 1067 560 1024 736 1067 b 890 1065 867 1067 879 1067 b 913 1050 906 1064 913 1058 b 757 913 913 1014 772 922 b 251 581 589 799 419 696 b 208 524 221 560 208 539 b 268 488 208 501 231 488 l 274 488 b 507 497 283 488 397 497 b 711 456 611 497 711 489 b 685 421 711 446 703 435 l 633 383 b 65 131 529 311 156 131 b 54 132 61 131 57 131 b 28 108 40 132 28 124 b 64 86 28 97 38 86 b 144 104 82 86 108 92 b 751 464 254 144 751 340 b 539 533 751 522 638 533 b 411 529 483 533 432 531 z m 586 1461 b 614 1429 594 1450 603 1439 b 706 1347 643 1401 674 1374 b 738 1333 717 1339 728 1333 b 776 1360 750 1333 763 1343 b 876 1486 854 1449 876 1471 b 869 1496 876 1492 874 1496 b 850 1486 865 1496 858 1493 b 764 1389 839 1475 810 1440 b 746 1379 758 1383 753 1379 l 743 1379 b 683 1417 726 1379 704 1400 b 621 1472 661 1435 642 1454 b 603 1481 617 1476 611 1481 b 586 1468 593 1481 586 1478 z "},"F":{"ha":704,"x_min":0,"x_max":0,"o":"m 121 850 l 121 851 b 76 874 121 871 99 874 l 49 874 b 47 876 47 874 47 875 l 51 879 b 447 957 179 918 314 939 l 456 957 b 460 954 458 957 460 957 l 460 953 b 454 938 460 950 457 944 b 331 721 435 897 361 771 b -8 567 303 674 7 661 l -8 558 b 142 403 -7 501 142 500 b 140 388 142 399 142 393 b 126 343 139 375 133 360 b 13 86 88 258 50 172 b 1 51 7 74 4 61 l 1 50 b 33 28 1 36 18 28 b 51 36 42 28 49 31 b 174 347 99 129 154 244 b 329 642 179 372 307 600 b 364 668 339 658 349 665 b 656 711 428 678 575 711 b 692 707 669 711 682 710 b 713 697 697 700 704 697 b 744 722 728 697 743 710 l 744 726 b 713 750 744 736 736 746 b 665 753 699 751 682 753 b 388 721 564 753 413 721 l 385 721 l 385 722 b 488 901 386 733 443 833 b 551 969 517 947 526 967 b 700 979 594 974 649 979 b 844 957 757 979 811 974 b 854 956 847 956 851 956 b 888 988 869 956 886 974 l 888 992 b 878 1006 888 999 885 1003 b 714 1024 835 1018 778 1024 b 13 917 479 1024 140 954 b -46 871 -26 906 -43 888 l -46 868 b -14 835 -46 853 -33 839 b 15 833 -8 835 3 833 b 121 850 56 833 119 838 z m 43 564 b 57 576 44 567 49 571 b 264 644 113 608 204 635 l 271 644 b 281 639 276 644 281 643 l 281 638 b 278 631 281 636 279 633 b 226 536 261 600 243 568 b 186 461 213 511 199 486 b 175 449 181 451 178 449 b 164 467 169 449 168 460 b 43 564 126 546 43 547 z "},"G":{"ha":1050,"x_min":0,"x_max":0,"o":"m 144 165 b 799 600 324 244 658 465 b 826 601 815 617 843 636 b 690 189 763 482 707 325 b 719 94 686 163 688 94 l 722 94 b 757 124 738 94 757 111 b 731 153 757 142 733 140 b 796 428 740 283 756 311 b 897 643 817 486 867 592 b 956 696 914 671 928 696 l 1000 694 b 1096 674 1033 694 1067 690 b 1118 704 1113 661 1125 685 b 1026 735 1107 726 1058 732 b 978 738 988 736 1001 738 b 939 765 954 738 957 765 b 874 738 925 765 910 739 b 526 724 564 725 550 724 b 515 739 508 724 506 732 b 1015 1038 624 840 857 1038 b 1064 1003 1056 1038 1064 1024 b 1039 935 1064 981 1046 953 b 1054 900 1033 918 1038 903 b 1104 1001 1083 900 1104 981 l 1104 1013 b 1011 1082 1104 1047 1086 1082 b 450 738 829 1082 561 846 b 397 714 435 724 418 715 b -107 665 260 706 51 690 b -106 617 -126 663 -125 617 b 328 667 53 642 176 654 b 356 644 356 667 383 672 b 65 242 231 510 144 413 b 56 201 60 231 56 219 b 96 154 56 175 69 157 b 144 165 110 154 125 157 z m 103 226 b 464 675 110 303 417 674 b 799 692 571 682 693 692 b 826 683 821 692 826 689 b 293 290 794 619 378 342 b 117 210 197 235 143 210 b 103 226 107 210 103 215 z "},"Ǵ":{"ha":1050,"x_min":0,"x_max":0,"o":"m 144 165 b 799 600 324 244 658 465 b 826 601 815 617 843 636 b 690 189 763 482 707 325 b 719 94 686 163 688 94 l 722 94 b 757 124 738 94 757 111 b 731 153 757 142 733 140 b 796 428 740 283 756 311 b 897 643 817 486 867 592 b 956 696 914 671 928 696 l 1000 694 b 1096 674 1033 694 1067 690 b 1118 704 1113 661 1125 685 b 1026 735 1107 726 1058 732 b 978 738 988 736 1001 738 b 939 765 954 738 957 765 b 874 738 925 765 910 739 b 526 724 564 725 550 724 b 515 739 508 724 506 732 b 1015 1038 624 840 857 1038 b 1064 1003 1056 1038 1064 1024 b 1039 935 1064 981 1046 953 b 1054 900 1033 918 1038 903 b 1104 1001 1083 900 1104 981 l 1104 1013 b 1011 1082 1104 1047 1086 1082 b 450 738 829 1082 561 846 b 397 714 435 724 418 715 b -107 665 260 706 51 690 b -106 617 -126 663 -125 617 b 328 667 53 642 176 654 b 356 644 356 667 383 672 b 65 242 231 510 144 413 b 56 201 60 231 56 219 b 96 154 56 175 69 157 b 144 165 110 154 125 157 z m 103 226 b 464 675 110 303 417 674 b 799 692 571 682 693 692 b 826 683 821 692 826 689 b 293 290 794 619 378 342 b 117 210 197 235 143 210 b 103 226 107 210 103 215 z m 946 1201 b 963 1186 946 1193 951 1186 b 978 1189 967 1186 972 1188 l 1061 1278 b 1083 1307 1067 1285 1083 1292 b 1082 1317 1083 1310 1083 1314 b 1065 1328 1079 1322 1072 1324 b 946 1201 1043 1314 946 1229 z "},"Ğ":{"ha":1050,"x_min":0,"x_max":0,"o":"m 144 165 b 799 600 324 244 658 465 b 826 601 815 617 843 636 b 690 189 763 482 707 325 b 719 94 686 163 688 94 l 722 94 b 757 124 738 94 757 111 b 731 153 757 142 733 140 b 796 428 740 283 756 311 b 897 643 817 486 867 592 b 956 696 914 671 928 696 l 1000 694 b 1096 674 1033 694 1067 690 b 1118 704 1113 661 1125 685 b 1026 735 1107 726 1058 732 b 978 738 988 736 1001 738 b 939 765 954 738 957 765 b 874 738 925 765 910 739 b 526 724 564 725 550 724 b 515 739 508 724 506 732 b 1015 1038 624 840 857 1038 b 1064 1003 1056 1038 1064 1024 b 1039 935 1064 981 1046 953 b 1054 900 1033 918 1038 903 b 1104 1001 1083 900 1104 981 l 1104 1013 b 1011 1082 1104 1047 1086 1082 b 450 738 829 1082 561 846 b 397 714 435 724 418 715 b -107 665 260 706 51 690 b -106 617 -126 663 -125 617 b 328 667 53 642 176 654 b 356 644 356 667 383 672 b 65 242 231 510 144 413 b 56 201 60 231 56 219 b 96 154 56 175 69 157 b 144 165 110 154 125 157 z m 103 226 b 464 675 110 303 417 674 b 799 692 571 682 693 692 b 826 683 821 692 826 689 b 293 290 794 619 378 342 b 117 210 197 235 143 210 b 103 226 107 210 103 215 z m 901 1253 b 960 1161 901 1217 924 1178 b 1000 1149 971 1154 986 1149 l 1004 1149 b 1129 1264 1072 1149 1129 1207 b 1122 1297 1129 1275 1128 1286 b 1106 1315 1119 1307 1111 1315 b 1096 1296 1100 1315 1096 1310 l 1096 1293 b 988 1185 1096 1235 1046 1185 b 939 1239 956 1185 939 1210 b 940 1256 939 1244 939 1250 b 942 1263 942 1258 942 1261 b 919 1292 942 1278 931 1292 b 906 1276 914 1292 908 1288 b 901 1253 903 1269 901 1261 z "},"Ǧ":{"ha":1050,"x_min":0,"x_max":0,"o":"m 144 165 b 799 600 324 244 658 465 b 826 601 815 617 843 636 b 690 189 763 482 707 325 b 719 94 686 163 688 94 l 722 94 b 757 124 738 94 757 111 b 731 153 757 142 733 140 b 796 428 740 283 756 311 b 897 643 817 486 867 592 b 956 696 914 671 928 696 l 1000 694 b 1096 674 1033 694 1067 690 b 1118 704 1113 661 1125 685 b 1026 735 1107 726 1058 732 b 978 738 988 736 1001 738 b 939 765 954 738 957 765 b 874 738 925 765 910 739 b 526 724 564 725 550 724 b 515 739 508 724 506 732 b 1015 1038 624 840 857 1038 b 1064 1003 1056 1038 1064 1024 b 1039 935 1064 981 1046 953 b 1054 900 1033 918 1038 903 b 1104 1001 1083 900 1104 981 l 1104 1013 b 1011 1082 1104 1047 1086 1082 b 450 738 829 1082 561 846 b 397 714 435 724 418 715 b -107 665 260 706 51 690 b -106 617 -126 663 -125 617 b 328 667 53 642 176 654 b 356 644 356 667 383 672 b 65 242 231 510 144 413 b 56 201 60 231 56 219 b 96 154 56 175 69 157 b 144 165 110 154 125 157 z m 103 226 b 464 675 110 303 417 674 b 799 692 571 682 693 692 b 826 683 821 692 826 689 b 293 290 794 619 378 342 b 117 210 197 235 143 210 b 103 226 107 210 103 215 z m 869 1338 b 897 1306 878 1326 886 1315 b 989 1224 926 1278 957 1250 b 1021 1210 1000 1215 1011 1210 b 1060 1236 1033 1210 1046 1219 b 1160 1363 1138 1325 1160 1347 b 1153 1372 1160 1368 1157 1372 b 1133 1363 1149 1372 1142 1369 b 1047 1265 1122 1351 1093 1317 b 1029 1256 1042 1260 1036 1256 l 1026 1256 b 967 1293 1010 1256 988 1276 b 904 1349 944 1311 925 1331 b 886 1357 900 1353 894 1357 b 869 1344 876 1357 869 1354 z "},"Ĝ":{"ha":1050,"x_min":0,"x_max":0,"o":"m 144 165 b 799 600 324 244 658 465 b 826 601 815 617 843 636 b 690 189 763 482 707 325 b 719 94 686 163 688 94 l 722 94 b 757 124 738 94 757 111 b 731 153 757 142 733 140 b 796 428 740 283 756 311 b 897 643 817 486 867 592 b 956 696 914 671 928 696 l 1000 694 b 1096 674 1033 694 1067 690 b 1118 704 1113 661 1125 685 b 1026 735 1107 726 1058 732 b 978 738 988 736 1001 738 b 939 765 954 738 957 765 b 874 738 925 765 910 739 b 526 724 564 725 550 724 b 515 739 508 724 506 732 b 1015 1038 624 840 857 1038 b 1064 1003 1056 1038 1064 1024 b 1039 935 1064 981 1046 953 b 1054 900 1033 918 1038 903 b 1104 1001 1083 900 1104 981 l 1104 1013 b 1011 1082 1104 1047 1086 1082 b 450 738 829 1082 561 846 b 397 714 435 724 418 715 b -107 665 260 706 51 690 b -106 617 -126 663 -125 617 b 328 667 53 642 176 654 b 356 644 356 667 383 672 b 65 242 231 510 144 413 b 56 201 60 231 56 219 b 96 154 56 175 69 157 b 144 165 110 154 125 157 z m 103 226 b 464 675 110 303 417 674 b 799 692 571 682 693 692 b 826 683 821 692 826 689 b 293 290 794 619 378 342 b 117 210 197 235 143 210 b 103 226 107 210 103 215 z m 903 1207 b 921 1188 903 1196 911 1188 b 926 1189 922 1188 925 1188 b 1051 1288 943 1194 989 1249 l 1089 1171 b 1108 1157 1092 1161 1100 1157 b 1126 1176 1117 1157 1126 1164 b 1124 1188 1126 1179 1125 1183 b 1058 1331 1092 1281 1088 1331 b 914 1226 1036 1331 997 1297 b 903 1207 906 1221 903 1213 z "},"Ģ":{"ha":1050,"x_min":0,"x_max":0,"o":"m 144 165 b 799 600 324 244 658 465 b 826 601 815 617 843 636 b 690 189 763 482 707 325 b 719 94 686 163 688 94 l 722 94 b 757 124 738 94 757 111 b 731 153 757 142 733 140 b 796 428 740 283 756 311 b 897 643 817 486 867 592 b 956 696 914 671 928 696 l 1000 694 b 1096 674 1033 694 1067 690 b 1118 704 1113 661 1125 685 b 1026 735 1107 726 1058 732 b 978 738 988 736 1001 738 b 939 765 954 738 957 765 b 874 738 925 765 910 739 b 526 724 564 725 550 724 b 515 739 508 724 506 732 b 1015 1038 624 840 857 1038 b 1064 1003 1056 1038 1064 1024 b 1039 935 1064 981 1046 953 b 1054 900 1033 918 1038 903 b 1104 1001 1083 900 1104 981 l 1104 1013 b 1011 1082 1104 1047 1086 1082 b 450 738 829 1082 561 846 b 397 714 435 724 418 715 b -107 665 260 706 51 690 b -106 617 -126 663 -125 617 b 328 667 53 642 176 654 b 356 644 356 667 383 672 b 65 242 231 510 144 413 b 56 201 60 231 56 219 b 96 154 56 175 69 157 b 144 165 110 154 125 157 z m 103 226 b 464 675 110 303 417 674 b 799 692 571 682 693 692 b 826 683 821 692 826 689 b 293 290 794 619 378 342 b 117 210 197 235 143 210 b 103 226 107 210 103 215 z m 268 -179 b 285 -189 268 -183 278 -189 b 292 -186 289 -189 292 -189 b 338 -90 307 -153 321 -121 b 358 -25 349 -72 358 -49 b 319 17 358 -6 339 13 l 310 17 b 299 15 306 17 303 17 b 271 -17 281 11 271 -4 b 275 -29 271 -21 272 -25 b 314 -43 286 -42 304 -43 l 322 -43 b 296 -104 313 -65 303 -85 b 269 -171 286 -126 276 -147 b 268 -179 268 -174 268 -176 z "},"Ġ":{"ha":1050,"x_min":0,"x_max":0,"o":"m 144 165 b 799 600 324 244 658 465 b 826 601 815 617 843 636 b 690 189 763 482 707 325 b 719 94 686 163 688 94 l 722 94 b 757 124 738 94 757 111 b 731 153 757 142 733 140 b 796 428 740 283 756 311 b 897 643 817 486 867 592 b 956 696 914 671 928 696 l 1000 694 b 1096 674 1033 694 1067 690 b 1118 704 1113 661 1125 685 b 1026 735 1107 726 1058 732 b 978 738 988 736 1001 738 b 939 765 954 738 957 765 b 874 738 925 765 910 739 b 526 724 564 725 550 724 b 515 739 508 724 506 732 b 1015 1038 624 840 857 1038 b 1064 1003 1056 1038 1064 1024 b 1039 935 1064 981 1046 953 b 1054 900 1033 918 1038 903 b 1104 1001 1083 900 1104 981 l 1104 1013 b 1011 1082 1104 1047 1086 1082 b 450 738 829 1082 561 846 b 397 714 435 724 418 715 b -107 665 260 706 51 690 b -106 617 -126 663 -125 617 b 328 667 53 642 176 654 b 356 644 356 667 383 672 b 65 242 231 510 144 413 b 56 201 60 231 56 219 b 96 154 56 175 69 157 b 144 165 110 154 125 157 z m 103 226 b 464 675 110 303 417 674 b 799 692 571 682 693 692 b 826 683 821 692 826 689 b 293 290 794 619 378 342 b 117 210 197 235 143 210 b 103 226 107 210 103 215 z m 978 1272 b 1008 1235 978 1256 990 1235 b 1051 1296 1033 1235 1051 1275 b 1010 1328 1051 1329 1033 1333 b 978 1272 993 1319 978 1283 z "},"Ḡ":{"ha":1050,"x_min":0,"x_max":0,"o":"m 144 165 b 799 600 324 244 658 465 b 826 601 815 617 843 636 b 690 189 763 482 707 325 b 719 94 686 163 688 94 l 722 94 b 757 124 738 94 757 111 b 731 153 757 142 733 140 b 796 428 740 283 756 311 b 897 643 817 486 867 592 b 956 696 914 671 928 696 l 1000 694 b 1096 674 1033 694 1067 690 b 1118 704 1113 661 1125 685 b 1026 735 1107 726 1058 732 b 978 738 988 736 1001 738 b 939 765 954 738 957 765 b 874 738 925 765 910 739 b 526 724 564 725 550 724 b 515 739 508 724 506 732 b 1015 1038 624 840 857 1038 b 1064 1003 1056 1038 1064 1024 b 1039 935 1064 981 1046 953 b 1054 900 1033 918 1038 903 b 1104 1001 1083 900 1104 981 l 1104 1013 b 1011 1082 1104 1047 1086 1082 b 450 738 829 1082 561 846 b 397 714 435 724 418 715 b -107 665 260 706 51 690 b -106 617 -126 663 -125 617 b 328 667 53 642 176 654 b 356 644 356 667 383 672 b 65 242 231 510 144 413 b 56 201 60 231 56 219 b 96 154 56 175 69 157 b 144 165 110 154 125 157 z m 103 226 b 464 675 110 303 417 674 b 799 692 571 682 693 692 b 826 683 821 692 826 689 b 293 290 794 619 378 342 b 117 210 197 235 143 210 b 103 226 107 210 103 215 z m 821 1271 b 863 1269 838 1269 850 1269 l 876 1269 b 994 1271 917 1269 956 1271 l 1025 1271 b 1165 1263 1068 1271 1119 1263 l 1167 1263 b 1208 1282 1192 1263 1208 1271 b 1179 1296 1208 1288 1199 1294 b 1051 1301 1136 1300 1094 1301 b 876 1294 994 1301 936 1299 b 821 1271 857 1293 831 1293 z "},"Ǥ":{"ha":1050,"x_min":0,"x_max":0,"o":"m 144 165 b 775 578 314 240 624 442 l 778 578 l 814 578 b 690 189 756 461 706 315 b 719 94 686 163 688 94 l 722 94 b 757 124 738 94 757 111 b 731 153 757 142 733 140 b 796 428 740 283 756 311 b 861 576 810 467 836 525 l 986 574 b 1025 593 1011 574 1025 583 b 986 614 1025 603 1013 611 l 881 614 l 897 643 b 956 696 914 671 928 696 l 1000 694 b 1096 674 1033 694 1067 690 b 1118 704 1113 661 1125 685 b 1026 735 1107 726 1058 732 b 978 738 988 736 1001 738 b 939 765 954 738 957 765 b 874 738 925 765 910 739 b 526 724 564 725 550 724 b 515 739 508 724 506 732 b 1015 1038 624 840 857 1038 b 1064 1003 1056 1038 1064 1024 b 1039 935 1064 981 1046 953 b 1054 900 1033 918 1038 903 b 1104 1001 1083 900 1104 981 l 1104 1013 b 1011 1082 1104 1047 1086 1082 b 450 738 829 1082 561 846 b 397 714 435 724 418 715 b -107 665 260 706 51 690 b -106 617 -126 663 -125 617 b 328 667 53 642 176 654 b 356 644 356 667 383 672 b 65 242 231 510 144 413 b 56 201 60 231 56 219 b 96 154 56 175 69 157 b 144 165 110 154 125 157 z m 103 226 b 464 675 110 303 417 674 b 799 692 571 682 693 692 b 826 683 821 692 826 689 b 756 614 819 669 793 644 l 614 614 b 544 590 589 614 544 613 l 544 588 b 592 572 547 575 563 572 b 711 578 621 572 664 576 b 293 290 572 472 351 326 b 117 210 197 235 143 210 b 103 226 107 210 103 215 z m 815 614 b 831 614 825 621 833 625 z "},"H":{"ha":676,"x_min":0,"x_max":0,"o":"m 264 731 b 397 950 303 806 344 881 l 399 953 b 415 967 403 961 408 967 b 421 965 417 967 419 967 b 440 958 428 963 432 958 l 442 958 b 465 981 453 958 460 971 b 481 1031 475 1000 481 1018 b 461 1054 481 1046 474 1054 b 213 718 425 1054 335 971 b 71 613 188 665 143 669 b 49 582 54 600 49 590 b 93 481 49 557 93 536 b 83 431 93 467 90 450 l -29 117 b -33 99 -32 110 -33 104 b -19 82 -33 89 -28 82 b 3 89 -14 82 -7 85 b 118 392 10 92 107 363 l 121 399 b 231 650 146 463 183 603 l 238 657 b 240 658 239 657 240 658 b 261 668 247 663 254 665 l 293 679 l 356 700 b 510 750 407 717 458 735 l 531 754 l 532 756 b 543 747 540 756 543 753 b 542 739 543 744 543 742 b 404 401 496 626 449 515 b 250 -49 347 254 292 104 b 247 -64 249 -54 247 -60 b 272 -90 247 -83 260 -90 b 296 -69 286 -90 296 -85 b 292 -47 293 -62 292 -54 b 307 13 292 -26 300 -7 b 483 489 365 171 424 331 b 506 550 492 510 499 529 b 568 703 525 601 546 653 b 600 765 576 724 588 747 l 600 767 b 629 786 608 776 617 782 b 769 824 676 799 722 813 b 846 836 783 826 821 836 b 867 832 856 836 863 835 b 881 826 871 828 876 826 b 901 853 893 826 901 839 b 867 879 901 865 892 879 l 865 879 b 814 871 849 879 831 875 b 658 833 761 861 710 846 b 647 831 654 833 651 832 l 639 831 b 632 836 633 831 632 833 b 639 856 632 842 636 850 b 690 957 654 889 674 924 b 743 1056 708 989 726 1022 b 753 1075 746 1061 753 1069 l 753 1078 b 735 1096 753 1089 746 1096 b 721 1092 731 1096 725 1094 b 579 828 694 1083 610 878 b 544 800 569 813 558 804 b 521 793 538 797 529 794 l 290 718 b 271 713 283 717 276 713 l 268 713 b 261 719 263 713 261 715 b 264 731 261 722 263 726 z m 97 578 l 97 579 b 126 608 97 589 118 601 b 151 622 133 613 143 619 b 158 624 153 624 156 624 b 163 622 160 624 161 624 l 163 621 b 158 606 163 615 160 608 b 136 557 151 589 143 572 b 125 542 135 553 131 543 b 122 543 124 542 124 542 b 104 561 118 546 108 557 b 97 578 101 565 97 571 z "},"Ħ":{"ha":676,"x_min":0,"x_max":0,"o":"m 667 1178 l 400 1156 b 385 1149 393 1154 388 1153 b 379 1136 381 1144 379 1140 b 386 1124 379 1132 382 1128 b 403 1118 389 1119 396 1118 b 508 1125 436 1119 471 1122 l 596 1131 b 672 1138 622 1133 649 1136 l 683 1138 l 699 1139 b 739 1160 713 1139 739 1140 l 739 1161 b 722 1178 736 1171 731 1176 b 686 1179 713 1179 700 1179 b 667 1178 681 1179 674 1178 z m -33 99 b -19 82 -33 89 -28 82 b 3 89 -14 82 -7 85 b 118 392 10 92 107 363 l 121 399 b 231 650 144 464 186 601 l 238 657 b 240 658 239 657 240 658 b 261 668 247 663 254 665 l 293 679 l 356 700 b 510 750 407 718 458 735 l 531 754 l 532 756 b 543 747 540 756 543 753 b 542 739 543 744 543 742 b 404 401 496 626 449 515 b 250 -49 347 254 292 104 b 247 -64 249 -54 247 -60 b 272 -90 247 -83 260 -90 b 296 -69 286 -90 296 -85 b 292 -47 293 -62 292 -54 b 307 13 292 -26 300 -7 b 483 489 365 171 424 331 b 506 550 492 510 499 529 b 568 703 525 601 546 653 b 600 765 576 724 588 747 l 600 767 b 629 786 608 776 617 782 b 769 824 676 799 722 813 b 846 836 783 826 821 836 b 867 832 856 836 863 835 b 881 826 871 828 876 826 b 901 853 893 826 901 839 b 867 879 901 865 892 879 l 865 879 b 814 871 849 878 831 875 b 658 833 761 861 710 846 b 647 831 654 833 651 832 l 639 831 b 632 836 633 831 632 833 b 639 856 632 842 636 850 b 690 957 654 889 674 924 b 743 1056 708 989 726 1022 b 753 1075 746 1061 751 1069 l 753 1078 b 735 1096 753 1089 746 1096 b 721 1092 731 1096 725 1094 b 579 828 694 1083 610 878 b 544 800 569 813 558 804 b 521 793 538 797 529 794 l 290 718 b 271 713 283 717 276 714 l 268 713 b 261 719 263 713 261 715 b 264 731 261 722 263 726 b 397 950 303 806 344 881 l 399 953 b 415 967 404 961 408 967 b 421 965 417 967 419 967 b 440 958 428 963 432 960 l 442 958 b 465 981 453 958 460 971 b 481 1031 475 1000 481 1018 b 461 1054 481 1046 474 1054 b 213 718 425 1054 335 971 b 71 613 188 665 143 669 b 49 582 54 600 49 590 b 93 481 49 557 93 536 b 83 431 93 467 90 450 l -29 117 b -33 99 -32 110 -33 104 z m 97 578 l 97 579 b 126 608 99 589 118 601 b 151 622 133 613 143 619 b 158 624 153 624 156 624 b 163 622 160 624 161 624 l 163 621 b 158 606 163 615 160 608 b 136 557 151 589 143 572 b 125 542 135 553 131 543 b 122 543 124 542 124 542 b 104 561 118 546 108 557 b 97 578 101 565 97 571 z "},"Ḫ":{"ha":676,"x_min":0,"x_max":0,"o":"m 264 731 b 397 950 303 806 344 881 l 399 953 b 415 967 403 961 408 967 b 421 965 417 967 419 967 b 440 958 428 963 432 958 l 442 958 b 465 981 453 958 460 971 b 481 1031 475 1000 481 1018 b 461 1054 481 1046 474 1054 b 213 718 425 1054 335 971 b 71 613 188 665 143 669 b 49 582 54 600 49 590 b 93 481 49 557 93 536 b 83 431 93 467 90 450 l -29 117 b -33 99 -32 110 -33 104 b -19 82 -33 89 -28 82 b 3 89 -14 82 -7 85 b 118 392 10 92 107 363 l 121 399 b 231 650 146 463 183 603 l 238 657 b 240 658 239 657 240 658 b 261 668 247 663 254 665 l 293 679 l 356 700 b 510 750 407 717 458 735 l 531 754 l 532 756 b 543 747 540 756 543 753 b 542 739 543 744 543 742 b 404 401 496 626 449 515 b 250 -49 347 254 292 104 b 247 -64 249 -54 247 -60 b 272 -90 247 -83 260 -90 b 296 -69 286 -90 296 -85 b 292 -47 293 -62 292 -54 b 307 13 292 -26 300 -7 b 483 489 365 171 424 331 b 506 550 492 510 499 529 b 568 703 525 601 546 653 b 600 765 576 724 588 747 l 600 767 b 629 786 608 776 617 782 b 769 824 676 799 722 813 b 846 836 783 826 821 836 b 867 832 856 836 863 835 b 881 826 871 828 876 826 b 901 853 893 826 901 839 b 867 879 901 865 892 879 l 865 879 b 814 871 849 879 831 875 b 658 833 761 861 710 846 b 647 831 654 833 651 832 l 639 831 b 632 836 633 831 632 833 b 639 856 632 842 636 850 b 690 957 654 889 674 924 b 743 1056 708 989 726 1022 b 753 1075 746 1061 753 1069 l 753 1078 b 735 1096 753 1089 746 1096 b 721 1092 731 1096 725 1094 b 579 828 694 1083 610 878 b 544 800 569 813 558 804 b 521 793 538 797 529 794 l 290 718 b 271 713 283 717 276 713 l 268 713 b 261 719 263 713 261 715 b 264 731 261 722 263 726 z m -43 -125 b 15 -217 -43 -161 -21 -200 b 56 -229 26 -224 42 -229 l 60 -229 b 185 -114 128 -229 185 -171 b 178 -81 185 -103 183 -92 b 161 -62 175 -71 167 -62 b 151 -82 156 -62 151 -68 l 151 -85 b 43 -193 151 -143 101 -193 b -6 -139 11 -193 -6 -168 b -4 -122 -6 -133 -6 -128 b -3 -115 -3 -119 -3 -117 b -25 -86 -3 -100 -14 -86 b -39 -101 -31 -86 -36 -90 b -43 -125 -42 -108 -43 -117 z m 97 578 l 97 579 b 126 608 97 589 118 601 b 151 622 133 613 143 619 b 158 624 153 624 156 624 b 163 622 160 624 161 624 l 163 621 b 158 606 163 615 160 608 b 136 557 151 589 143 572 b 125 542 135 553 131 543 b 122 543 124 542 124 542 b 104 561 118 546 108 557 b 97 578 101 565 97 571 z "},"Ĥ":{"ha":676,"x_min":0,"x_max":0,"o":"m 603 1229 l 640 1113 b 658 1099 643 1103 651 1099 b 676 1118 668 1099 676 1106 b 675 1129 676 1121 676 1125 b 610 1272 642 1222 638 1272 b 464 1168 586 1272 547 1239 b 454 1149 457 1163 454 1154 b 471 1129 454 1138 461 1129 b 478 1131 474 1129 475 1129 b 603 1229 493 1136 540 1190 z m -33 99 b -19 82 -33 89 -28 82 b 3 89 -14 82 -7 85 b 118 392 10 92 107 363 l 121 399 b 231 650 144 464 186 601 l 238 657 b 240 658 239 657 240 658 b 261 668 247 663 254 665 l 293 679 l 356 700 b 510 750 407 718 458 735 l 531 754 l 532 756 b 543 747 540 756 543 753 b 542 739 543 744 543 742 b 404 401 496 626 449 515 b 250 -49 347 254 292 104 b 247 -64 249 -54 247 -60 b 272 -90 247 -83 260 -90 b 296 -69 286 -90 296 -85 b 292 -47 293 -62 292 -54 b 307 13 292 -26 300 -7 b 483 489 365 171 424 331 b 506 550 492 510 499 529 b 568 703 525 601 546 653 b 600 765 576 724 588 747 l 600 767 b 629 786 608 776 617 782 b 769 824 676 799 722 813 b 846 836 783 826 821 836 b 867 832 856 836 863 835 b 881 826 871 828 876 826 b 901 853 893 826 901 839 b 867 879 901 865 892 879 l 865 879 b 814 871 849 878 831 875 b 658 833 761 861 710 846 b 647 831 654 833 651 832 l 639 831 b 632 836 633 831 632 833 b 639 856 632 842 636 850 b 690 957 654 889 674 924 b 743 1056 708 989 726 1022 b 753 1075 746 1061 751 1069 l 753 1078 b 735 1096 753 1089 746 1096 b 721 1092 731 1096 725 1094 b 579 828 694 1083 610 878 b 544 800 569 813 558 804 b 521 793 538 797 529 794 l 290 718 b 271 713 283 717 276 714 l 268 713 b 261 719 263 713 261 715 b 264 731 261 722 263 726 b 397 950 303 806 344 881 l 399 953 b 415 967 404 961 408 967 b 421 965 417 967 419 967 b 440 958 428 963 432 960 l 442 958 b 465 981 453 958 460 971 b 481 1031 475 1000 481 1018 b 461 1054 481 1046 474 1054 b 213 718 425 1054 335 971 b 71 613 188 665 143 669 b 49 582 54 600 49 590 b 93 481 49 557 93 536 b 83 431 93 467 90 450 l -29 117 b -33 99 -32 110 -33 104 z m 97 578 l 97 579 b 126 608 99 589 118 601 b 151 622 133 613 143 619 b 158 624 153 624 156 624 b 163 622 160 624 161 624 l 163 621 b 158 606 163 615 160 608 b 136 557 151 589 143 572 b 125 542 135 553 131 543 b 122 543 124 542 124 542 b 104 561 118 546 108 557 b 97 578 101 565 97 571 z "},"Ḥ":{"ha":676,"x_min":0,"x_max":0,"o":"m 264 731 b 397 950 303 806 344 881 l 399 953 b 415 967 403 961 408 967 b 421 965 417 967 419 967 b 440 958 428 963 432 958 l 442 958 b 465 981 453 958 460 971 b 481 1031 475 1000 481 1018 b 461 1054 481 1046 474 1054 b 213 718 425 1054 335 971 b 71 613 188 665 143 669 b 49 582 54 600 49 590 b 93 481 49 557 93 536 b 83 431 93 467 90 450 l -29 117 b -33 99 -32 110 -33 104 b -19 82 -33 89 -28 82 b 3 89 -14 82 -7 85 b 118 392 10 92 107 363 l 121 399 b 231 650 146 463 183 603 l 238 657 b 240 658 239 657 240 658 b 261 668 247 663 254 665 l 293 679 l 356 700 b 510 750 407 717 458 735 l 531 754 l 532 756 b 543 747 540 756 543 753 b 542 739 543 744 543 742 b 404 401 496 626 449 515 b 250 -49 347 254 292 104 b 247 -64 249 -54 247 -60 b 272 -90 247 -83 260 -90 b 296 -69 286 -90 296 -85 b 292 -47 293 -62 292 -54 b 307 13 292 -26 300 -7 b 483 489 365 171 424 331 b 506 550 492 510 499 529 b 568 703 525 601 546 653 b 600 765 576 724 588 747 l 600 767 b 629 786 608 776 617 782 b 769 824 676 799 722 813 b 846 836 783 826 821 836 b 867 832 856 836 863 835 b 881 826 871 828 876 826 b 901 853 893 826 901 839 b 867 879 901 865 892 879 l 865 879 b 814 871 849 879 831 875 b 658 833 761 861 710 846 b 647 831 654 833 651 832 l 639 831 b 632 836 633 831 632 833 b 639 856 632 842 636 850 b 690 957 654 889 674 924 b 743 1056 708 989 726 1022 b 753 1075 746 1061 753 1069 l 753 1078 b 735 1096 753 1089 746 1096 b 721 1092 731 1096 725 1094 b 579 828 694 1083 610 878 b 544 800 569 813 558 804 b 521 793 538 797 529 794 l 290 718 b 271 713 283 717 276 713 l 268 713 b 261 719 263 713 261 715 b 264 731 261 722 263 726 z m 33 -156 b 64 -193 33 -172 46 -193 b 107 -132 89 -193 107 -153 b 65 -100 107 -99 89 -94 b 33 -156 49 -108 33 -144 z m 97 578 l 97 579 b 126 608 97 589 118 601 b 151 622 133 613 143 619 b 158 624 153 624 156 624 b 163 622 160 624 161 624 l 163 621 b 158 606 163 615 160 608 b 136 557 151 589 143 572 b 125 542 135 553 131 543 b 122 543 124 542 124 542 b 104 561 118 546 108 557 b 97 578 101 565 97 571 z "},"I":{"ha":368,"x_min":0,"x_max":0,"o":"m 231 1065 b 340 1082 253 1071 300 1082 b 360 1081 347 1082 354 1081 b 415 1035 390 1078 415 1069 b 393 958 411 1008 404 982 b -32 40 264 701 69 344 b -7 14 -32 25 -22 14 l -3 14 b 19 24 6 14 15 17 b 47 71 42 53 47 64 b 36 90 47 78 36 76 b 44 121 36 97 39 107 b 339 763 113 306 238 588 b 442 954 375 825 410 890 b 463 1031 456 985 463 1010 b 356 1115 463 1083 418 1110 b 328 1117 347 1117 338 1117 b 175 1093 282 1117 228 1108 b 142 1067 150 1086 142 1076 b 153 1053 142 1061 146 1056 b 190 1044 168 1049 181 1044 l 197 1044 b 231 1065 221 1044 224 1057 z "},"Ĳ":{"ha":1229,"x_min":0,"x_max":0,"o":"m 231 1065 b 340 1082 253 1071 300 1082 b 360 1081 347 1082 354 1081 b 415 1035 390 1078 415 1069 b 393 958 411 1008 404 982 b -32 40 264 701 69 344 b -7 14 -32 25 -22 14 l -3 14 b 19 24 6 14 15 17 b 47 71 42 53 47 64 b 36 90 47 78 36 76 b 44 121 36 97 39 107 b 339 763 113 306 238 588 b 442 954 375 825 410 890 b 463 1031 456 985 463 1010 b 356 1115 463 1083 418 1110 b 328 1117 347 1117 338 1117 b 175 1093 282 1117 228 1108 b 142 1067 150 1086 142 1076 b 153 1053 142 1061 146 1056 b 190 1044 168 1049 181 1044 l 197 1044 b 231 1065 221 1044 224 1057 z m 374 17 b 439 -44 374 -25 397 -44 l 450 -44 b 849 218 538 -44 690 49 b 1194 788 1165 556 1144 754 b 1357 894 1231 813 1289 856 b 1364 907 1361 897 1364 901 b 1346 929 1364 917 1357 929 b 1338 926 1343 929 1340 928 b 1214 850 1297 903 1256 876 b 1211 849 1214 850 1213 849 l 1206 844 b 1203 843 1204 844 1204 843 b 1197 842 1201 842 1199 842 b 1192 856 1192 842 1192 849 l 1192 890 b 1019 1078 1192 1024 1119 1078 b 997 1076 1013 1078 1004 1076 b 554 844 860 1067 679 968 b 492 749 510 800 492 769 l 492 746 b 514 721 492 728 503 721 l 517 721 b 539 736 525 721 539 726 l 539 742 b 994 1035 539 825 814 1035 l 1013 1035 b 1150 882 1092 1035 1150 994 b 1149 857 1150 874 1149 865 l 1149 851 l 1147 840 l 1147 835 b 1107 775 1147 807 1131 790 b 374 24 938 654 374 249 z m 418 22 l 418 31 b 881 553 447 188 685 393 l 926 590 b 1056 690 968 624 1011 658 b 1108 724 1069 700 1094 718 b 1114 725 1111 725 1113 725 b 1118 718 1118 725 1118 722 b 1115 706 1118 714 1117 710 b 1069 601 1100 671 1086 635 b 454 -6 886 228 563 -6 l 450 -6 b 418 22 431 -6 418 3 z "},"Í":{"ha":368,"x_min":0,"x_max":0,"o":"m 465 1276 b 346 1150 443 1263 346 1176 b 363 1133 346 1140 351 1133 b 378 1138 367 1133 371 1135 l 461 1226 b 483 1256 467 1232 483 1240 b 482 1265 483 1258 483 1261 b 465 1276 479 1269 472 1272 z m -32 40 b -7 14 -32 25 -22 15 l -3 14 b 19 24 6 14 15 17 b 47 71 42 53 47 64 b 36 90 47 78 36 76 b 44 121 36 97 39 107 b 339 763 113 306 238 588 b 442 954 375 825 410 890 b 463 1031 456 985 463 1010 b 356 1115 463 1083 418 1110 b 328 1117 347 1117 338 1117 b 175 1093 282 1117 228 1108 b 142 1067 150 1086 142 1076 b 153 1053 142 1061 146 1056 b 190 1044 168 1049 181 1046 l 197 1044 b 231 1065 221 1044 224 1057 b 340 1082 253 1071 300 1082 b 360 1081 347 1082 354 1081 b 415 1035 390 1078 415 1069 b 393 958 411 1008 404 982 b -32 40 264 701 69 344 z "},"Ĭ":{"ha":368,"x_min":0,"x_max":0,"o":"m 294 1188 b 336 1175 307 1181 322 1175 l 340 1175 b 465 1290 408 1175 465 1233 b 440 1342 465 1303 457 1342 b 432 1322 436 1342 432 1336 l 432 1319 b 408 1256 432 1296 424 1275 b 324 1211 389 1228 361 1211 b 274 1265 293 1211 274 1236 b 276 1282 274 1271 275 1276 b 278 1289 276 1285 278 1288 b 254 1318 278 1304 265 1318 b 238 1279 239 1318 238 1290 b 294 1188 238 1243 258 1204 z m -32 40 b -7 14 -32 25 -22 15 l -3 14 b 19 24 6 14 15 17 b 47 71 42 53 47 64 b 36 90 47 78 36 76 b 44 121 36 97 39 107 b 339 763 113 306 238 588 b 442 954 375 825 410 890 b 463 1031 456 985 463 1010 b 356 1115 463 1083 418 1110 b 328 1117 347 1117 338 1117 b 175 1093 282 1117 228 1108 b 142 1067 150 1086 142 1076 b 153 1053 142 1061 146 1056 b 190 1044 168 1049 181 1046 l 197 1044 b 231 1065 221 1044 224 1057 b 340 1082 253 1071 300 1082 b 360 1081 347 1082 354 1081 b 415 1035 390 1078 415 1069 b 393 958 411 1008 404 982 b -32 40 264 701 69 344 z "},"Ȋ":{"ha":368,"x_min":0,"x_max":0,"o":"m 240 1236 b 243 1213 240 1228 242 1221 b 257 1199 246 1203 251 1199 b 281 1229 268 1199 281 1211 l 279 1233 b 276 1251 278 1240 276 1246 b 326 1304 276 1281 297 1304 b 411 1261 364 1304 392 1289 b 435 1196 426 1242 435 1219 l 435 1193 b 443 1175 435 1181 439 1175 b 461 1192 449 1175 457 1183 b 468 1225 465 1203 468 1214 b 342 1342 468 1285 410 1342 l 339 1342 b 240 1236 285 1336 240 1293 z m -32 40 b -7 14 -32 25 -22 15 l -3 14 b 19 24 6 14 15 17 b 47 71 42 53 47 64 b 36 90 47 78 36 76 b 44 121 36 97 39 107 b 339 763 113 306 238 588 b 442 954 375 825 410 890 b 463 1031 456 985 463 1010 b 356 1115 463 1083 418 1110 b 328 1117 347 1117 338 1117 b 175 1093 282 1117 228 1108 b 142 1067 150 1086 142 1076 b 153 1053 142 1061 146 1056 b 190 1044 168 1049 181 1046 l 197 1044 b 231 1065 221 1044 224 1057 b 340 1082 253 1071 300 1082 b 360 1081 347 1082 354 1081 b 415 1035 390 1078 415 1069 b 393 958 411 1008 404 982 b -32 40 264 701 69 344 z "},"Ǐ":{"ha":368,"x_min":0,"x_max":0,"o":"m 368 1172 b 407 1199 381 1172 393 1182 b 507 1325 485 1288 507 1310 b 500 1335 507 1331 504 1335 b 481 1325 496 1335 489 1332 b 394 1228 469 1314 440 1279 b 376 1218 390 1222 383 1218 l 374 1218 b 314 1256 357 1219 335 1239 b 253 1311 292 1274 272 1293 b 233 1319 247 1315 242 1319 b 218 1307 225 1319 219 1317 b 217 1303 218 1306 217 1304 b 218 1300 217 1301 218 1301 b 244 1268 225 1289 233 1278 b 336 1186 275 1240 304 1213 b 368 1172 347 1178 358 1172 z m -32 40 b -7 14 -32 25 -22 15 l -3 14 b 19 24 6 14 15 17 b 47 71 42 53 47 64 b 36 90 47 78 36 76 b 44 121 36 97 39 107 b 339 763 113 306 238 588 b 442 954 375 825 410 890 b 463 1031 456 985 463 1010 b 356 1115 463 1083 418 1110 b 328 1117 347 1117 338 1117 b 175 1093 282 1117 228 1108 b 142 1067 150 1086 142 1076 b 153 1053 142 1061 146 1056 b 190 1044 168 1049 181 1046 l 197 1044 b 231 1065 221 1044 224 1057 b 340 1082 253 1071 300 1082 b 360 1081 347 1082 354 1081 b 415 1035 390 1078 415 1069 b 393 958 411 1008 404 982 b -32 40 264 701 69 344 z "},"Î":{"ha":368,"x_min":0,"x_max":0,"o":"m 426 1250 l 464 1133 b 482 1121 468 1125 475 1121 b 501 1139 492 1121 501 1126 b 499 1150 501 1143 500 1146 b 433 1293 465 1243 463 1293 b 289 1190 411 1293 372 1260 b 278 1169 281 1183 278 1176 b 297 1150 278 1160 286 1150 l 300 1151 b 426 1250 318 1157 364 1213 z m -32 40 b -7 14 -32 25 -22 15 l -3 14 b 19 24 6 14 15 17 b 47 71 42 53 47 64 b 36 90 47 78 36 76 b 44 121 36 97 39 107 b 339 763 113 306 238 588 b 442 954 375 825 410 890 b 463 1031 456 985 463 1010 b 356 1115 463 1083 418 1110 b 328 1117 347 1117 338 1117 b 175 1093 282 1117 228 1108 b 142 1067 150 1086 142 1076 b 153 1053 142 1061 146 1056 b 190 1044 168 1049 181 1046 l 197 1044 b 231 1065 221 1044 224 1057 b 340 1082 253 1071 300 1082 b 360 1081 347 1082 354 1081 b 415 1035 390 1078 415 1069 b 393 958 411 1008 404 982 b -32 40 264 701 69 344 z "},"Ï":{"ha":368,"x_min":0,"x_max":0,"o":"m 390 1232 l 386 1232 b 351 1188 361 1214 351 1199 b 381 1167 351 1174 367 1167 b 419 1211 403 1167 419 1190 b 390 1232 419 1222 413 1232 z m -32 40 b -7 14 -32 25 -22 15 l -3 14 b 19 24 6 14 15 17 b 47 71 42 53 47 64 b 36 90 47 78 36 76 b 44 121 36 97 39 107 b 339 763 113 306 238 588 b 442 954 375 825 410 890 b 463 1031 456 985 463 1010 b 356 1115 463 1083 418 1110 b 328 1117 347 1117 338 1117 b 175 1093 282 1117 228 1108 b 142 1067 150 1086 142 1076 b 153 1053 142 1061 146 1056 b 190 1044 168 1049 181 1046 l 197 1044 b 231 1065 221 1044 224 1057 b 340 1082 253 1071 300 1082 b 360 1081 347 1082 354 1081 b 415 1035 390 1078 415 1069 b 393 958 411 1008 404 982 b -32 40 264 701 69 344 z m 482 1179 b 508 1150 482 1160 494 1150 b 543 1194 525 1150 543 1164 l 543 1197 b 521 1221 543 1214 533 1221 b 482 1179 504 1221 483 1204 z "},"Ḯ":{"ha":368,"x_min":0,"x_max":0,"o":"m 231 1065 b 340 1082 253 1071 300 1082 b 360 1081 347 1082 354 1081 b 415 1035 390 1078 415 1069 b 393 958 411 1008 404 982 b -32 40 264 701 69 344 b -7 14 -32 25 -22 14 l -3 14 b 19 24 6 14 15 17 b 47 71 42 53 47 64 b 36 90 47 78 36 76 b 44 121 36 97 39 107 b 339 763 113 306 238 588 b 442 954 375 825 410 890 b 463 1031 456 985 463 1010 b 356 1115 463 1083 418 1110 b 328 1117 347 1117 338 1117 b 175 1093 282 1117 228 1108 b 142 1067 150 1086 142 1076 b 153 1053 142 1061 146 1056 b 190 1044 168 1049 181 1044 l 197 1044 b 231 1065 221 1044 224 1057 z m 315 1156 b 346 1133 315 1142 331 1133 b 385 1178 367 1133 385 1160 b 354 1199 385 1190 376 1199 l 351 1199 b 315 1156 325 1181 315 1165 z m 419 1281 b 436 1265 419 1272 425 1265 b 451 1268 440 1265 446 1267 l 535 1357 b 557 1386 540 1364 557 1371 b 556 1396 557 1389 557 1393 b 539 1407 553 1401 546 1403 b 419 1281 517 1393 419 1308 z m 447 1147 b 474 1117 447 1126 460 1117 b 507 1163 489 1117 507 1132 l 507 1164 b 486 1188 507 1181 497 1188 b 447 1147 468 1188 447 1172 z "},"İ":{"ha":368,"x_min":0,"x_max":0,"o":"m 357 1256 b 326 1206 340 1247 331 1229 b 325 1200 325 1204 325 1201 b 333 1175 325 1192 328 1182 b 356 1163 339 1167 347 1163 b 399 1224 381 1163 397 1204 l 399 1229 b 372 1258 399 1250 386 1258 b 357 1256 367 1258 363 1257 z m -32 40 b -7 14 -32 25 -22 15 l -3 14 b 19 24 6 14 15 17 b 47 71 42 53 47 64 b 36 90 47 78 36 76 b 44 121 36 97 39 107 b 339 763 113 306 238 588 b 442 954 375 825 410 890 b 463 1031 456 985 463 1010 b 356 1115 463 1083 418 1110 b 328 1117 347 1117 338 1117 b 175 1093 282 1117 228 1108 b 142 1067 150 1086 142 1076 b 153 1053 142 1061 146 1056 b 190 1044 168 1049 181 1046 l 197 1044 b 231 1065 221 1044 224 1057 b 340 1082 253 1071 300 1082 b 360 1081 347 1082 354 1081 b 415 1035 390 1078 415 1069 b 393 958 411 1008 404 982 b -32 40 264 701 69 344 z "},"Ị":{"ha":368,"x_min":0,"x_max":0,"o":"m 231 1065 b 340 1082 253 1071 300 1082 b 360 1081 347 1082 354 1081 b 415 1035 390 1078 415 1069 b 393 958 411 1008 404 982 b -32 40 264 701 69 344 b -7 14 -32 25 -22 14 l -3 14 b 19 24 6 14 15 17 b 47 71 42 53 47 64 b 36 90 47 78 36 76 b 44 121 36 97 39 107 b 339 763 113 306 238 588 b 442 954 375 825 410 890 b 463 1031 456 985 463 1010 b 356 1115 463 1083 418 1110 b 328 1117 347 1117 338 1117 b 175 1093 282 1117 228 1108 b 142 1067 150 1086 142 1076 b 153 1053 142 1061 146 1056 b 190 1044 168 1049 181 1044 l 197 1044 b 231 1065 221 1044 224 1057 z m -137 -183 b -107 -221 -137 -200 -125 -221 b -64 -160 -82 -221 -64 -181 b -106 -128 -64 -126 -82 -122 b -137 -183 -122 -136 -137 -172 z "},"Ȉ":{"ha":368,"x_min":0,"x_max":0,"o":"m 376 1181 b 383 1192 381 1182 382 1188 b 382 1201 383 1194 382 1197 b 368 1249 379 1217 375 1235 b 303 1357 351 1288 331 1325 b 290 1367 300 1363 297 1367 l 288 1367 b 281 1364 286 1367 283 1365 b 269 1346 274 1360 269 1351 l 269 1343 b 274 1333 269 1340 271 1336 b 358 1186 308 1288 342 1242 b 365 1178 360 1182 360 1179 l 369 1178 b 376 1181 372 1178 375 1179 z m -32 40 b -7 14 -32 25 -22 15 l -3 14 b 19 24 6 14 15 17 b 47 71 42 53 47 64 b 36 90 47 78 36 76 b 44 121 36 97 39 107 b 339 763 113 306 238 588 b 442 954 375 825 410 890 b 463 1031 456 985 463 1010 b 356 1115 463 1083 418 1110 b 328 1117 347 1117 338 1117 b 175 1093 282 1117 228 1108 b 142 1067 150 1086 142 1076 b 153 1053 142 1061 146 1056 b 190 1044 168 1049 181 1046 l 197 1044 b 231 1065 221 1044 224 1057 b 340 1082 253 1071 300 1082 b 360 1081 347 1082 354 1081 b 415 1035 390 1078 415 1069 b 393 958 411 1008 404 982 b -32 40 264 701 69 344 z m 169 1335 l 174 1326 l 203 1293 b 271 1185 232 1256 254 1229 b 278 1176 272 1181 272 1179 b 282 1178 278 1176 281 1178 b 289 1181 285 1179 288 1179 b 294 1192 293 1183 294 1189 b 293 1201 294 1196 293 1199 b 229 1321 282 1246 256 1283 b 201 1351 222 1332 213 1342 b 189 1360 199 1356 194 1360 l 186 1360 b 179 1356 183 1360 182 1358 b 169 1339 172 1351 169 1346 z "},"Ì":{"ha":368,"x_min":0,"x_max":0,"o":"m 389 1272 b 367 1256 374 1272 367 1265 b 421 1160 367 1229 407 1181 b 440 1147 426 1150 433 1147 b 458 1165 450 1147 458 1154 b 454 1179 458 1169 457 1174 l 404 1261 b 389 1272 400 1267 392 1269 z m -32 40 b -7 14 -32 25 -22 15 l -3 14 b 19 24 6 14 15 17 b 47 71 42 53 47 64 b 36 90 47 78 36 76 b 44 121 36 97 39 107 b 339 763 113 306 238 588 b 442 954 375 825 410 890 b 463 1031 456 985 463 1010 b 356 1115 463 1083 418 1110 b 328 1117 347 1117 338 1117 b 175 1093 282 1117 228 1108 b 142 1067 150 1086 142 1076 b 153 1053 142 1061 146 1056 b 190 1044 168 1049 181 1046 l 197 1044 b 231 1065 221 1044 224 1057 b 340 1082 253 1071 300 1082 b 360 1081 347 1082 354 1081 b 415 1035 390 1078 415 1069 b 393 958 411 1008 404 982 b -32 40 264 701 69 344 z "},"Ỉ":{"ha":368,"x_min":0,"x_max":0,"o":"m 231 1065 b 340 1082 253 1071 300 1082 b 360 1081 347 1082 354 1081 b 415 1035 390 1078 415 1069 b 393 958 411 1008 404 982 b -32 40 264 701 69 344 b -7 14 -32 25 -22 14 l -3 14 b 19 24 6 14 15 17 b 47 71 42 53 47 64 b 36 90 47 78 36 76 b 44 121 36 97 39 107 b 339 763 113 306 238 588 b 442 954 375 825 410 890 b 463 1031 456 985 463 1010 b 356 1115 463 1083 418 1110 b 328 1117 347 1117 338 1117 b 175 1093 282 1117 228 1108 b 142 1067 150 1086 142 1076 b 153 1053 142 1061 146 1056 b 190 1044 168 1049 181 1044 l 197 1044 b 231 1065 221 1044 224 1057 z m 375 1146 b 393 1132 375 1140 383 1133 b 421 1129 401 1131 411 1129 b 582 1228 483 1129 560 1168 l 582 1231 b 454 1317 582 1243 557 1304 b 426 1314 444 1317 435 1315 b 408 1303 414 1313 408 1307 b 440 1275 408 1293 422 1275 b 450 1276 443 1275 447 1275 b 469 1278 457 1276 464 1278 b 536 1233 503 1274 536 1249 b 403 1161 535 1211 479 1161 l 393 1161 b 375 1147 378 1161 375 1151 z "},"Ī":{"ha":368,"x_min":0,"x_max":0,"o":"m 261 1204 b 229 1183 249 1203 235 1203 b 251 1182 238 1182 244 1182 l 261 1182 b 329 1183 283 1182 306 1183 l 346 1183 b 426 1175 372 1183 401 1176 l 428 1175 b 451 1193 442 1175 451 1183 b 436 1206 451 1199 447 1204 b 363 1211 411 1210 386 1211 b 261 1204 328 1211 294 1208 z m -32 40 b -7 14 -32 25 -22 15 l -3 14 b 19 24 6 14 15 17 b 47 71 42 53 47 64 b 36 90 47 78 36 76 b 44 121 36 97 39 107 b 339 763 113 306 238 588 b 442 954 375 825 410 890 b 463 1031 456 985 463 1010 b 356 1115 463 1083 418 1110 b 328 1117 347 1117 338 1117 b 175 1093 282 1117 228 1108 b 142 1067 150 1086 142 1076 b 153 1053 142 1061 146 1056 b 190 1044 168 1049 181 1046 l 197 1044 b 231 1065 221 1044 224 1057 b 340 1082 253 1071 300 1082 b 360 1081 347 1082 354 1081 b 415 1035 390 1078 415 1069 b 393 958 411 1008 404 982 b -32 40 264 701 69 344 z "},"Į":{"ha":368,"x_min":0,"x_max":0,"o":"m 231 1065 b 340 1082 253 1071 300 1082 b 360 1081 347 1082 354 1081 b 415 1035 390 1078 415 1069 b 393 958 411 1008 404 982 b -21 74 268 711 83 369 b -118 1 -65 71 -104 47 b -124 -33 -121 -8 -124 -21 l -124 -43 b -4 -153 -114 -107 -57 -153 b 10 -151 1 -153 6 -151 b 43 -139 21 -150 32 -146 b 57 -121 50 -135 57 -126 l 57 -119 b 44 -112 56 -117 53 -112 b 36 -114 42 -112 39 -114 l 33 -114 b 18 -115 28 -115 22 -115 b -33 -101 0 -115 -17 -110 b -89 -22 -64 -85 -83 -60 b -90 -12 -89 -18 -90 -15 b -76 19 -90 1 -85 11 b -44 35 -67 28 -56 33 l -32 35 b -7 14 -29 22 -21 14 l -3 14 b 19 24 6 14 15 17 b 47 71 42 53 47 64 b 36 90 47 78 36 76 b 44 121 36 97 39 107 b 339 763 113 306 238 588 b 442 954 375 825 410 890 b 463 1031 456 985 463 1010 b 356 1115 463 1083 418 1110 b 328 1117 347 1117 338 1117 b 175 1093 282 1117 228 1108 b 142 1067 150 1086 142 1076 b 153 1053 142 1061 146 1056 b 190 1044 168 1049 181 1044 l 197 1044 b 231 1065 221 1044 224 1057 z "},"Ĩ":{"ha":368,"x_min":0,"x_max":0,"o":"m 333 1258 l 328 1258 b 218 1186 281 1258 218 1213 b 225 1175 218 1182 221 1178 b 240 1168 231 1171 236 1168 b 282 1203 261 1168 275 1197 b 318 1217 297 1213 308 1217 b 401 1172 351 1217 363 1172 b 497 1244 435 1172 497 1210 b 486 1256 497 1251 494 1256 b 447 1236 478 1256 465 1250 b 401 1215 426 1221 413 1215 b 333 1258 374 1215 372 1258 z m -32 40 b -7 14 -32 25 -22 15 l -3 14 b 19 24 6 14 15 17 b 47 71 42 53 47 64 b 36 90 47 78 36 76 b 44 121 36 97 39 107 b 339 763 113 306 238 588 b 442 954 375 825 410 890 b 463 1031 456 985 463 1010 b 356 1115 463 1083 418 1110 b 328 1117 347 1117 338 1117 b 175 1093 282 1117 228 1108 b 142 1067 150 1086 142 1076 b 153 1053 142 1061 146 1056 b 190 1044 168 1049 181 1046 l 197 1044 b 231 1065 221 1044 224 1057 b 340 1082 253 1071 300 1082 b 360 1081 347 1082 354 1081 b 415 1035 390 1078 415 1069 b 393 958 411 1008 404 982 b -32 40 264 701 69 344 z "},"J":{"ha":861,"x_min":0,"x_max":0,"o":"m 969 926 b 846 850 929 903 888 876 b 843 849 846 850 844 849 l 838 844 b 835 843 836 844 836 843 b 829 842 833 842 831 842 b 824 856 824 842 824 849 l 824 890 b 651 1078 824 1024 751 1078 b 629 1076 644 1078 636 1076 b 186 844 492 1067 311 968 b 124 749 142 800 124 769 l 124 746 b 146 721 124 728 135 721 l 149 721 b 171 736 157 721 171 726 l 171 742 b 626 1035 171 825 446 1035 l 644 1035 b 782 882 724 1035 782 994 b 781 857 782 874 781 865 l 781 851 l 779 840 l 779 835 b 739 775 779 807 763 790 b 6 24 569 654 6 249 l 6 17 b 71 -44 6 -25 29 -44 l 82 -44 b 481 218 169 -44 322 49 b 826 788 797 556 776 754 b 989 894 863 813 921 856 b 996 907 993 897 996 901 b 978 929 996 917 989 929 b 969 926 975 929 972 928 z m 50 22 l 50 31 b 513 553 79 188 317 393 l 558 590 b 688 690 600 624 643 658 b 740 724 701 700 726 718 b 746 725 743 725 744 725 b 750 718 750 725 750 722 b 747 706 750 714 749 710 b 701 601 732 671 718 635 b 86 -6 518 228 194 -6 l 82 -6 b 50 22 63 -6 50 3 z "},"Ĵ":{"ha":861,"x_min":0,"x_max":0,"o":"m 740 1253 l 778 1136 b 796 1122 781 1126 789 1122 b 814 1142 806 1122 814 1129 b 813 1153 814 1144 814 1149 b 747 1296 779 1246 775 1296 b 601 1192 724 1296 685 1263 b 592 1172 594 1186 592 1178 b 608 1153 592 1161 599 1153 b 615 1154 611 1153 613 1153 b 740 1253 631 1160 678 1214 z m 6 17 b 71 -44 6 -25 29 -44 l 82 -44 b 481 218 169 -39 322 49 b 826 788 797 556 776 754 b 989 894 863 813 921 856 b 996 907 993 897 996 901 b 978 929 996 917 989 929 b 969 926 975 929 972 928 b 846 850 929 903 888 876 b 843 849 846 850 844 849 l 838 844 b 835 843 836 844 836 843 b 829 842 833 842 831 842 b 824 856 824 842 824 849 l 824 890 b 651 1078 824 1024 751 1078 b 629 1076 644 1078 636 1076 b 186 844 492 1067 311 968 b 124 749 142 800 125 769 l 124 746 b 146 721 124 728 135 721 l 149 721 b 171 736 157 721 169 726 l 171 742 b 626 1035 172 825 446 1022 l 644 1035 b 782 882 724 1035 782 994 b 781 857 782 874 781 865 l 781 851 l 779 840 l 779 835 b 739 775 775 807 763 790 b 6 24 569 654 21 249 z m 50 22 l 50 31 b 513 553 79 188 314 396 l 558 590 b 688 690 600 624 643 658 b 740 724 701 700 726 718 b 746 725 743 725 744 725 b 750 718 750 725 750 722 b 747 706 750 714 749 710 b 701 601 732 671 718 635 b 86 -6 518 228 194 3 l 82 -6 b 50 22 63 -6 50 3 z "},"K":{"ha":617,"x_min":0,"x_max":0,"o":"m 35 918 b 347 1038 92 954 279 1038 l 351 1039 b 399 985 393 1036 399 1015 b 369 872 399 946 381 897 b 235 588 343 813 267 639 b 226 581 232 583 229 581 b 218 588 224 581 221 583 b 169 715 197 626 182 672 b 188 739 183 722 188 731 b 151 771 188 756 168 771 b 129 744 139 771 129 764 l 129 740 b 196 538 129 671 167 600 b 200 522 199 532 200 528 b 74 300 200 497 94 326 b -18 144 53 274 -18 176 b 1 119 -18 131 -11 119 b 44 157 13 119 28 131 b 235 421 147 321 99 268 b 249 431 239 425 244 431 b 257 424 251 431 254 429 b 365 254 293 367 326 310 b 492 96 404 197 446 147 b 560 61 508 78 535 61 b 604 88 576 61 592 68 b 608 103 607 93 608 99 b 590 122 608 114 601 122 b 576 118 586 122 581 121 b 551 106 564 110 558 106 b 528 121 544 106 539 111 b 301 431 440 201 361 329 b 283 468 289 453 283 461 b 303 493 283 475 290 481 b 878 1026 489 678 675 863 b 889 1044 886 1032 889 1039 b 869 1065 889 1056 878 1064 b 838 1049 860 1065 844 1054 b 275 525 636 889 457 707 b 258 515 269 519 263 515 b 254 522 256 515 254 517 b 260 540 254 526 256 532 b 428 921 328 683 378 764 b 439 988 435 940 439 964 b 367 1079 439 1033 422 1076 l 356 1079 b -32 928 260 1079 43 976 b -44 903 -40 921 -44 911 b -28 883 -44 893 -39 883 l -25 883 b 35 918 -6 886 35 892 z "},"Ǩ":{"ha":617,"x_min":0,"x_max":0,"o":"m 617 1050 b 657 1076 631 1050 642 1060 b 757 1203 735 1165 757 1188 b 749 1213 756 1208 754 1213 b 731 1203 744 1213 739 1210 b 643 1106 718 1192 689 1157 b 626 1096 639 1100 632 1096 l 624 1096 b 547 1147 603 1097 565 1131 l 517 1175 b 501 1189 511 1179 507 1185 b 483 1197 497 1193 492 1197 b 467 1185 474 1197 468 1194 l 467 1178 b 494 1146 475 1167 483 1156 b 585 1064 524 1118 554 1090 b 617 1050 597 1056 607 1050 z m -44 903 b -28 883 -44 893 -39 883 l -25 883 b 35 918 -6 886 35 892 b 347 1038 92 954 279 1038 l 351 1039 b 399 985 393 1036 399 1015 b 369 872 399 946 381 897 b 235 588 343 813 267 639 b 226 581 232 583 229 581 b 218 588 224 581 221 583 b 169 715 197 626 182 672 b 188 739 183 722 188 731 b 151 771 188 756 168 771 b 129 744 139 771 129 764 l 129 740 b 196 538 129 671 167 600 b 200 522 199 532 200 528 b 74 300 200 497 94 326 b -18 144 53 274 -18 176 b 1 119 -18 131 -11 119 b 44 157 13 119 28 131 b 235 421 147 321 99 268 b 249 431 239 425 244 431 b 257 424 251 431 254 429 b 365 254 293 367 326 310 b 492 96 404 197 446 147 b 560 61 508 78 535 61 b 604 88 576 61 592 68 b 608 103 607 93 608 99 b 590 122 608 114 601 122 b 576 118 586 122 581 121 b 551 106 564 110 558 106 b 528 121 544 106 539 111 b 301 431 440 201 361 329 b 283 468 289 453 283 461 b 303 493 283 475 290 481 b 878 1026 489 678 675 863 b 889 1044 886 1032 889 1039 b 869 1065 889 1056 878 1064 b 838 1049 860 1065 844 1054 b 275 525 636 889 457 707 b 258 515 269 519 263 515 b 254 522 256 515 254 517 b 260 540 254 526 256 532 b 428 921 328 683 378 764 b 439 988 435 940 439 964 b 367 1079 439 1033 422 1076 l 356 1079 b -32 928 260 1079 43 976 b -44 903 -40 921 -44 911 z "},"Ķ":{"ha":617,"x_min":0,"x_max":0,"o":"m 35 918 b 347 1038 92 954 279 1038 l 351 1039 b 399 985 393 1036 399 1015 b 369 872 399 946 381 897 b 235 588 343 813 267 639 b 226 581 232 583 229 581 b 218 588 224 581 221 583 b 169 715 197 626 182 672 b 188 739 183 722 188 731 b 151 771 188 756 168 771 b 129 744 139 771 129 764 l 129 740 b 196 538 129 671 167 600 b 200 522 199 532 200 528 b 74 300 200 497 94 326 b -18 144 53 274 -18 176 b 1 119 -18 131 -11 119 b 44 157 13 119 28 131 b 235 421 147 321 99 268 b 249 431 239 425 244 431 b 257 424 251 431 254 429 b 365 254 293 367 326 310 b 492 96 404 197 446 147 b 560 61 508 78 535 61 b 604 88 576 61 592 68 b 608 103 607 93 608 99 b 590 122 608 114 601 122 b 576 118 586 122 581 121 b 551 106 564 110 558 106 b 528 121 544 106 539 111 b 301 431 440 201 361 329 b 283 468 289 453 283 461 b 303 493 283 475 290 481 b 878 1026 489 678 675 863 b 889 1044 886 1032 889 1039 b 869 1065 889 1056 878 1064 b 838 1049 860 1065 844 1054 b 275 525 636 889 457 707 b 258 515 269 519 263 515 b 254 522 256 515 254 517 b 260 540 254 526 256 532 b 428 921 328 683 378 764 b 439 988 435 940 439 964 b 367 1079 439 1033 422 1076 l 356 1079 b -32 928 260 1079 43 976 b -44 903 -40 921 -44 911 b -28 883 -44 893 -39 883 l -25 883 b 35 918 -6 886 35 892 z m 178 17 b 196 7 178 13 189 7 b 201 10 199 7 201 7 b 247 106 217 43 231 75 b 268 171 258 124 268 147 b 229 213 268 190 249 208 l 219 213 b 208 211 215 213 213 213 b 182 179 192 207 182 193 b 186 167 182 175 183 171 b 224 153 197 154 214 153 l 232 153 b 206 92 222 131 213 111 b 181 25 196 69 188 49 b 178 17 179 22 178 19 z "},"Ḵ":{"ha":617,"x_min":0,"x_max":0,"o":"m 35 918 b 347 1038 92 954 279 1038 l 351 1039 b 399 985 393 1036 399 1015 b 369 872 399 946 381 897 b 235 588 343 813 267 639 b 226 581 232 583 229 581 b 218 588 224 581 221 583 b 169 715 197 626 182 672 b 188 739 183 722 188 731 b 151 771 188 756 168 771 b 129 744 139 771 129 764 l 129 740 b 196 538 129 671 167 600 b 200 522 199 532 200 528 b 74 300 200 497 94 326 b -18 144 53 274 -18 176 b 1 119 -18 131 -11 119 b 44 157 13 119 28 131 b 235 421 147 321 99 268 b 249 431 239 425 244 431 b 257 424 251 431 254 429 b 365 254 293 367 326 310 b 492 96 404 197 446 147 b 560 61 508 78 535 61 b 604 88 576 61 592 68 b 608 103 607 93 608 99 b 590 122 608 114 601 122 b 576 118 586 122 581 121 b 551 106 564 110 558 106 b 528 121 544 106 539 111 b 301 431 440 201 361 329 b 283 468 289 453 283 461 b 303 493 283 475 290 481 b 878 1026 489 678 675 863 b 889 1044 886 1032 889 1039 b 869 1065 889 1056 878 1064 b 838 1049 860 1065 844 1054 b 275 525 636 889 457 707 b 258 515 269 519 263 515 b 254 522 256 515 254 517 b 260 540 254 526 256 532 b 428 921 328 683 378 764 b 439 988 435 940 439 964 b 367 1079 439 1033 422 1076 l 356 1079 b -32 928 260 1079 43 976 b -44 903 -40 921 -44 911 b -28 883 -44 893 -39 883 l -25 883 b 35 918 -6 886 35 892 z m -18 -128 b 42 -129 6 -129 24 -129 l 61 -129 b 231 -128 119 -129 175 -128 l 275 -128 b 475 -136 336 -128 410 -136 l 478 -136 b 538 -117 513 -136 538 -128 b 494 -103 538 -111 524 -104 b 313 -97 433 -99 374 -97 b 61 -104 231 -97 147 -100 b -18 -128 33 -106 -4 -106 z "},"L":{"ha":461,"x_min":0,"x_max":0,"o":"m 447 888 b 457 886 450 886 453 886 b 478 894 465 886 474 889 l 551 1038 b 553 1049 553 1042 553 1044 b 532 1069 553 1061 543 1069 b 508 1057 524 1069 515 1065 b 82 146 371 889 168 350 b 42 113 74 126 64 115 b -158 74 29 110 -126 89 b -167 63 -165 69 -168 67 l -165 57 b -161 47 -164 54 -164 51 b -144 39 -156 42 -150 39 b -128 44 -140 39 -135 42 b 38 74 -125 44 18 74 b 49 65 43 74 49 71 b 47 63 49 65 47 64 b 4 -64 42 43 4 -28 b 15 -83 4 -74 7 -81 l 18 -83 b 86 44 46 -83 81 29 b 119 89 93 65 96 85 b 481 125 207 101 392 124 b 517 119 490 125 504 119 b 549 147 531 119 549 132 b 511 164 549 161 529 164 b 489 163 503 164 494 164 l 199 135 b 135 128 167 132 146 128 b 122 135 125 128 122 131 b 139 179 122 142 129 156 b 447 888 224 381 346 696 z "},"Ĺ":{"ha":461,"x_min":0,"x_max":0,"o":"m 449 1179 b 340 1076 406 1153 375 1113 b 329 1053 333 1068 329 1060 b 346 1036 329 1043 335 1036 b 361 1040 350 1036 356 1038 l 444 1129 b 467 1158 450 1135 467 1143 b 465 1168 467 1161 467 1164 b 449 1179 463 1172 456 1175 z m -167 63 l -165 57 b -161 47 -164 54 -164 51 b -144 39 -156 42 -150 39 b -128 44 -140 39 -135 42 b 38 74 -125 44 18 74 b 49 65 43 74 49 71 b 47 63 49 65 47 64 b 4 -64 42 43 4 -28 b 15 -83 4 -74 7 -81 l 18 -83 b 86 44 46 -83 81 29 b 119 89 93 65 96 85 b 481 125 207 101 392 124 b 517 119 490 125 504 119 b 549 147 531 119 549 132 b 511 164 549 161 529 164 b 489 163 503 164 494 164 l 199 135 b 135 128 167 132 146 128 b 122 135 125 128 122 131 b 139 179 122 142 129 156 b 447 888 224 381 346 696 b 457 886 450 886 453 886 b 478 894 465 886 474 889 l 551 1038 b 553 1049 553 1042 553 1044 b 532 1069 553 1061 543 1069 b 508 1057 524 1069 515 1065 b 82 146 371 889 168 350 b 42 113 74 126 64 115 b -158 74 29 110 -126 89 b -167 63 -165 69 -167 67 z "},"Ľ":{"ha":461,"x_min":0,"x_max":0,"o":"m 447 888 b 457 886 450 886 453 886 b 478 894 465 886 474 889 l 551 1038 b 553 1049 553 1042 553 1044 b 532 1069 553 1061 543 1069 b 508 1057 524 1069 515 1065 b 82 146 371 889 168 350 b 42 113 74 126 64 115 b -158 74 29 110 -126 89 b -167 63 -165 69 -167 67 l -165 57 b -161 47 -164 54 -164 51 b -144 39 -156 42 -150 39 b -128 44 -140 39 -135 42 b 38 74 -125 44 18 74 b 49 65 43 74 49 71 b 47 63 49 65 47 64 b 4 -64 42 43 4 -28 b 15 -83 4 -74 7 -81 l 18 -83 b 86 44 46 -83 81 29 b 119 89 93 65 96 85 b 481 125 207 101 392 124 b 517 119 490 125 504 119 b 549 147 531 119 549 132 b 511 164 549 161 529 164 b 489 163 503 164 494 164 l 199 135 b 135 128 167 132 146 128 b 122 135 125 128 122 131 b 139 179 122 142 129 156 b 447 888 224 381 346 696 z m 525 801 b 543 779 525 790 531 779 b 563 793 550 779 557 783 b 644 925 594 847 617 879 b 658 964 654 942 658 954 b 629 990 658 983 644 990 b 593 965 611 990 593 981 b 604 936 593 956 600 946 b 526 806 588 910 535 835 z "},"Ļ":{"ha":461,"x_min":0,"x_max":0,"o":"m 447 888 b 457 886 450 886 453 886 b 478 894 465 886 474 889 l 551 1038 b 553 1049 553 1042 553 1044 b 532 1069 553 1061 543 1069 b 508 1057 524 1069 515 1065 b 82 146 371 889 168 350 b 42 113 74 126 64 115 b -158 74 29 110 -126 89 b -167 63 -165 69 -167 67 l -165 57 b -161 47 -164 54 -164 51 b -144 39 -156 42 -150 39 b -128 44 -140 39 -135 42 b 38 74 -125 44 18 74 b 49 65 43 74 49 71 b 47 63 49 65 47 64 b 4 -64 42 43 4 -28 b 15 -83 4 -74 7 -81 l 18 -83 b 86 44 46 -83 81 29 b 119 89 93 65 96 85 b 481 125 207 101 392 124 b 517 119 490 125 504 119 b 549 147 531 119 549 132 b 511 164 549 161 529 164 b 489 163 503 164 494 164 l 199 135 b 135 128 167 132 146 128 b 122 135 125 128 122 131 b 139 179 122 142 129 156 b 447 888 224 381 346 696 z m 149 -151 b 167 -161 149 -156 160 -161 b 172 -158 169 -161 172 -161 b 218 -62 188 -125 201 -93 b 239 4 229 -44 239 -21 b 200 44 239 22 219 40 b 190 46 197 46 193 46 l 188 46 l 182 44 l 179 44 b 153 13 163 40 153 25 b 157 -1 153 7 154 3 b 194 -15 168 -14 185 -15 l 203 -15 b 176 -76 193 -37 183 -57 b 151 -143 167 -99 158 -119 b 149 -151 150 -146 149 -149 z "},"Ḽ":{"ha":461,"x_min":0,"x_max":0,"o":"m 447 888 b 457 886 450 886 453 886 b 478 894 465 886 474 889 l 551 1038 b 553 1049 553 1042 553 1044 b 532 1069 553 1061 543 1069 b 508 1057 524 1069 515 1065 b 82 146 371 889 168 350 b 42 113 74 126 64 115 b -158 74 29 110 -126 89 b -167 63 -165 69 -168 67 l -165 57 b -161 47 -164 54 -164 51 b -144 39 -156 42 -150 39 b -128 44 -140 39 -135 42 b 38 74 -125 44 18 74 b 49 65 43 74 49 71 b 47 63 49 65 47 64 b 4 -64 42 43 4 -28 b 15 -83 4 -74 7 -81 l 18 -83 b 86 44 46 -83 81 29 b 119 89 93 65 96 85 b 481 125 207 101 392 124 b 517 119 490 125 504 119 b 549 147 531 119 549 132 b 511 164 549 161 529 164 b 489 163 503 164 494 164 l 199 135 b 135 128 167 132 146 128 b 122 135 125 128 122 131 b 139 179 122 142 129 156 b 447 888 224 381 346 696 z m 86 -221 b 93 -231 86 -226 89 -231 b 113 -221 97 -231 104 -228 b 199 -124 124 -210 153 -175 b 217 -114 204 -118 210 -114 l 219 -114 b 279 -151 236 -114 258 -135 b 342 -207 301 -169 321 -189 b 360 -215 346 -211 351 -215 b 376 -203 369 -215 376 -212 l 376 -196 b 349 -164 368 -185 360 -174 b 257 -82 319 -136 289 -108 b 225 -68 246 -74 235 -68 b 186 -94 213 -68 200 -78 b 86 -221 108 -183 86 -206 z "},"Ḷ":{"ha":461,"x_min":0,"x_max":0,"o":"m 447 888 b 457 886 450 886 453 886 b 478 894 465 886 474 889 l 551 1038 b 553 1049 553 1042 553 1044 b 532 1069 553 1061 543 1069 b 508 1057 524 1069 515 1065 b 82 146 371 889 168 350 b 42 113 74 126 64 115 b -158 74 29 110 -126 89 b -167 63 -165 69 -168 67 l -165 57 b -161 47 -164 54 -164 51 b -144 39 -156 42 -150 39 b -128 44 -140 39 -135 42 b 38 74 -125 44 18 74 b 49 65 43 74 49 71 b 47 63 49 65 47 64 b 4 -64 42 43 4 -28 b 15 -83 4 -74 7 -81 l 18 -83 b 86 44 46 -83 81 29 b 119 89 93 65 96 85 b 481 125 207 101 392 124 b 517 119 490 125 504 119 b 549 147 531 119 549 132 b 511 164 549 161 529 164 b 489 163 503 164 494 164 l 199 135 b 135 128 167 132 146 128 b 122 135 125 128 122 131 b 139 179 122 142 129 156 b 447 888 224 381 346 696 z m 193 -168 b 224 -206 193 -185 206 -206 b 267 -144 249 -206 267 -165 b 225 -112 267 -111 249 -107 b 193 -168 208 -121 193 -157 z "},"Ḹ":{"ha":461,"x_min":0,"x_max":0,"o":"m 447 888 b 457 886 450 886 453 886 b 478 894 465 886 474 889 l 551 1038 b 553 1049 553 1042 553 1044 b 532 1069 553 1061 543 1069 b 508 1057 524 1069 515 1065 b 82 146 371 889 168 350 b 42 113 74 126 64 115 b -158 74 29 110 -126 89 b -167 63 -165 69 -168 67 l -165 57 b -161 47 -164 54 -164 51 b -144 39 -156 42 -150 39 b -128 44 -140 39 -135 42 b 38 74 -125 44 18 74 b 49 65 43 74 49 71 b 47 63 49 65 47 64 b 4 -64 42 43 4 -28 b 15 -83 4 -74 7 -81 l 18 -83 b 86 44 46 -83 81 29 b 119 89 93 65 96 85 b 481 125 207 101 392 124 b 517 119 490 125 504 119 b 549 147 531 119 549 132 b 511 164 549 161 529 164 b 489 163 503 164 494 164 l 199 135 b 135 128 167 132 146 128 b 122 135 125 128 122 131 b 139 179 122 142 129 156 b 447 888 224 381 346 696 z m 193 -168 b 224 -206 193 -185 206 -206 b 267 -144 249 -206 267 -165 b 225 -112 267 -111 249 -107 b 193 -168 208 -121 193 -157 z m 406 1210 b 447 1208 422 1208 435 1208 l 461 1208 b 579 1210 501 1208 540 1210 l 610 1210 b 750 1201 653 1210 704 1201 l 751 1201 b 793 1221 776 1201 793 1210 b 764 1235 793 1226 783 1233 b 636 1240 721 1239 679 1240 b 461 1233 579 1240 521 1238 b 406 1210 442 1232 415 1232 z "},"Ḻ":{"ha":461,"x_min":0,"x_max":0,"o":"m 447 888 b 457 886 450 886 453 886 b 478 894 465 886 474 889 l 551 1038 b 553 1049 553 1042 553 1044 b 532 1069 553 1061 543 1069 b 508 1057 524 1069 515 1065 b 82 146 371 889 168 350 b 42 113 74 126 64 115 b -158 74 29 110 -126 89 b -167 63 -165 69 -168 67 l -165 57 b -161 47 -164 54 -164 51 b -144 39 -156 42 -150 39 b -128 44 -140 39 -135 42 b 38 74 -125 44 18 74 b 49 65 43 74 49 71 b 47 63 49 65 47 64 b 4 -64 42 43 4 -28 b 15 -83 4 -74 7 -81 l 18 -83 b 86 44 46 -83 81 29 b 119 89 93 65 96 85 b 481 125 207 101 392 124 b 517 119 490 125 504 119 b 549 147 531 119 549 132 b 511 164 549 161 529 164 b 489 163 503 164 494 164 l 199 135 b 135 128 167 132 146 128 b 122 135 125 128 122 131 b 139 179 122 142 129 156 b 447 888 224 381 346 696 z m -96 -128 b -36 -129 -72 -129 -54 -129 l -17 -129 b 153 -128 42 -129 97 -128 l 197 -128 b 397 -136 258 -128 332 -136 l 400 -136 b 460 -117 435 -136 460 -128 b 417 -103 460 -111 446 -104 b 235 -97 356 -99 296 -97 b -17 -104 153 -97 69 -100 b -96 -128 -44 -106 -82 -106 z "},"Ŀ":{"ha":461,"x_min":0,"x_max":0,"o":"m 447 888 b 457 886 450 886 453 886 b 478 894 465 886 474 889 l 551 1038 b 553 1049 553 1042 553 1044 b 532 1069 553 1061 543 1069 b 508 1057 524 1069 515 1065 b 82 146 371 889 168 350 b 42 113 74 126 64 115 b -158 74 29 110 -126 89 b -167 63 -165 69 -167 67 l -165 57 b -161 47 -164 54 -164 51 b -144 39 -156 42 -150 39 b -128 44 -140 39 -135 42 b 38 74 -125 44 18 74 b 49 65 43 74 49 71 b 47 63 49 65 47 64 b 4 -64 42 43 4 -28 b 15 -83 4 -74 7 -81 l 18 -83 b 86 44 46 -83 81 29 b 119 89 93 65 96 85 b 481 125 207 101 392 124 b 517 119 490 125 504 119 b 549 147 531 119 549 132 b 511 164 549 161 529 164 b 489 163 503 164 494 164 l 199 135 b 135 128 167 132 146 128 b 122 135 125 128 122 131 b 139 179 122 142 129 156 b 447 888 224 381 346 696 z m 285 267 b 308 244 285 253 294 244 b 319 246 313 244 317 244 b 360 310 339 257 360 286 b 344 340 360 322 356 332 b 335 343 340 343 338 343 b 285 267 311 343 285 285 z "},"Ł":{"ha":461,"x_min":0,"x_max":0,"o":"m 447 888 b 457 886 450 886 453 886 b 478 894 465 886 474 889 l 551 1038 b 553 1049 553 1042 553 1044 b 532 1069 553 1061 543 1069 b 247 549 468 1069 275 614 l 97 533 b 78 515 88 533 78 525 b 85 503 78 510 81 506 b 103 497 89 499 96 497 b 208 504 136 499 172 501 b 231 506 215 504 222 506 b 82 146 169 363 117 228 b 42 113 74 126 64 115 b -158 74 29 110 -126 89 b -167 63 -165 69 -167 67 l -165 57 b -161 47 -164 54 -164 51 b -144 39 -156 42 -150 39 b -128 44 -140 39 -135 42 b 38 74 -125 44 18 74 b 49 65 43 74 49 71 b 47 63 49 65 47 64 b 4 -64 42 43 4 -28 b 15 -83 4 -74 7 -81 l 18 -83 b 86 44 46 -83 81 29 b 119 89 93 65 96 85 b 481 125 207 101 392 124 b 517 119 490 125 504 119 b 549 147 531 119 549 132 b 511 164 549 161 529 164 b 489 163 503 164 494 164 l 199 135 b 135 128 167 132 146 128 b 122 135 125 128 122 131 b 139 179 122 142 129 156 b 276 511 178 274 226 392 b 294 513 282 511 289 513 l 383 521 l 399 521 b 425 526 408 522 418 524 b 436 539 432 529 436 533 l 436 544 b 418 560 433 553 428 558 b 394 561 411 561 403 561 l 376 561 l 368 560 l 363 560 l 293 553 b 447 888 346 675 399 796 z "},"M":{"ha":1136,"x_min":0,"x_max":0,"o":"m 676 1036 b 469 882 610 1018 518 928 b 456 872 467 876 461 872 b 444 886 451 872 449 878 b 267 985 415 964 342 985 l 242 985 b 72 967 185 985 126 978 b 42 942 50 963 42 951 l 42 939 b 57 919 42 929 49 921 b 64 918 58 918 61 918 b 103 926 78 918 93 922 b 254 946 136 939 197 946 l 279 946 b 351 935 308 946 335 942 b 410 854 389 919 410 888 l 410 851 b 386 796 410 832 401 813 b 75 376 268 658 156 524 b 3 197 21 275 4 224 b 15 169 3 181 8 174 b 22 168 18 168 19 168 l 24 168 b 172 324 49 168 96 213 b 438 781 272 468 397 661 b 675 994 446 806 638 994 b 686 981 682 994 686 989 l 686 976 b 658 890 686 960 676 929 l 418 369 b 414 351 415 364 414 357 b 419 333 414 344 415 339 b 446 321 424 326 438 321 b 485 346 460 321 476 336 b 586 457 519 382 553 419 b 1050 935 683 567 890 796 b 1144 1008 1075 957 1126 1008 b 1150 1001 1149 1008 1150 1007 b 1135 954 1150 993 1146 978 b 724 -29 1001 675 790 272 b 721 -50 722 -36 721 -43 l 721 -53 b 768 -114 721 -94 746 -112 b 796 -97 781 -114 792 -108 b 797 -92 797 -96 797 -94 l 797 -90 b 763 -71 797 -78 774 -74 l 763 -33 b 1146 885 813 211 1035 644 b 1194 1000 1164 922 1179 961 b 1199 1022 1197 1008 1199 1015 l 1199 1025 b 1167 1060 1199 1046 1185 1058 b 1129 1047 1156 1060 1143 1057 l 1088 1018 b 692 632 943 904 815 767 b 507 428 629 564 568 496 b 489 410 501 422 494 414 b 483 406 486 407 485 406 l 481 406 b 479 410 479 407 479 408 b 486 429 479 415 485 425 b 717 935 569 603 644 754 b 728 986 722 947 726 967 b 694 1039 728 1013 721 1039 b 676 1036 690 1039 683 1039 z m 68 254 l 68 261 b 318 651 131 406 217 532 b 336 669 319 654 332 669 b 338 667 338 669 338 668 b 333 658 338 664 335 660 b 88 279 263 526 176 403 b 68 254 86 276 71 254 z "},"Ḿ":{"ha":1136,"x_min":0,"x_max":0,"o":"m 676 1036 b 469 882 610 1018 518 928 b 456 872 467 876 461 872 b 444 886 451 872 449 878 b 267 985 415 964 342 985 l 242 985 b 72 967 185 985 126 978 b 42 942 50 963 42 951 l 42 939 b 57 919 42 929 49 921 b 64 918 58 918 61 918 b 103 926 78 918 93 922 b 254 946 136 939 197 946 l 279 946 b 351 935 308 946 335 942 b 410 854 389 919 410 888 l 410 851 b 386 796 410 832 401 813 b 75 376 268 658 156 524 b 3 197 21 275 4 224 b 15 169 3 181 8 174 b 22 168 18 168 19 168 l 24 168 b 172 324 49 168 96 213 b 438 781 272 468 397 661 b 675 994 446 806 638 994 b 686 981 682 994 686 989 l 686 976 b 658 890 686 960 676 929 l 418 369 b 414 351 415 364 414 357 b 419 333 414 344 415 339 b 446 321 424 326 438 321 b 485 346 460 321 476 336 b 586 457 519 382 553 419 b 1050 935 683 567 890 796 b 1144 1008 1075 957 1126 1008 b 1150 1001 1149 1008 1150 1007 b 1135 954 1150 993 1146 978 b 724 -29 1001 675 790 272 b 721 -50 722 -36 721 -43 l 721 -53 b 768 -114 721 -94 746 -112 b 796 -97 781 -114 792 -108 b 797 -92 797 -96 797 -94 l 797 -90 b 763 -71 797 -78 774 -74 l 763 -33 b 1146 885 813 211 1035 644 b 1194 1000 1164 922 1179 961 b 1199 1022 1197 1008 1199 1015 l 1199 1025 b 1167 1060 1199 1046 1185 1058 b 1129 1047 1156 1060 1143 1057 l 1088 1018 b 692 632 943 904 815 767 b 507 428 629 564 568 496 b 489 410 501 422 494 414 b 483 406 486 407 485 406 l 481 406 b 479 410 479 407 479 408 b 486 429 479 415 485 425 b 717 935 569 603 644 754 b 728 986 722 947 726 967 b 694 1039 728 1013 721 1039 b 676 1036 690 1039 683 1039 z m 68 254 l 68 261 b 318 651 131 406 217 532 b 336 669 319 654 332 669 b 338 667 338 669 338 668 b 333 658 338 664 335 660 b 88 279 263 526 176 403 b 68 254 86 276 71 254 z m 906 1135 b 922 1119 906 1126 911 1119 b 938 1122 926 1119 932 1121 l 1021 1211 b 1043 1240 1026 1218 1043 1225 b 1042 1250 1043 1243 1043 1247 b 1025 1261 1039 1256 1032 1257 b 906 1135 1003 1247 906 1163 z "},"Ṁ":{"ha":1136,"x_min":0,"x_max":0,"o":"m 676 1036 b 469 882 610 1018 518 928 b 456 872 467 876 461 872 b 444 886 451 872 449 878 b 267 985 415 964 342 985 l 242 985 b 72 967 185 985 126 978 b 42 942 50 963 42 951 l 42 939 b 57 919 42 929 49 921 b 64 918 58 918 61 918 b 103 926 78 918 93 922 b 254 946 136 939 197 946 l 279 946 b 351 935 308 946 335 942 b 410 854 389 919 410 888 l 410 851 b 386 796 410 832 401 813 b 75 376 268 658 156 524 b 3 197 21 275 4 224 b 15 169 3 181 8 174 b 22 168 18 168 19 168 l 24 168 b 172 324 49 168 96 213 b 438 781 272 468 397 661 b 675 994 446 806 638 994 b 686 981 682 994 686 989 l 686 976 b 658 890 686 960 676 929 l 418 369 b 414 351 415 364 414 357 b 419 333 414 344 415 339 b 446 321 424 326 438 321 b 485 346 460 321 476 336 b 586 457 519 382 553 419 b 1050 935 683 567 890 796 b 1144 1008 1075 957 1126 1008 b 1150 1001 1149 1008 1150 1007 b 1135 954 1150 993 1146 978 b 724 -29 1001 675 790 272 b 721 -50 722 -36 721 -43 l 721 -53 b 768 -114 721 -94 746 -112 b 796 -97 781 -114 792 -108 b 797 -92 797 -96 797 -94 l 797 -90 b 763 -71 797 -78 774 -74 l 763 -33 b 1146 885 813 211 1035 644 b 1194 1000 1164 922 1179 961 b 1199 1022 1197 1008 1199 1015 l 1199 1025 b 1167 1060 1199 1046 1185 1058 b 1129 1047 1156 1060 1143 1057 l 1088 1018 b 692 632 943 904 815 767 b 507 428 629 564 568 496 b 489 410 501 422 494 414 b 483 406 486 407 485 406 l 481 406 b 479 410 479 407 479 408 b 486 429 479 415 485 425 b 717 935 569 603 644 754 b 728 986 722 947 726 967 b 694 1039 728 1013 721 1039 b 676 1036 690 1039 683 1039 z m 68 254 l 68 261 b 318 651 131 406 217 532 b 336 669 319 654 332 669 b 338 667 338 669 338 668 b 333 658 338 664 335 660 b 88 279 263 526 176 403 b 68 254 86 276 71 254 z m 938 1206 b 968 1168 938 1189 950 1168 b 1011 1229 993 1168 1011 1208 b 969 1261 1011 1263 993 1267 b 938 1206 953 1253 938 1217 z "},"Ṃ":{"ha":1136,"x_min":0,"x_max":0,"o":"m 676 1036 b 469 882 610 1018 518 928 b 456 872 467 876 461 872 b 444 886 451 872 449 878 b 267 985 415 964 342 985 l 242 985 b 72 967 185 985 126 978 b 42 942 50 963 42 951 l 42 939 b 57 919 42 929 49 921 b 64 918 58 918 61 918 b 103 926 78 918 93 922 b 254 946 136 939 197 946 l 279 946 b 351 935 308 946 335 942 b 410 854 389 919 410 888 l 410 851 b 386 796 410 832 401 813 b 75 376 268 658 156 524 b 3 197 21 275 4 224 b 15 169 3 181 8 174 b 22 168 18 168 19 168 l 24 168 b 172 324 49 168 96 213 b 438 781 272 468 397 661 b 675 994 446 806 638 994 b 686 981 682 994 686 989 l 686 976 b 658 890 686 960 676 929 l 418 369 b 414 351 415 364 414 357 b 419 333 414 344 415 339 b 446 321 424 326 438 321 b 485 346 460 321 476 336 b 586 457 519 382 553 419 b 1050 935 683 567 890 796 b 1144 1008 1075 957 1126 1008 b 1150 1001 1149 1008 1150 1007 b 1135 954 1150 993 1146 978 b 724 -29 1001 675 790 272 b 721 -50 722 -36 721 -43 l 721 -53 b 768 -114 721 -94 746 -112 b 796 -97 781 -114 792 -108 b 797 -92 797 -96 797 -94 l 797 -90 b 763 -71 797 -78 774 -74 l 763 -33 b 1146 885 813 211 1035 644 b 1194 1000 1164 922 1179 961 b 1199 1022 1197 1008 1199 1015 l 1199 1025 b 1167 1060 1199 1046 1185 1058 b 1129 1047 1156 1060 1143 1057 l 1088 1018 b 692 632 943 904 815 767 b 507 428 629 564 568 496 b 489 410 501 422 494 414 b 483 406 486 407 485 406 l 481 406 b 479 410 479 407 479 408 b 486 429 479 415 485 425 b 717 935 569 603 644 754 b 728 986 722 947 726 967 b 694 1039 728 1013 721 1039 b 676 1036 690 1039 683 1039 z m 68 254 l 68 261 b 318 651 131 406 217 532 b 336 669 319 654 332 669 b 338 667 338 669 338 668 b 333 658 338 664 335 660 b 88 279 263 526 176 403 b 68 254 86 276 71 254 z m 343 18 b 374 -19 343 1 356 -19 b 417 42 399 -19 417 21 b 375 74 417 75 399 79 b 343 18 358 65 343 29 z "},"N":{"ha":893,"x_min":0,"x_max":0,"o":"m 354 776 b 399 854 360 788 388 854 l 399 838 b 392 528 399 722 392 626 b 425 214 392 432 399 333 b 494 115 433 176 458 117 b 532 132 507 115 519 121 b 629 300 574 169 607 249 b 1021 1190 793 678 836 819 b 1026 1206 1024 1196 1025 1201 b 1010 1226 1026 1218 1019 1226 b 988 1213 1003 1226 994 1222 b 582 293 900 1071 663 481 b 501 167 560 243 529 167 l 500 167 b 461 233 486 167 472 186 b 436 528 442 313 436 418 b 442 843 436 638 442 751 b 400 1038 442 956 433 1036 b 306 928 361 1038 319 958 b -18 139 207 731 36 353 b -19 135 -18 138 -18 136 l -19 126 b -21 122 -21 125 -21 124 l -21 118 b -1 88 -21 100 -12 88 l 1 88 b 35 115 11 88 25 96 l 96 233 b 354 776 185 404 268 601 z m 90 326 b 96 346 92 333 93 339 b 131 438 106 376 118 408 b 333 892 190 592 257 746 b 371 957 346 914 353 939 l 372 958 b 388 975 375 964 382 975 l 389 975 b 397 964 394 975 396 969 l 401 924 b 360 878 378 917 368 899 b 90 326 325 808 114 356 z "},"Ń":{"ha":893,"x_min":0,"x_max":0,"o":"m 753 1267 b 633 1140 731 1253 633 1168 b 650 1125 633 1132 639 1125 b 665 1128 654 1125 660 1126 l 749 1217 b 771 1246 754 1224 771 1231 b 769 1256 771 1249 771 1253 b 753 1267 767 1261 760 1263 z m -21 118 b -1 88 -21 100 -12 88 l 1 88 b 35 115 11 88 24 96 l 96 233 b 354 776 181 406 268 601 b 399 854 360 788 388 854 l 399 838 b 392 528 399 722 392 626 b 425 214 392 432 399 333 b 494 115 433 176 458 117 b 532 132 507 115 519 121 b 629 300 574 169 607 249 b 1039 1226 793 678 854 856 b 1044 1242 1042 1232 1043 1238 b 1028 1263 1044 1254 1038 1263 b 1006 1249 1021 1263 1013 1258 b 582 293 918 1107 663 481 b 501 167 560 243 529 167 l 500 167 b 461 233 486 168 472 186 b 436 528 442 313 436 418 b 442 843 436 638 442 751 b 400 1038 442 956 433 1036 b 306 928 361 1038 319 958 b -18 139 207 731 36 353 b -19 135 -18 138 -18 136 l -19 126 b -21 122 -21 125 -21 124 z m 90 326 b 96 346 92 333 93 339 b 131 438 106 376 118 408 b 333 892 190 592 257 746 b 371 957 346 914 357 936 l 372 958 b 388 975 375 964 382 974 l 389 975 b 397 964 394 975 396 969 l 401 924 b 360 878 378 917 368 899 b 90 326 325 808 114 356 z "},"Ň":{"ha":893,"x_min":0,"x_max":0,"o":"m 354 776 b 399 854 360 788 388 854 l 399 838 b 392 528 399 722 392 626 b 425 214 392 432 399 333 b 494 115 433 176 458 117 b 532 132 507 115 519 121 b 629 300 574 169 607 249 b 1039 1226 793 678 854 856 b 1044 1242 1042 1232 1043 1238 b 1028 1263 1044 1254 1038 1263 b 1006 1249 1021 1263 1013 1258 b 582 293 918 1107 663 481 b 501 167 560 243 529 167 l 500 167 b 461 233 486 168 472 186 b 436 528 442 313 436 418 b 442 843 436 638 442 751 b 400 1038 442 956 433 1036 b 306 928 361 1038 319 958 b -18 139 207 731 36 353 b -19 135 -18 138 -18 136 l -19 126 b -21 122 -21 125 -21 124 l -21 118 b -1 88 -21 100 -12 88 l 1 88 b 35 115 11 88 24 96 l 96 233 b 354 776 181 406 268 601 z m 90 326 b 96 346 92 333 93 339 b 131 438 106 376 118 408 b 333 892 190 592 257 746 b 371 957 346 914 357 936 l 372 958 b 388 975 375 964 382 974 l 389 975 b 397 964 394 975 396 969 l 401 924 b 360 878 378 917 368 899 b 90 326 325 808 114 356 z m 540 1225 b 568 1193 549 1214 557 1203 b 660 1111 597 1165 628 1138 b 690 1097 671 1103 681 1097 b 731 1124 704 1097 715 1107 b 831 1250 808 1213 831 1235 b 822 1260 829 1256 828 1260 b 804 1250 818 1260 813 1257 b 717 1153 792 1239 763 1204 b 700 1143 713 1147 706 1143 l 697 1143 b 621 1194 676 1144 639 1178 l 590 1222 b 575 1236 585 1226 581 1232 b 557 1244 571 1240 565 1244 b 540 1232 547 1244 542 1242 z "},"Ņ":{"ha":893,"x_min":0,"x_max":0,"o":"m 354 776 b 399 854 360 788 388 854 l 399 838 b 392 528 399 722 392 626 b 425 214 392 432 399 333 b 494 115 433 176 458 117 b 532 132 507 115 519 121 b 629 300 574 169 607 249 b 1039 1226 793 678 854 856 b 1044 1242 1042 1232 1043 1238 b 1028 1263 1044 1254 1038 1263 b 1006 1249 1021 1263 1013 1258 b 582 293 918 1107 663 481 b 501 167 560 243 529 167 l 500 167 b 461 233 486 167 472 186 b 436 528 442 313 436 418 b 442 843 436 638 442 751 b 400 1038 442 956 433 1036 b 306 928 361 1038 319 958 b -18 139 207 731 36 353 b -19 135 -18 138 -18 136 l -19 126 b -21 122 -21 125 -21 124 l -21 118 b -1 88 -21 100 -12 88 l 1 88 b 35 115 11 88 25 96 l 96 233 b 354 776 185 404 268 601 z m 90 326 b 96 346 92 333 93 339 b 131 438 106 376 118 408 b 333 892 190 592 257 746 b 371 957 346 914 353 939 l 372 958 b 388 975 375 964 382 975 l 389 975 b 397 964 394 975 396 969 l 401 924 b 360 878 378 917 368 899 b 90 326 325 808 114 356 z m 199 -133 b 217 -143 199 -137 210 -143 b 222 -140 219 -143 222 -143 b 268 -44 238 -106 251 -75 b 289 22 279 -25 289 -3 b 250 63 289 40 269 58 b 240 64 247 64 243 64 l 238 64 l 232 63 l 229 63 b 203 31 213 58 203 43 b 207 18 203 26 204 21 b 244 4 218 6 235 4 l 253 4 b 226 -57 243 -18 233 -37 b 199 -133 222 -67 199 -125 z "}}}
